<svg width="325" height="32" viewBox="0 0 325 32" fill="none" xmlns="http://www.w3.org/2000/svg">
<path d="M304.026 16.8416C303.583 16.8668 303.135 16.8842 302.701 16.922C302.419 16.9456 302.298 16.8763 302.11 16.8401C302.047 16.8275 301.98 16.8023 301.922 16.8054C301.483 16.8306 301.045 16.859 300.606 16.8873C300.472 16.9487 300.387 17.0306 300.181 17.0605C299.979 17.0889 299.742 17.0889 299.518 17.1031C299.223 17.1204 298.927 17.1377 298.632 17.1535C298.484 17.1613 298.363 17.1913 298.314 17.248C298.305 17.2574 298.403 17.281 298.457 17.2952C298.636 17.3424 298.811 17.396 299.008 17.4322C299.196 17.4669 299.429 17.4102 299.63 17.4543C300.082 17.5535 300.087 17.5519 300.431 17.533C300.727 17.5157 301.022 17.4968 301.318 17.4842C301.376 17.481 301.443 17.5047 301.506 17.5173C301.694 17.5519 301.815 17.6306 302.092 17.6007C302.303 17.5771 302.535 17.5724 302.755 17.5598C302.938 17.6054 303.108 17.6574 303.305 17.6936C303.489 17.7283 303.543 17.7551 303.444 17.8007C303.355 17.8433 303.229 17.8606 303.064 17.8637C302.916 17.8653 302.768 17.8795 302.62 17.8873C302.544 17.8921 302.473 17.8952 302.401 17.9C302.119 17.9173 302.119 17.9173 301.604 17.8165C301.403 17.7771 301.174 17.8322 300.982 17.7944C300.852 17.7692 300.74 17.7314 300.615 17.7047C300.561 17.6936 300.476 17.6921 300.409 17.6952C300.185 17.7062 299.961 17.7141 299.746 17.7346C299.594 17.7488 299.505 17.7929 299.523 17.837C299.527 17.8543 299.634 17.8795 299.697 17.8811C299.84 17.8842 299.993 17.8621 300.131 17.8732C300.266 17.8842 300.404 17.9157 300.503 17.9503C300.704 18.0228 300.933 17.9582 301.125 17.9771C301.327 17.9976 301.492 18.0606 301.685 18.0984C301.734 18.1078 301.828 18.0921 301.904 18.0874C302.124 18.0763 302.343 18.0669 302.562 18.0559C302.746 18.1015 302.943 18.1425 303.108 18.1945C303.408 18.2889 303.731 18.3251 304.12 18.2795C304.34 18.2543 304.554 18.2637 304.729 18.3252C304.908 18.3882 305.114 18.3819 305.342 18.3693C305.553 18.3567 305.768 18.322 305.983 18.3661C306.448 18.4637 306.453 18.4685 307.003 18.4307C307.169 18.4197 307.294 18.4165 307.42 18.4527C307.536 18.4858 307.661 18.5141 307.782 18.5456C308.002 18.5346 308.225 18.5236 308.445 18.511C308.727 18.4937 308.883 18.5157 308.951 18.6039C308.991 18.6575 309.009 18.7063 309.107 18.7425C309.224 18.7866 309.349 18.785 309.519 18.7724C309.68 18.7614 309.797 18.7441 309.864 18.6874C309.891 18.6638 309.944 18.6417 309.994 18.6228C310.034 18.6086 310.097 18.5866 310.132 18.5897C310.2 18.596 310.289 18.6133 310.312 18.6338C310.531 18.8244 310.531 18.826 310.755 18.8811C311.001 18.9425 311.256 18.9976 311.48 19.0669C311.681 19.1283 311.883 19.1016 312.102 19.1016C312.268 19.1016 312.375 19.1425 312.362 19.1835C312.353 19.2071 312.29 19.2417 312.237 19.2449C311.798 19.2764 311.355 19.3031 310.911 19.3252C310.858 19.3283 310.791 19.3 310.728 19.2858C310.603 19.2575 310.491 19.2134 310.356 19.2039C310.222 19.1945 310.065 19.2181 309.918 19.226C309.77 19.2338 309.613 19.2543 309.479 19.2417C309.345 19.2291 309.237 19.1835 309.112 19.1535C309.054 19.1394 308.973 19.1189 308.924 19.1236C308.597 19.1614 308.355 19.1094 308.122 19.0401C308.073 19.026 307.988 19.0165 307.925 19.0197C307.406 19.0464 306.891 19.0779 306.372 19.1079C306.162 19.1205 305.991 19.0653 305.947 18.9724C305.924 18.9205 305.88 18.8685 305.88 18.8165C305.88 18.722 305.633 18.6701 305.454 18.6811C305.159 18.6968 304.859 18.7094 304.568 18.733C304.331 18.7519 304.129 18.733 303.968 18.6763C303.78 18.6118 303.565 18.6244 303.35 18.6417C303.189 18.6543 303.144 18.7063 303.153 18.837C303.162 18.9425 303.086 18.9756 302.795 18.9929C302.428 19.0149 302.056 19.037 301.685 19.0543C301.627 19.0575 301.559 19.0307 301.501 19.0165C301.376 18.9882 301.264 18.9425 301.13 18.9331C300.995 18.922 300.839 18.9457 300.691 18.9551C300.543 18.963 300.387 18.985 300.252 18.974C300.118 18.963 300.006 18.9157 299.885 18.8858C299.827 18.8716 299.755 18.8512 299.697 18.8543C299.402 18.8669 299.106 18.8858 298.811 18.9031C298.479 18.922 298.479 18.922 298.009 18.8244C297.794 18.7803 297.58 18.8149 297.369 18.8275C297.145 18.8401 296.935 18.8464 296.76 18.7834C296.644 18.7425 296.514 18.7173 296.375 18.7252C296.004 18.7441 295.637 18.7677 295.265 18.7866C295.202 18.7897 295.117 18.7819 295.068 18.7677C294.831 18.7016 294.598 18.6496 294.267 18.6827C293.98 18.711 293.671 18.7126 293.385 18.7393C293.228 18.7535 293.157 18.8039 293.188 18.8433C293.206 18.8638 293.3 18.8874 293.363 18.8874C293.506 18.889 293.662 18.8653 293.797 18.8748C294.074 18.8937 294.213 19.026 294.576 18.9897C294.791 18.9677 295.014 18.9598 295.238 18.9535C295.296 18.9519 295.359 18.9819 295.422 18.9976C295.601 19.0401 295.758 19.0953 296.017 19.0669C296.232 19.0449 296.46 19.0386 296.68 19.026C297.029 19.0055 297.029 19.0071 297.481 19.1031C297.696 19.1488 297.911 19.1126 298.121 19.1016C298.278 19.0937 298.426 19.0779 298.551 19.1C298.744 19.1331 298.882 19.2086 299.12 19.2039C299.343 19.1992 299.563 19.1772 299.787 19.1693C299.925 19.1646 300.055 19.1898 300.167 19.2323C300.284 19.2748 300.409 19.2937 300.561 19.2842C300.78 19.2716 301.004 19.2559 301.228 19.248C301.291 19.2464 301.363 19.2606 301.421 19.2732C301.546 19.3016 301.667 19.3346 301.788 19.3646C302.007 19.3551 302.231 19.352 302.446 19.3331C302.612 19.3189 302.728 19.3252 302.862 19.3567C303.032 19.3992 303.171 19.4748 303.449 19.4386C303.587 19.4213 303.749 19.426 303.887 19.4102C304.058 19.3898 304.174 19.3976 304.295 19.4449C304.523 19.5346 304.81 19.5362 305.105 19.5016C305.427 19.4638 305.669 19.5079 305.911 19.5772C306.166 19.6496 306.166 19.648 306.363 19.8228C306.421 19.8732 306.587 19.8969 306.726 19.8874C306.958 19.8717 307.16 19.8795 307.33 19.9394C307.509 20.004 307.724 19.9961 307.943 19.9788C308.234 19.9551 308.525 19.9347 308.763 20.026C308.879 20.0701 309.004 20.0811 309.161 20.0701C309.604 20.0417 310.052 20.0244 310.486 19.9898C310.75 19.9677 310.902 20.0181 311.082 20.0607C311.323 20.1189 311.587 20.1709 311.587 20.2953C311.587 20.3158 311.65 20.3394 311.704 20.3552C311.82 20.3882 311.946 20.4166 312.066 20.4481C312.246 20.4953 312.42 20.5347 312.666 20.5095C312.881 20.489 313.109 20.4827 313.329 20.4685C313.548 20.4544 313.75 20.4465 313.947 20.5063C314.175 20.5741 314.417 20.6386 314.676 20.689C314.86 20.7252 315.102 20.6638 315.299 20.7126C315.42 20.7426 315.536 20.7772 315.666 20.8024C315.719 20.8134 315.805 20.8056 315.876 20.8024C316.024 20.7961 316.176 20.7914 316.319 20.7756C316.485 20.7583 316.61 20.7615 316.736 20.7977C316.852 20.8308 316.969 20.8764 317.103 20.8859C317.304 20.9001 317.528 20.8371 317.73 20.9095C317.833 20.9457 317.962 20.9804 318.097 20.9914C318.231 21.0024 318.388 20.9788 318.531 20.9804C318.594 20.9804 318.67 21.0056 318.705 21.026C318.728 21.0371 318.697 21.067 318.665 21.0827C318.625 21.1016 318.567 21.1268 318.509 21.13C318.065 21.1583 317.622 21.182 317.179 21.2087C316.915 21.2245 316.915 21.2245 316.382 21.1253C316.257 21.1016 316.118 21.1064 315.961 21.1174C315.751 21.1316 315.536 21.1583 315.317 21.13C315.03 21.0229 314.676 21.0134 314.3 21.0544C314.144 21.0717 314 21.0717 313.884 21.0418C313.638 20.9819 313.378 20.9268 313.159 20.856C312.989 20.8008 312.908 20.7961 312.836 20.8717C312.814 20.8953 312.792 20.9205 312.796 20.9426C312.823 21.0213 312.872 21.0985 312.899 21.1772C312.908 21.1993 312.872 21.2245 312.85 21.2481C312.778 21.3142 312.684 21.3095 312.528 21.2544C312.371 21.1993 312.183 21.1631 311.932 21.1883C311.717 21.2103 311.484 21.2072 311.27 21.2308C310.938 21.2654 310.706 21.215 310.468 21.1473C310.419 21.1331 310.334 21.1253 310.271 21.1284C309.604 21.1646 308.942 21.2056 308.275 21.2418C308.131 21.2497 308.002 21.226 307.89 21.1835C307.773 21.141 307.643 21.119 307.5 21.1268C306.909 21.1599 306.318 21.1898 305.727 21.2308C305.486 21.2481 305.293 21.2276 305.128 21.1725C305.002 21.1315 304.886 21.119 304.729 21.1237C304.559 21.1284 304.438 21.1442 304.353 21.1898C304.272 21.2339 304.331 21.2607 304.51 21.2953C304.702 21.3331 304.881 21.382 305.065 21.4261C305.212 21.4198 305.36 21.4071 305.503 21.4087C305.566 21.4087 305.624 21.4371 305.687 21.4528C305.866 21.4985 306.032 21.5442 306.287 21.519C306.502 21.4969 306.73 21.4922 306.949 21.478C307.254 21.4607 307.254 21.4607 307.746 21.5599C307.872 21.5851 308.006 21.5835 308.167 21.5694C308.306 21.5583 308.449 21.5804 308.548 21.6276C308.588 21.6465 308.575 21.678 308.49 21.782C308.49 21.8592 308.583 21.8245 308.615 21.7741C308.664 21.7017 308.57 21.678 308.391 21.7174C308.266 21.7458 308.203 21.7867 308.234 21.8198C308.252 21.8371 308.337 21.8592 308.49 21.782C308.884 21.6875 309.183 21.6765 309.47 21.6513C309.64 21.6371 309.747 21.6434 309.882 21.6843C310.043 21.7331 310.204 21.7851 310.468 21.7599C310.755 21.7316 311.059 21.7284 311.35 21.7048C311.619 21.6827 311.758 21.7521 311.928 21.793C312.134 21.8418 312.362 21.7867 312.55 21.815C312.747 21.8434 312.886 21.9127 313.114 21.9253C313.445 21.8828 313.656 21.9615 313.906 22.0135C314.103 22.0529 314.336 22.0182 314.547 22.0009C314.784 21.982 314.981 21.9993 315.146 22.056C315.334 22.1206 315.545 22.1064 315.76 22.0922C316.261 22.0607 316.279 22.056 316.57 22.1426C316.78 22.2056 316.982 22.1773 317.192 22.1694C317.376 22.2119 317.555 22.2576 317.747 22.2954C317.797 22.3048 317.891 22.2891 317.967 22.2844C318.186 22.2718 318.41 22.2592 318.629 22.2466C318.777 22.2387 318.934 22.2151 319.068 22.2245C319.202 22.2355 319.314 22.2812 319.435 22.3111C319.556 22.3411 319.681 22.371 319.798 22.4025C319.977 22.4497 320.147 22.4891 320.398 22.4655C320.613 22.445 320.836 22.4387 321.06 22.4245C321.342 22.4072 321.333 22.4119 321.857 22.5064C322.139 22.5584 322.43 22.4954 322.717 22.4891C322.86 22.4859 322.999 22.5033 323.097 22.5489C323.137 22.5678 323.124 22.5993 323.138 22.6261C322.399 22.6686 321.656 22.7048 320.926 22.7568C320.644 22.7773 320.496 22.7206 320.344 22.6733C320.093 22.5977 319.762 22.708 319.525 22.6103C319.381 22.5521 319.176 22.519 318.929 22.5474C318.786 22.5631 318.634 22.5615 318.486 22.5757C318.11 22.6103 317.765 22.6119 317.465 22.5033C317.362 22.4655 317.215 22.445 317.107 22.4088C316.982 22.3694 316.861 22.3473 316.713 22.3552C316.046 22.393 315.384 22.4308 314.721 22.4718C314.663 22.4749 314.605 22.4985 314.555 22.5159C314.43 22.5599 314.47 22.5946 314.672 22.623C314.739 22.6324 314.793 22.6529 314.855 22.6686C314.976 22.6985 315.088 22.7458 315.223 22.7568C315.357 22.7678 315.514 22.7458 315.661 22.7379C315.809 22.73 315.966 22.7064 316.1 22.7159C316.234 22.7269 316.346 22.7726 316.472 22.8009C316.53 22.8151 316.601 22.8387 316.66 22.8371C316.955 22.8277 317.246 22.8104 317.542 22.7962C317.725 22.8387 317.882 22.9001 318.101 22.9143C318.24 22.9237 318.388 22.9064 318.531 22.9096C318.594 22.9111 318.674 22.9348 318.705 22.9552C318.723 22.9678 318.665 22.9993 318.62 23.0151C318.45 23.0749 318.218 23.0639 318.007 23.0828C317.779 23.1033 317.573 23.097 317.398 23.0356C317.282 22.9946 317.152 22.9726 317.009 22.9804C316.637 23.0009 316.27 23.0245 315.898 23.0419C315.836 23.045 315.76 23.0308 315.702 23.0198C315.232 22.9238 315.231 22.9206 314.9 22.9411C314.412 22.971 314.412 22.971 314.086 22.8875C314.023 22.8718 313.956 22.8419 313.902 22.8434C313.383 22.8686 312.868 22.8938 312.353 22.93C312.183 22.9411 312.066 22.9411 311.941 22.9001C311.834 22.8655 311.708 22.8261 311.574 22.8167C311.435 22.8072 311.283 22.8308 311.135 22.8387C310.988 22.8466 310.831 22.8671 310.701 22.8545C310.567 22.8419 310.45 22.7978 310.334 22.7663C310.213 22.7332 310.083 22.7348 309.918 22.7474C309.407 22.7836 309.403 22.7789 308.897 22.6812C308.839 22.6702 308.763 22.6576 308.7 22.6607C308.328 22.6796 307.961 22.7033 307.59 22.7222C307.446 22.73 307.308 22.7096 307.209 22.6639C307.169 22.645 307.182 22.6135 307.155 22.5521C307.124 22.5379 307.16 22.5631 307.169 22.5867C307.236 22.5836 307.317 22.5867 307.366 22.5741C307.491 22.5442 307.554 22.5048 307.522 22.4718C307.505 22.4544 307.42 22.4324 307.366 22.4324C307.267 22.4324 307.182 22.467 307.155 22.5521C306.873 22.604 306.573 22.6151 306.282 22.6403C306.112 22.656 306.005 22.6482 305.871 22.6072C305.709 22.5568 305.544 22.508 305.28 22.5332C304.993 22.5615 304.689 22.5663 304.393 22.5883C304.053 22.6135 303.905 22.4718 303.619 22.4749C303.323 22.4781 303.028 22.5048 302.732 22.5237C302.473 22.5395 302.473 22.5395 301.935 22.4371C301.739 22.3993 301.506 22.4544 301.313 22.4151C301.183 22.3899 301.072 22.3521 300.946 22.3253C300.892 22.3143 300.807 22.3143 300.74 22.3174C300.369 22.3363 299.993 22.3489 299.634 22.3836C299.227 22.4245 298.918 22.3804 298.627 22.2875C298.26 22.3048 297.889 22.3143 297.526 22.3442C297.262 22.3662 297.11 22.3143 296.931 22.2718C296.868 22.2576 296.814 22.234 296.747 22.2277C296.68 22.2214 296.599 22.234 296.528 22.2387C296.232 22.256 295.928 22.2639 295.641 22.2922C295.287 22.3285 295.153 22.1993 294.88 22.1836C294.697 22.2607 294.598 22.3662 294.235 22.3741C293.94 22.3804 293.645 22.4056 293.349 22.4229C293.201 22.4308 293.054 22.4403 292.906 22.4481C292.669 22.4623 292.557 22.5237 292.606 22.6182C292.633 22.6702 292.655 22.7222 292.678 22.7741C292.722 22.8671 292.61 22.9458 292.422 22.9568C291.903 22.9867 291.388 23.0182 290.869 23.045C290.73 23.0529 290.596 23.0261 290.484 22.9836C290.367 22.9411 290.238 22.9222 290.094 22.93C289.575 22.96 289.06 22.9915 288.541 23.0182C288.483 23.0214 288.407 23.0056 288.349 22.993C288.223 22.9647 288.102 22.9316 287.981 22.9017C287.686 22.9159 287.395 22.9253 287.104 22.9442C286.634 22.9726 286.634 22.9741 286.289 22.8875C286.227 22.8718 286.164 22.8419 286.106 22.8434C285.882 22.8497 285.663 22.8655 285.439 22.8797C284.781 22.9206 284.781 22.9206 284.588 22.8734C284.413 22.8293 284.257 22.7757 283.993 22.8009C283.706 22.8293 283.402 22.8387 283.106 22.8545C282.887 22.8655 282.667 22.8781 282.448 22.8812C282.39 22.8828 282.327 22.8529 282.265 22.8371C282.086 22.7883 281.911 22.7489 281.665 22.7757C281.521 22.7915 281.369 22.7946 281.221 22.8025C280.836 22.8245 280.836 22.8245 280.205 22.73C280.143 22.7206 280.066 22.7096 280.004 22.7143C279.485 22.7426 278.97 22.7741 278.45 22.8009C278.388 22.8041 278.312 22.7946 278.249 22.7867C277.542 22.6954 277.542 22.6954 276.79 22.7395C276.503 22.7552 276.494 22.7615 276.194 22.6781C276.06 22.6418 275.948 22.6245 275.791 22.6355C275.2 22.6733 274.605 22.6985 274.018 22.7426C273.754 22.7615 273.602 22.7143 273.423 22.6718C273.36 22.6576 273.293 22.6261 273.24 22.6277C272.649 22.6576 272.058 22.6938 271.467 22.7237C271.413 22.7269 271.346 22.6954 271.283 22.6812C271.162 22.6529 271.046 22.6104 270.911 22.6009C270.773 22.5915 270.621 22.6151 270.468 22.623C270.097 22.6434 270.097 22.6419 269.667 22.5489C269.609 22.5363 269.533 22.519 269.474 22.5222C268.884 22.5537 268.288 22.5804 267.702 22.6261C267.366 22.6513 267.138 22.6056 266.9 22.5395C266.851 22.5253 266.766 22.519 266.703 22.5222C266.036 22.5584 265.374 22.5993 264.707 22.6355C264.568 22.6434 264.434 22.6166 264.322 22.5757C264.143 22.5111 263.932 22.519 263.708 22.5332C263.194 22.5662 263.189 22.5647 262.885 22.4891C262.822 22.4733 262.768 22.4529 262.701 22.445C262.638 22.4371 262.558 22.4418 262.491 22.445C262.195 22.4607 261.9 22.4781 261.604 22.4954C261.309 22.5127 261.009 22.5222 260.718 22.5489C260.36 22.582 260.19 22.4796 259.939 22.4324C259.572 22.4529 259.196 22.4655 258.833 22.4985C258.556 22.5237 258.426 22.4544 258.242 22.4182C258.18 22.4056 258.112 22.3788 258.054 22.382C257.387 22.4166 256.72 22.4544 256.058 22.497C255.896 22.5064 255.789 22.4938 255.655 22.456C255.355 22.371 255.341 22.3741 254.84 22.4056C254.621 22.4198 254.41 22.4324 254.222 22.3678C254.056 22.3096 253.855 22.2954 253.618 22.3143C253.327 22.3379 253.027 22.3505 252.731 22.3662C252.436 22.3836 252.14 22.4072 251.845 22.4151C251.608 22.4229 251.464 22.3489 251.276 22.3111C251.218 22.3001 251.138 22.2985 251.071 22.3017C250.775 22.3158 250.471 22.3269 250.184 22.3536C249.835 22.3867 249.642 22.3001 249.396 22.2497C249.343 22.2387 249.253 22.245 249.186 22.2497C248.666 22.2781 248.152 22.3095 247.632 22.3395C247.449 22.2969 247.261 22.256 247.077 22.2135C246.782 22.2292 246.486 22.2466 246.191 22.2623C245.967 22.2749 245.739 22.2796 245.528 22.3033C245.255 22.3347 245.121 22.2607 244.937 22.2245C244.875 22.2119 244.807 22.1851 244.749 22.1883C244.378 22.2056 244.006 22.2245 243.639 22.2513C243.29 22.2781 243.151 22.1363 242.865 22.1379C242.569 22.1395 242.265 22.1599 241.978 22.1883C241.647 22.2214 241.414 22.171 241.177 22.1032C241.128 22.0891 241.043 22.0812 240.98 22.0843C240.608 22.1032 240.241 22.1269 239.87 22.1458C239.807 22.1489 239.731 22.141 239.668 22.1316C238.961 22.0387 238.961 22.0371 238.652 22.056C238.433 22.0686 238.209 22.0844 237.985 22.0922C237.922 22.0954 237.846 22.0812 237.788 22.0686C237.322 21.9725 237.322 21.971 236.987 21.9899C236.691 22.0072 236.396 22.0245 236.1 22.0418C235.917 21.9993 235.729 21.9584 235.545 21.9158C235.178 21.9363 234.802 21.952 234.439 21.9804C234.269 21.993 234.157 21.9883 234.027 21.9489C233.866 21.9017 233.705 21.8465 233.436 21.8733C233.15 21.9017 232.846 21.9048 232.555 21.9284C232.205 21.9568 232.062 21.8135 231.78 21.815C231.485 21.8166 231.18 21.8371 230.894 21.8654C230.562 21.8985 230.33 21.8481 230.092 21.7804C230.043 21.7662 229.958 21.7584 229.895 21.7615C229.081 21.8072 228.27 21.8528 227.456 21.9017C226.954 21.9316 226.954 21.9332 226.001 21.8465C225.933 21.8402 225.862 21.834 225.795 21.8371C225.499 21.8513 225.195 21.8623 224.908 21.8891C224.559 21.9221 224.367 21.8371 224.12 21.7851C224.067 21.7741 223.982 21.7804 223.91 21.7835C223.686 21.7946 223.467 21.8088 223.243 21.8214C222.947 21.8387 222.652 21.856 222.356 21.8733C222.173 21.8324 221.985 21.7898 221.801 21.7489C221.434 21.7694 221.058 21.7804 220.696 21.8135C220.418 21.8387 220.288 21.7725 220.105 21.7347C220.042 21.7221 219.975 21.6954 219.917 21.6969C219.25 21.7316 218.583 21.7678 217.92 21.8119C217.647 21.8308 217.522 21.7599 217.338 21.7237C217.275 21.7127 217.204 21.6922 217.146 21.6954C216.702 21.7174 216.259 21.7442 215.816 21.7709C215.565 21.7867 215.565 21.7867 215.019 21.6891C214.956 21.678 214.885 21.667 214.822 21.6702C213.416 21.7489 212.015 21.8324 210.609 21.9111C210.466 21.919 210.336 21.8954 210.225 21.8528C210.108 21.8103 209.978 21.7883 209.835 21.7962C209.244 21.8292 208.649 21.8592 208.062 21.9001C207.82 21.9174 207.628 21.8969 207.462 21.8418C207.337 21.8009 207.221 21.7851 207.064 21.7946C206.768 21.8135 206.473 21.8292 206.178 21.8465C205.882 21.8639 205.587 21.8812 205.291 21.8985C204.996 21.9158 204.696 21.9253 204.405 21.9521C204.047 21.9851 203.872 21.8875 203.626 21.8387C203.183 21.8623 202.739 21.8859 202.301 21.9111C201.71 21.9442 201.119 21.9804 200.528 22.0119C200.474 22.0151 200.407 21.9867 200.344 21.9725C200.161 21.9332 200.026 21.878 199.753 21.8954C198.428 21.9788 197.094 22.0497 195.765 22.1316C195.487 22.1489 195.366 22.0812 195.178 22.045C195.115 22.0339 195.044 22.0119 194.986 22.0151C194.247 22.0544 193.508 22.0985 192.77 22.141C192.47 22.1584 192.47 22.1584 191.968 22.0607C191.91 22.0497 191.834 22.0355 191.771 22.0387C190.809 22.0922 189.851 22.1489 188.888 22.204C188.745 22.2119 188.615 22.1899 188.499 22.1473C188.387 22.1048 188.252 22.0812 188.114 22.0891C187.227 22.1395 186.336 22.1883 185.455 22.2434C185.217 22.2592 185.02 22.245 184.85 22.1883C184.729 22.1473 184.608 22.13 184.456 22.1395C183.127 22.2166 181.797 22.2907 180.467 22.3726C180.212 22.3883 180.033 22.3584 179.872 22.3064C179.742 22.2655 179.63 22.2576 179.469 22.2639C179.299 22.2718 179.196 22.2891 179.102 22.3363C178.981 22.3977 178.905 22.4749 178.618 22.4796C178.323 22.4844 178.023 22.5033 177.732 22.53C177.455 22.5568 177.325 22.4859 177.15 22.4434C177.02 22.4135 176.899 22.4088 176.734 22.4229C176.582 22.4355 176.488 22.4623 176.398 22.5127C176.201 22.6198 176.183 22.6198 175.941 22.5521C175.812 22.5159 175.695 22.4875 175.552 22.4938C174.961 22.5253 174.37 22.56 173.779 22.5962C173.439 22.6166 173.434 22.6198 173.179 22.5411C173.054 22.5017 172.933 22.4828 172.785 22.4922C171.16 22.5867 169.535 22.6781 167.91 22.7773C167.659 22.793 167.489 22.76 167.31 22.7127C167.252 22.697 167.194 22.6749 167.127 22.6686C167.06 22.6623 166.983 22.6686 166.912 22.6718C165.73 22.7395 164.544 22.8041 163.366 22.8797C163.098 22.897 162.954 22.8466 162.771 22.8056C162.708 22.7915 162.654 22.7694 162.587 22.7631C162.52 22.7584 162.439 22.7694 162.368 22.7741C161.186 22.8419 160 22.9064 158.822 22.982C158.54 22.9993 158.419 22.9332 158.236 22.8986C158.173 22.886 158.106 22.8623 158.048 22.8655C157.676 22.8828 157.309 22.9064 156.938 22.9269C156.051 22.9789 155.165 23.0277 154.278 23.0812C153.938 23.1017 153.79 22.9615 153.504 22.9678C153.132 22.9757 152.765 23.0072 152.394 23.0293C152.098 23.0466 151.803 23.0623 151.507 23.0812C151.216 23.0986 151.216 23.0986 150.491 23.0072C150.428 22.9993 150.352 22.9883 150.29 22.9915C149.255 23.0497 148.217 23.108 147.187 23.171C146.95 23.1852 146.753 23.1773 146.583 23.119C146.462 23.0781 146.337 23.0576 146.189 23.0671C144.635 23.1568 143.086 23.2466 141.533 23.3348C141.475 23.3379 141.399 23.3222 141.34 23.3096C141.215 23.2812 141.094 23.2482 140.973 23.2183C140.884 23.2545 140.767 23.2875 140.709 23.3285C140.629 23.3836 140.521 23.3994 140.351 23.4088C140.181 23.4183 140.074 23.4151 139.939 23.3742C139.778 23.3238 139.612 23.2844 139.348 23.3001C137.723 23.3993 136.098 23.4891 134.473 23.5868C134.204 23.6025 134.079 23.5332 133.891 23.497C133.828 23.486 133.757 23.4687 133.699 23.4718C133.032 23.508 132.369 23.5474 131.702 23.5852C129.853 23.6923 128.004 23.7947 126.16 23.908C125.824 23.9285 125.596 23.8891 125.358 23.8214C125.309 23.8072 125.224 23.7994 125.161 23.8025C122.574 23.9506 119.986 24.1002 117.403 24.2498C117.264 24.2576 117.13 24.2325 117.018 24.1915C116.902 24.149 116.772 24.1285 116.629 24.1364C115.447 24.2041 114.265 24.2718 113.083 24.3411C112.788 24.3585 112.783 24.36 112.479 24.2844C112.416 24.2687 112.349 24.2388 112.3 24.2419C112.197 24.2498 112.098 24.2891 112.027 24.3427C111.955 24.3994 111.843 24.4151 111.677 24.4262C111.507 24.4372 111.395 24.4325 111.266 24.3947C111.1 24.3474 110.948 24.3018 110.679 24.3175C107.281 24.5191 103.883 24.7128 100.485 24.9128C100.212 24.9285 100.087 24.8624 99.899 24.8262C99.8363 24.8152 99.7737 24.7994 99.7065 24.7962C99.6349 24.7931 99.5588 24.8026 99.4872 24.8073C93.9449 25.127 88.4027 25.4482 82.8605 25.7679C82.5292 25.7868 82.5337 25.7868 82.1711 25.9317C82.1263 25.9491 82.0681 25.9727 82.0054 25.9758C80.3087 26.0766 78.6076 26.1742 76.9064 26.2719C76.1677 26.3144 75.4291 26.3585 74.6904 26.3995C74.4263 26.4136 74.4263 26.4136 73.7951 26.5837C73.7413 26.5979 73.6786 26.6168 73.6159 26.6199C70.6613 26.7916 67.7066 26.9633 64.7474 27.1318C64.5146 27.1444 64.3266 27.1727 64.2192 27.2483C64.1431 27.3019 64.0446 27.3334 63.8969 27.3428C61.8286 27.4625 59.7604 27.5838 57.6877 27.7003C57.4414 27.7145 57.2936 27.7586 57.1728 27.8247C57.1325 27.8468 57.0966 27.8719 57.0384 27.8877C56.9847 27.9019 56.9042 27.9066 56.837 27.9113C55.0642 28.0137 53.2915 28.1192 51.5142 28.2169C51.2501 28.231 51.1426 28.2893 51.0127 28.3507C50.968 28.3712 50.9366 28.3995 50.8784 28.4137C50.8202 28.4263 50.7352 28.4263 50.6635 28.4295C49.1862 28.5145 47.7089 28.6011 46.2316 28.6862C45.9451 28.6783 45.8824 28.7696 45.7436 28.8247C45.6943 28.8436 45.6586 28.8688 45.6004 28.8814C45.5377 28.894 45.457 28.8925 45.3809 28.8956C44.1991 28.9633 43.0172 29.0358 41.8309 29.0988C41.5578 29.1129 41.5041 29.1933 41.3563 29.2484C41.3071 29.2657 41.2579 29.2925 41.1997 29.2972C40.461 29.3429 39.7224 29.3854 38.9837 29.4263C38.7375 29.4405 38.7375 29.4389 38.3032 29.5949C38.254 29.6122 38.1957 29.6311 38.1331 29.6358C37.0273 29.7019 35.9171 29.7649 34.8069 29.8295C34.6636 29.8374 34.5651 29.8752 34.4935 29.9287C34.4219 29.9823 34.3189 30.0169 34.1757 30.0248C33.2893 30.0768 32.4028 30.1303 31.5164 30.1775C31.2702 30.1901 31.1091 30.2295 31.0016 30.3004C30.921 30.3539 30.8225 30.3807 30.6659 30.3901C29.7795 30.4405 28.8931 30.4957 28.0022 30.5398C27.7425 30.5524 27.6082 30.6059 27.5007 30.6721C27.4157 30.7256 27.3172 30.7445 27.1515 30.754C25.5265 30.8453 23.897 30.9366 22.2764 31.0374C22.0033 31.0547 21.8645 30.9996 21.6854 30.9602C21.4303 30.9051 21.1931 30.8453 21.1931 30.7224C21.1931 30.7035 21.1169 30.6815 21.0632 30.6657C20.6648 30.5476 20.6648 30.5476 20.6021 30.4217C20.5663 30.3445 20.526 30.2657 20.4946 30.187C20.4365 30.0579 20.2931 30.0248 19.8813 30.0484C19.7335 30.0563 19.5858 30.0673 19.4381 30.0736C19.2187 30.0846 19.0531 30.0327 19.0128 29.9382C18.9904 29.8862 18.9636 29.8342 18.9412 29.7823C19.1651 29.7697 19.1605 29.7681 19.5545 29.5775C19.7201 29.4972 19.7202 29.4972 19.4023 29.4169C19.2815 29.387 19.165 29.3539 19.0352 29.3255C18.977 29.3129 18.9009 29.3051 18.8383 29.3082C18.4667 29.3271 18.0996 29.3492 17.7325 29.3712C17.1416 29.4059 17.1415 29.4059 16.5416 29.2452C16.4924 29.2326 16.4163 29.209 16.4252 29.1964C16.4745 29.1381 16.5953 29.1129 16.7475 29.1066C16.9714 29.0972 17.1907 29.0814 17.4101 29.0688C17.5578 29.061 17.7056 29.0515 17.8533 29.0437C17.9921 28.9838 18.1354 28.9255 18.2652 28.8641C18.4712 28.7696 18.4711 28.7665 18.1891 28.7003C18.01 28.6562 17.8175 28.6169 17.6339 28.5759C17.4146 28.5885 17.1907 28.6027 16.9714 28.6137C16.6938 28.6279 16.5819 28.598 16.5103 28.4956C16.4476 28.4058 16.5237 28.3287 16.7386 28.3098C16.9579 28.2909 17.164 28.2783 17.2759 28.198C17.3833 28.1208 17.5713 28.0909 17.8041 28.0846C17.9518 28.0798 18.0996 28.0688 18.2473 28.0594C18.4398 28.0468 18.5428 27.9664 18.5025 27.8767C18.4801 27.8184 18.4353 27.7696 18.2607 27.757C17.4863 27.7019 17.4773 27.7034 17.0923 27.5963C17.0564 27.5869 17.0297 27.5586 17.0431 27.5444C17.0655 27.5208 17.1147 27.4861 17.1684 27.4814C17.6833 27.4467 18.1981 27.4153 18.7129 27.3916C18.883 27.3838 19.0084 27.3727 19.0666 27.3144C19.1472 27.2341 19.1114 27.1601 18.9547 27.105C18.9054 27.0877 18.8248 27.0656 18.7711 27.0672C18.1801 27.0955 17.5937 27.1318 17.0028 27.1601C16.949 27.1633 16.8506 27.1365 16.8282 27.116C16.7834 27.0782 16.8505 27.0278 17.0072 27.0105C17.2132 26.9869 17.4236 26.9853 17.5623 26.9066C17.7548 26.7947 17.9921 26.6924 18.207 26.5853C18.2428 26.5664 18.3011 26.5302 18.2876 26.527C18.1757 26.4924 18.0459 26.4656 17.9295 26.4325C17.7325 26.3774 17.7325 26.3002 17.7772 26.2262C17.813 26.1664 17.9473 26.1428 18.113 26.1428C18.1846 26.1428 18.2741 26.1428 18.3323 26.1286C18.4845 26.0939 18.5338 26.0498 18.4577 26.0168C18.4129 25.9979 18.3324 25.9711 18.2787 25.9743C17.3206 26.0262 16.3581 26.0766 15.4045 26.1412C15.1225 26.1601 14.9927 26.1002 14.8226 26.0577C14.6928 26.0246 14.5718 26.012 14.4107 26.0357C14.2585 26.0577 14.1108 26.0451 14.0168 25.9932C13.9407 25.9506 14.075 25.9144 14.4376 25.8735C14.5047 25.8656 14.5808 25.8609 14.63 25.8451C15.1493 25.675 15.1493 25.6735 15.5075 25.6514C15.8567 25.6309 15.8567 25.6294 16.0403 25.538C16.1253 25.4955 16.2193 25.453 16.2999 25.4089C16.3312 25.3915 16.385 25.36 16.3671 25.3506C16.2686 25.3018 16.1342 25.2908 15.9776 25.3018C15.6284 25.3286 15.2166 25.3065 15.033 25.4561C14.9614 25.5128 14.8495 25.5286 14.6883 25.538C13.0677 25.6294 11.4471 25.727 9.822 25.8152C9.55787 25.8294 9.43707 25.8876 9.3341 25.9522C9.24457 26.0058 9.14606 26.0215 8.97594 26.0309C8.80582 26.0404 8.67145 26.0451 8.57296 25.9932C8.51477 25.9617 8.56402 25.9176 8.69833 25.8735C8.89083 25.8105 8.855 25.7317 8.79232 25.6577C8.74755 25.6089 8.60878 25.5742 8.46105 25.5774C8.24168 25.5837 8.03133 25.601 7.84778 25.538C7.74034 25.5018 7.60601 25.4766 7.48514 25.4451C7.25235 25.3805 7.01955 25.3144 6.69274 25.3569C6.46891 25.3412 6.31222 25.2845 6.13315 25.2404C5.83321 25.1679 5.80634 25.1569 6.02123 25.0797C6.26297 24.9931 6.07492 24.8797 6.20922 24.7947C6.35248 24.7033 6.54952 24.623 6.72411 24.538C6.76888 24.5159 6.80919 24.4955 6.85396 24.4734C6.75099 24.4419 6.657 24.4025 6.53612 24.3805C6.37944 24.3522 6.29885 24.3175 6.3078 24.2199C6.27647 24.2057 6.2898 24.2419 6.32562 24.2514C6.36591 24.2608 6.46447 24.2529 6.51372 24.2419C6.63907 24.212 6.70168 24.1726 6.67034 24.1395C6.65243 24.1222 6.56744 24.1002 6.51372 24.1002C6.41523 24.1002 6.33018 24.1348 6.30332 24.2199C5.80192 24.2844 5.28254 24.3159 4.76323 24.3411C4.70951 24.3443 4.6424 24.3128 4.57972 24.297C4.37379 24.2435 4.37377 24.245 3.7694 24.2293C3.70673 24.2277 3.62171 24.2057 3.59038 24.1836C3.46055 24.0876 3.46506 23.9821 3.40239 23.8797C3.51878 23.8135 3.63509 23.749 3.75596 23.6844C3.9977 23.5537 4.31115 23.4387 4.49917 23.2954C4.45888 23.2183 4.40515 23.1411 4.60213 23.0781C5.16173 22.9993 5.15728 22.9993 5.30949 22.9238C5.74374 22.7096 6.17348 22.4938 6.62564 22.2828C6.74651 22.2277 6.74653 22.1977 6.53164 22.1741C6.46449 22.1678 6.39277 22.1662 6.32114 22.1694C6.0973 22.1804 5.87347 22.2088 5.6541 22.2025C5.43474 22.1977 5.27358 22.1284 5.09451 22.0859C4.91096 22.0418 4.72742 21.9962 4.54387 21.9505C4.33347 21.9552 4.1231 21.9993 3.91269 21.9284C3.75153 21.8733 3.55008 21.8339 3.36654 21.7883C3.50532 21.6686 3.76501 21.5772 3.96646 21.4717C4.15001 21.3757 4.15439 21.3772 4.64683 21.3032C4.87962 21.2686 4.96021 21.0906 4.76323 21.0386C4.52596 20.9756 4.27532 20.9174 4.03357 20.8575C3.82316 20.8622 3.60832 20.9048 3.40687 20.8339C3.25018 20.7804 3.07107 20.7441 2.81142 20.7646C2.3727 20.7993 1.92504 20.8166 1.48184 20.8449C1.32963 20.8544 1.16394 20.8481 1.09679 20.7945C1.05202 20.7567 1.18185 20.7048 1.32959 20.6938C1.55342 20.678 1.75486 20.6591 1.86678 20.5804C1.97422 20.5016 2.17118 20.478 2.40397 20.467C2.46664 20.4638 2.53832 20.4449 2.56966 20.426C2.73082 20.3347 2.90991 20.2559 3.25462 20.2591C3.39787 20.2276 3.47393 20.1882 3.42916 20.1504C3.4023 20.1299 3.30834 20.1032 3.25462 20.1063C2.88305 20.1221 2.51149 20.1378 2.14887 20.1662C1.97875 20.1788 1.84886 20.1819 1.74141 20.1347C1.66531 20.1032 1.7056 20.0606 1.84885 20.015C1.9742 19.9756 2.01006 19.9299 2.0011 19.8764C1.97872 19.752 1.84439 19.7158 1.41462 19.7236C1.10572 19.7299 1.02961 19.7095 0.962461 19.6024C0.944554 19.5772 0.899865 19.5425 0.931202 19.5252C1.1237 19.4181 1.24906 19.2858 1.61168 19.2354C1.75494 19.2165 1.90709 19.2165 1.99662 19.1756C2.08616 19.1346 2.16678 19.0874 2.26079 19.048C2.37718 19.0008 2.45769 18.9567 2.40397 18.9268C2.31443 18.8732 2.17122 18.8685 2.00558 18.8874C1.86233 18.9031 1.71012 18.9047 1.56239 18.9142C1.29826 18.9315 1.08342 18.8905 1.05208 18.8212C0.967025 18.6386 0.877464 18.4575 0.801359 18.2748C0.792405 18.2527 0.814728 18.2244 0.850542 18.2055C0.975891 18.1393 1.11025 18.0763 1.24007 18.0118C1.39228 17.9377 1.63407 17.9519 1.84 17.9377C2.13099 17.9173 2.13089 17.9188 2.52037 17.7677C2.67258 17.7078 2.93672 17.7314 3.09341 17.6779C3.14265 17.6606 3.21876 17.6322 3.20533 17.6165C3.18742 17.596 3.09793 17.5802 3.03078 17.5708C2.96811 17.5613 2.89202 17.5566 2.82487 17.5614C2.01009 17.607 1.19982 17.6558 0.38505 17.6999C0.24627 17.7078 0.0940558 17.6732 0.0448114 17.6244C-0.00443305 17.5787 0.00895353 17.5235 0 17.4716C0.129826 17.407 0.277503 17.3472 0.389422 17.2779C0.47448 17.2243 0.572987 17.2007 0.743104 17.1976C0.966942 17.1928 1.18633 17.1739 1.43702 17.1598C1.90261 16.9298 2.35921 16.6889 2.86061 16.459C3.06206 16.366 3.01289 16.2715 3.05319 16.1723C3.09348 16.081 3.3934 16.0952 3.59486 16.0684C3.75602 16.0463 3.80967 15.9959 3.747 15.9613C3.71118 15.9408 3.63064 15.9172 3.56797 15.9172C3.42024 15.9172 3.27251 15.9314 3.12477 15.9392C2.97704 15.9471 2.80693 15.9424 2.68606 15.9692C2.56966 15.9944 2.49352 16.0479 2.41741 16.0936C2.33235 16.144 2.22051 16.1613 2.05039 16.1645C1.83103 16.1676 1.61168 16.1818 1.39232 16.1928C1.15058 16.1314 0.899826 16.0715 0.667034 16.007C0.622266 15.9944 0.613265 15.9582 0.617741 15.9345C0.626695 15.8731 0.559561 15.8353 0.411828 15.8054C0.286478 15.7802 0.183504 15.744 0.0671078 15.7125C0.156643 15.6699 0.255167 15.629 0.326795 15.5833C0.483482 15.4873 0.680482 15.418 1.02072 15.4211C1.15502 15.3597 1.26243 15.2841 1.43702 15.2416C1.60266 15.2006 1.88471 15.2416 2.01006 15.1487C2.07274 15.103 2.1668 15.051 2.28768 15.0321C2.48018 15.0022 2.73087 15.018 2.84279 14.9298C2.90994 14.8794 3.00839 14.8337 3.13822 14.8211C3.28595 14.8069 3.43812 14.8038 3.54556 14.7739C3.60376 14.7581 3.66645 14.7329 3.66645 14.7109C3.66645 14.6967 3.57698 14.6746 3.51431 14.6652C3.45611 14.6542 3.37991 14.6463 3.31276 14.6494C3.08893 14.6589 2.86957 14.6762 2.64573 14.6857C2.58306 14.6888 2.51145 14.6778 2.4443 14.6683C2.24732 14.6431 2.26072 14.6116 2.41741 14.555C2.5741 14.4998 2.68608 14.429 2.8159 14.3644C2.95916 14.3534 3.1382 14.3581 3.23669 14.3282C3.40233 14.2793 3.5187 14.2085 3.653 14.1471C3.80074 14.1376 3.95294 14.1345 4.09172 14.1171C4.14991 14.1108 4.1768 14.0762 4.22604 14.0557C4.31558 14.0163 4.39174 13.9597 4.51262 13.9408C4.70959 13.9124 4.95133 13.9234 5.06773 13.8368C5.13488 13.7864 5.23781 13.7329 5.36316 13.7297C5.71235 13.7234 5.86008 13.6368 6.03915 13.5549C6.17346 13.4935 6.45998 13.525 6.60771 13.4636C6.7062 13.4242 6.77787 13.3754 6.87636 13.3376C6.91665 13.3218 7.00168 13.314 7.06883 13.3092C7.43593 13.2856 7.80749 13.2683 8.17458 13.2431C8.23278 13.2384 8.28654 13.2147 8.33131 13.1958C8.42532 13.1549 8.48346 13.0982 8.59985 13.0714C8.71625 13.0447 8.88187 13.0447 9.02512 13.0368C9.48623 13.0132 9.52208 13.0195 9.73249 12.8856C9.9026 12.7769 10.319 12.8541 10.4578 12.7344C10.5384 12.6651 10.686 12.6084 10.9502 12.6005C11.3217 12.5895 11.6888 12.5596 12.0604 12.5391C12.3917 12.5202 12.3872 12.5202 12.7453 12.3738C12.9065 12.3076 13.1438 12.3171 13.3542 12.3045C13.5781 12.2919 13.784 12.273 13.8914 12.1942C13.9989 12.1171 14.1958 12.0919 14.4241 12.0808C14.6345 12.0698 14.8719 12.0777 15.0375 12.0147C15.4404 11.8635 15.4359 11.8619 15.718 11.8462C16.1612 11.821 16.6044 11.7958 17.0476 11.769C17.343 11.7517 17.6519 11.7485 17.9295 11.7139C18.1309 11.6887 18.2204 11.6005 18.3503 11.5391C18.7174 11.5155 19.0844 11.4918 19.4515 11.4698C19.9664 11.4383 20.4856 11.41 21.005 11.38C21.2288 11.3202 21.2602 11.1879 21.6362 11.1816C21.8601 11.1784 22.0794 11.158 22.3033 11.1454C22.6749 11.1233 23.0419 11.095 23.4135 11.084C23.6955 11.0761 23.7447 10.991 23.8924 10.9375C23.9417 10.9186 23.9865 10.8918 24.0447 10.8871C24.6267 10.843 25.2265 10.8336 25.7951 10.769C25.8533 10.7627 25.907 10.7296 25.9204 10.706C25.9294 10.6934 25.8533 10.6698 25.804 10.6588C25.7458 10.6462 25.6698 10.6336 25.6071 10.6367C23.7582 10.7422 21.9093 10.8493 20.0604 10.9548C19.8008 10.9706 19.8008 10.969 19.1695 11.1422C19.1158 11.1564 19.0531 11.1721 18.9859 11.1769C18.6905 11.1958 18.3905 11.2068 18.0995 11.2304C17.8623 11.2493 17.6654 11.2304 17.4952 11.1737C17.3744 11.1328 17.249 11.1202 17.0967 11.1233C16.9266 11.1281 16.8148 11.1454 16.7163 11.1879C16.5865 11.2462 16.5193 11.3218 16.2462 11.3375C14.9882 11.4052 13.7302 11.4808 12.4767 11.5533C12.3021 11.5312 12.217 11.4981 12.2618 11.4588C12.2887 11.4352 12.3424 11.4037 12.3961 11.4005C12.911 11.3674 13.4303 11.3391 13.9451 11.3076C14.0167 11.3029 14.1152 11.306 14.1555 11.2903C14.3525 11.2194 14.4242 11.1044 14.7957 11.0965C15.0106 11.0918 15.23 11.0682 15.4359 11.0462C15.4941 11.0399 15.5478 11.0068 15.5612 10.9832C15.5657 10.9706 15.4941 10.9469 15.4404 10.9359C15.2434 10.8902 15.0151 10.9454 14.8181 10.9139C14.751 10.9029 14.6569 10.8871 14.6435 10.8682C14.6345 10.8509 14.7106 10.8225 14.7644 10.8052C14.8136 10.7895 14.8807 10.7753 14.9479 10.7706C15.5388 10.7343 16.1298 10.6965 16.7208 10.6682C16.9625 10.6572 17.1326 10.6178 17.24 10.5454C17.3206 10.4918 17.4191 10.4635 17.5713 10.4556C18.6054 10.3973 19.6395 10.3328 20.6782 10.2792C20.9378 10.2666 21.0722 10.2146 21.1796 10.1469C21.2647 10.0934 21.3632 10.0745 21.5288 10.065C23.0106 9.98314 24.4834 9.8918 25.9652 9.81306C26.2383 9.79888 26.319 9.73116 26.4577 9.67289C26.507 9.65242 26.5382 9.62722 26.6009 9.61462C26.6636 9.60202 26.7442 9.60358 26.8203 9.60044C28.0021 9.53272 29.1841 9.46029 30.3704 9.39729C30.648 9.38312 30.7016 9.30436 30.8449 9.24924C30.8941 9.23192 30.9389 9.20358 30.9971 9.19886C31.8835 9.14531 32.7699 9.09492 33.6563 9.04295C34.2472 9.0083 34.8382 8.97365 35.4291 8.94058C35.7201 8.92483 35.7201 8.92325 36.114 8.77363C36.1588 8.75631 36.2215 8.73583 36.2797 8.73111C37.9809 8.63032 39.6776 8.53427 41.3787 8.43505C41.522 8.42718 41.6249 8.39094 41.6966 8.3374C41.7682 8.28385 41.8712 8.24763 42.01 8.23975C43.3396 8.16101 44.6692 8.08385 46.0033 8.00983C46.245 7.99723 46.4151 7.95943 46.5225 7.88856C46.6031 7.83502 46.7016 7.80668 46.8538 7.79881C48.1834 7.72321 49.5131 7.64288 50.8471 7.57044C51.1023 7.55627 51.2276 7.50273 51.353 7.43973C51.3977 7.41769 51.4336 7.38146 51.4873 7.37831C52.1499 7.33422 52.8079 7.28854 53.475 7.25862C53.7525 7.24602 53.8466 7.17987 53.9585 7.11688C54.048 7.06648 54.151 7.04917 54.3211 7.04287C54.6927 7.02869 55.0598 7.00193 55.4224 6.97516C55.4761 6.97043 55.5433 6.93578 55.5478 6.91374C55.5567 6.87279 55.4537 6.84444 55.2836 6.83026C53.5108 6.93263 51.7336 7.03499 49.9608 7.13735C49.6698 7.15468 49.6698 7.15469 49.2758 7.3043C49.231 7.32162 49.1683 7.3421 49.1056 7.34682C47.4045 7.44604 45.7078 7.54368 44.0066 7.6429C43.8634 7.65077 43.7604 7.68699 43.6888 7.74054C43.6172 7.79408 43.5141 7.8303 43.3753 7.83818C41.7503 7.93267 40.1253 8.02874 38.4957 8.11851C38.254 8.13111 38.0839 8.16731 37.9764 8.23975C37.8959 8.2933 37.7974 8.32166 37.6452 8.32953C36.0917 8.41772 34.5427 8.51063 32.9848 8.59567C32.8281 8.60355 32.7118 8.55788 32.7207 8.51535C32.7252 8.49331 32.7923 8.4571 32.846 8.45395C33.6563 8.40198 34.4622 8.34843 35.2769 8.30906C35.55 8.29646 35.6305 8.22716 35.7693 8.16889C35.8141 8.14842 35.8499 8.12165 35.9081 8.11062C35.9708 8.09803 36.0514 8.09961 36.1275 8.09646C38.048 7.98464 39.9686 7.87126 41.8936 7.76574C42.1712 7.74999 42.2248 7.67281 42.3681 7.61769C42.4173 7.59879 42.4621 7.57046 42.5203 7.56731C43.1113 7.52951 43.7022 7.49643 44.2931 7.46336C45.3272 7.40352 46.3613 7.34367 47.4 7.28382C47.6999 7.2665 47.6999 7.26649 48.0849 7.11846C48.1297 7.10113 48.1924 7.0791 48.2506 7.07595C50.9859 6.91689 53.7212 6.75783 56.4566 6.60034C56.5998 6.59247 56.7028 6.55624 56.7744 6.5027C56.846 6.45073 56.949 6.41293 57.0877 6.40348C60.7855 6.1893 64.4789 5.97511 68.1767 5.76408C68.4184 5.74991 68.5885 5.71683 68.696 5.64281C68.7721 5.58927 68.875 5.56093 69.0272 5.55148C73.0921 5.31682 77.157 5.08217 81.2264 4.84595C83.9617 4.68846 86.6971 4.52782 89.4324 4.37349C89.6831 4.35931 89.8173 4.31048 89.9427 4.24591C89.983 4.22387 90.0233 4.18764 90.077 4.18449C90.6635 4.14512 91.2499 4.10891 91.8363 4.07268C92.0199 4.11521 92.2034 4.15616 92.387 4.19868C92.5258 4.13884 92.6601 4.07741 92.7989 4.01757C93.6853 3.9719 94.5583 3.90103 95.4536 3.87898C95.5118 3.8774 95.5744 3.90733 95.6371 3.92308C96.0535 4.0223 96.2907 4.01442 96.5549 3.88213C96.6489 3.83489 96.7294 3.79237 96.8727 3.78449C97.3159 3.75614 97.7637 3.73724 98.2024 3.70417C98.4397 3.68685 98.6366 3.70259 98.8067 3.75929C98.9276 3.80024 99.053 3.81757 99.2007 3.80812C100.015 3.76087 100.826 3.7152 101.641 3.6648C101.699 3.66165 101.752 3.63487 101.797 3.61597C101.891 3.57502 101.972 3.53094 102.061 3.48842C102.182 3.51519 102.317 3.53567 102.415 3.57031C102.54 3.61126 102.657 3.61125 102.827 3.60023C106.077 3.40967 109.332 3.22384 112.582 3.0317C112.859 3.01596 112.98 3.08211 113.168 3.11675C113.231 3.12935 113.294 3.14509 113.361 3.14824C113.432 3.15139 113.508 3.14195 113.58 3.13723C116.02 2.99549 118.46 2.85532 120.9 2.71358C121.222 2.69468 121.222 2.69468 121.701 2.79232C121.759 2.80492 121.835 2.8191 121.898 2.81437C123.008 2.75295 124.118 2.68682 125.224 2.62382C125.367 2.61595 125.488 2.64114 125.618 2.67736C125.873 2.74823 125.891 2.74824 126.079 2.6443C126.169 2.59547 126.263 2.56554 126.41 2.55137C126.572 2.53562 126.701 2.54036 126.827 2.56871C127.006 2.60808 127.136 2.67421 127.409 2.65689C128.591 2.58287 129.777 2.52146 130.954 2.44586C131.223 2.42854 131.366 2.48208 131.545 2.52145C131.608 2.53563 131.666 2.55768 131.733 2.5624C131.8 2.56712 131.881 2.55609 131.953 2.55137C133.43 2.46632 134.912 2.38287 136.385 2.29153C136.662 2.27421 136.783 2.34191 136.971 2.37656C137.034 2.38916 137.105 2.41122 137.164 2.40807C138.05 2.35925 138.941 2.30726 139.827 2.25529C140.145 2.23639 140.145 2.23797 140.629 2.33403C140.687 2.34663 140.763 2.35923 140.826 2.35608C141.86 2.29781 142.898 2.23797 143.933 2.17812C144.25 2.15923 144.25 2.15923 145.168 2.24112C145.235 2.24742 145.307 2.25688 145.374 2.25373C146.556 2.18601 147.742 2.11986 148.924 2.04742C149.161 2.03324 149.358 2.04584 149.528 2.10253C149.649 2.14348 149.775 2.16081 149.922 2.15136C151.252 2.0742 152.586 2.00018 153.911 1.91829C154.166 1.90254 154.332 1.93717 154.511 1.98284C154.569 1.99859 154.628 2.02064 154.695 2.02694C154.762 2.03324 154.838 2.02694 154.91 2.02221C156.239 1.94505 157.573 1.87261 158.898 1.78914C159.167 1.77182 159.31 1.82536 159.489 1.86473C159.552 1.8789 159.619 1.90725 159.673 1.90568C160.192 1.8789 160.711 1.85529 161.226 1.81592C161.504 1.79387 161.625 1.8663 161.813 1.90095C161.875 1.91197 161.947 1.93561 162.005 1.93246C163.115 1.87104 164.226 1.80647 165.331 1.74033C165.488 1.73088 165.605 1.74504 165.73 1.78599C165.896 1.84111 166.088 1.86315 166.33 1.84583C166.845 1.80961 167.364 1.78442 167.883 1.7545C168.188 1.73717 168.188 1.73718 169.119 1.81907C169.186 1.82537 169.258 1.83481 169.325 1.83166C170.211 1.78127 171.102 1.73245 171.984 1.67733C172.221 1.66158 172.418 1.67575 172.588 1.73245C172.709 1.77339 172.83 1.79073 172.982 1.78128C173.797 1.73403 174.607 1.68678 175.422 1.63953C175.718 1.62221 176.013 1.59228 176.309 1.59228C176.523 1.59386 176.68 1.66945 176.873 1.70724C176.926 1.71827 177.016 1.70568 177.087 1.70253C178.122 1.64269 179.16 1.58756 180.19 1.51984C180.458 1.50252 180.602 1.55606 180.781 1.59543C180.843 1.60961 180.911 1.63796 180.964 1.63638C181.336 1.61906 181.703 1.59543 182.075 1.57496C182.518 1.54976 182.965 1.53086 183.404 1.49622C183.762 1.46787 183.897 1.60488 184.183 1.6096C184.402 1.61433 184.626 1.58756 184.846 1.57496C185.289 1.54976 185.732 1.52142 186.175 1.49937C186.332 1.4915 186.453 1.46629 186.502 1.40959C186.511 1.39857 186.435 1.37496 186.386 1.36078C185.79 1.20015 185.79 1.20014 185.19 1.23479C184.819 1.25683 184.452 1.27889 184.08 1.29778C184.017 1.30093 183.946 1.28834 183.883 1.27889C183.704 1.25211 183.722 1.22062 183.874 1.16392C184.026 1.10723 184.143 1.03794 184.273 0.973373C184.456 1.01432 184.635 1.05525 184.819 1.0962C184.967 1.08832 185.114 1.07889 185.262 1.07101C186.001 1.03007 186.739 0.987542 187.478 0.949746C187.532 0.946596 187.599 0.978098 187.662 0.993846C187.841 1.03952 188.002 1.07888 188.261 1.06155C188.924 1.01588 189.591 0.982812 190.254 0.94344C190.545 0.926117 190.545 0.926118 191.055 1.02376C191.113 1.03478 191.189 1.04738 191.252 1.04423C191.919 1.00801 192.582 0.968645 193.249 0.930848C193.392 0.922974 193.531 0.943446 193.634 0.989117C193.674 1.00802 193.665 1.03951 193.835 1.29778C194.363 1.50724 194.726 1.4852 195.093 1.4663C195.25 1.45843 195.388 1.45055 195.491 1.41905C195.545 1.40173 195.612 1.37653 195.612 1.35605C195.612 1.3403 195.514 1.3151 195.451 1.31195C195.008 1.28045 194.587 1.34661 194.153 1.36078C193.951 1.36708 193.777 1.31196 193.741 1.22219C193.732 1.197 193.719 1.17022 193.705 1.14503C193.692 1.11983 193.683 1.09306 193.669 1.06786C193.495 1.05999 193.392 1.08833 193.316 1.14187C193.253 1.18597 193.164 1.23637 193.043 1.25999C192.922 1.28519 192.756 1.28047 192.608 1.28834C192.465 1.29622 192.308 1.31669 192.174 1.30567C192.04 1.29307 191.932 1.24739 191.807 1.21904C191.749 1.20487 191.677 1.1844 191.619 1.18755C191.104 1.21432 190.594 1.24109 190.084 1.27573C189.815 1.29463 189.681 1.2285 189.511 1.18755C189.376 1.15605 189.242 1.16392 189.219 1.23636C189.161 1.4096 189.367 1.48204 189.824 1.44896C190.2 1.42062 190.54 1.41591 190.836 1.523C190.876 1.53717 190.97 1.54347 191.028 1.54032C191.395 1.52142 191.758 1.49779 192.125 1.4789C192.192 1.47575 192.264 1.48204 192.326 1.48834C193.24 1.57338 193.24 1.57496 193.549 1.55606C193.696 1.54661 193.839 1.53874 193.826 1.29936C194.108 1.04266 194.556 1.02534 194.99 0.987541C195.272 0.963918 195.393 1.03321 195.576 1.06944C195.639 1.08204 195.706 1.10723 195.765 1.10408C196.727 1.05211 197.685 0.996981 198.643 0.938711C198.804 0.929262 198.921 0.938713 199.046 0.979659C199.207 1.03163 199.386 1.06471 199.641 1.04581C200.152 1.00801 200.671 0.984396 201.19 0.952899C201.454 0.93715 201.454 0.937134 201.987 1.03478C202.045 1.0458 202.121 1.0584 202.184 1.05525C202.703 1.02848 203.218 0.995414 203.733 0.967067C203.876 0.959193 204.006 0.981238 204.118 1.02376C204.23 1.06628 204.364 1.08833 204.503 1.08045C205.023 1.0521 205.537 1.02062 206.052 0.99227C206.115 0.98912 206.191 1.00014 206.249 1.01117C206.795 1.10881 206.795 1.10879 207.046 1.09304C207.413 1.06942 207.789 1.05841 208.152 1.02691C208.505 0.995415 208.689 1.08675 208.931 1.13714C209.593 1.10092 210.26 1.07101 210.918 1.02691C211.187 1.00801 211.33 1.05998 211.509 1.10093C211.572 1.1151 211.635 1.14503 211.693 1.14345C211.917 1.13715 212.136 1.11983 212.355 1.10723C212.575 1.09463 212.799 1.08204 213.018 1.06944C213.269 1.11511 213.434 1.2222 213.792 1.18597C214.007 1.16393 214.236 1.1592 214.455 1.1466C214.674 1.134 214.898 1.12141 215.118 1.10881C215.265 1.10093 215.418 1.0962 215.561 1.08203C215.825 1.05841 215.955 1.13558 216.143 1.17023C216.205 1.18125 216.277 1.20014 216.335 1.19699C216.778 1.17494 217.226 1.15605 217.66 1.11982C217.996 1.09148 218.224 1.13873 218.462 1.20487C218.511 1.21905 218.596 1.22692 218.659 1.22377C219.178 1.197 219.693 1.16392 220.208 1.13557C220.346 1.12769 220.481 1.15289 220.593 1.19384C220.709 1.23636 220.839 1.25685 220.982 1.24897C221.497 1.22063 222.016 1.18912 222.531 1.16077C222.594 1.15762 222.67 1.17022 222.728 1.18282C223.229 1.28046 223.23 1.28204 223.525 1.26314C223.597 1.25842 223.673 1.25525 223.744 1.25053C224.111 1.22848 224.492 1.22062 224.85 1.18282C225.262 1.1403 225.562 1.19385 225.853 1.28362C226.22 1.26472 226.596 1.25369 226.954 1.22219C227.223 1.19857 227.366 1.25841 227.545 1.29778C227.608 1.31196 227.675 1.3403 227.729 1.33715C228.248 1.31038 228.767 1.28677 229.278 1.2474C229.555 1.22535 229.676 1.2962 229.864 1.33243C229.927 1.34502 229.994 1.36708 230.052 1.36393C230.347 1.35134 230.643 1.33243 230.939 1.3151C231.283 1.29463 231.283 1.2962 231.74 1.39227C231.955 1.43794 232.17 1.40172 232.38 1.39069C232.604 1.3781 232.814 1.36865 232.993 1.43322C233.105 1.47417 233.24 1.49936 233.378 1.49306C233.674 1.47889 233.974 1.46472 234.265 1.4411C234.498 1.4222 234.699 1.43479 234.869 1.49306C234.99 1.53401 235.115 1.5545 235.263 1.54505C235.926 1.50725 236.593 1.46786 237.255 1.43164C237.313 1.42849 237.394 1.44267 237.448 1.45685C237.573 1.48519 237.694 1.51668 237.815 1.54818C238.106 1.53401 238.406 1.52772 238.692 1.50568C238.997 1.48363 239.274 1.47575 239.511 1.56237C239.561 1.58127 239.632 1.60802 239.691 1.60645C239.914 1.60015 240.134 1.58441 240.353 1.57181C240.572 1.55921 240.796 1.54661 241.016 1.53401C241.271 1.57338 241.432 1.68677 241.79 1.65055C242.005 1.6285 242.233 1.62378 242.453 1.61118C242.672 1.59858 242.896 1.58441 243.115 1.57338C243.187 1.57023 243.268 1.56236 243.33 1.56865C243.397 1.57495 243.456 1.59701 243.514 1.61276C243.693 1.65843 243.858 1.7041 244.114 1.67733C244.329 1.65528 244.557 1.65056 244.776 1.63638C245.076 1.61906 245.076 1.61906 245.573 1.71828C245.775 1.75922 246.003 1.70568 246.195 1.74033C246.325 1.76395 246.437 1.80331 246.562 1.83009C246.616 1.84111 246.701 1.84583 246.764 1.84268C247.059 1.8285 247.359 1.81434 247.65 1.79072C247.887 1.77182 248.085 1.79071 248.25 1.84741C248.371 1.88835 248.492 1.90569 248.644 1.89624C249.383 1.85214 250.121 1.81433 250.856 1.76551C251.106 1.74819 251.308 1.77497 251.447 1.83166C251.684 1.9293 252.02 1.81434 252.266 1.89308C252.418 1.94191 252.57 1.9986 252.848 1.97498C253.358 1.93403 253.877 1.91197 254.392 1.88363C254.576 1.92615 254.759 1.96868 254.947 2.0112C255.243 1.99388 255.538 1.97654 255.834 1.96079C256.053 1.94819 256.277 1.93402 256.496 1.923C256.568 1.91985 256.644 1.91355 256.711 1.92142C256.778 1.9293 256.832 1.94977 256.895 1.96552C257.204 2.04269 257.204 2.04427 257.714 2.01278C257.933 1.9986 258.144 1.98915 258.327 2.05215C258.497 2.11042 258.699 2.12143 258.932 2.10411C259.37 2.07261 259.814 2.04899 260.261 2.02694C260.4 2.01907 260.53 2.04584 260.646 2.08679C260.821 2.15136 261.036 2.14506 261.255 2.12774C261.546 2.10569 261.833 2.08365 262.079 2.17184C262.128 2.19074 262.204 2.21749 262.258 2.21592C262.625 2.20332 262.997 2.19388 263.355 2.16396C263.713 2.13403 263.887 2.23167 264.134 2.27892C264.501 2.25844 264.872 2.23797 265.239 2.2175C265.311 2.21277 265.396 2.19861 265.459 2.20648C265.723 2.23955 265.875 2.35766 266.238 2.32144C266.448 2.30097 266.676 2.29468 266.896 2.28995C266.954 2.28838 267.03 2.31514 267.07 2.33561C267.093 2.34663 267.07 2.37655 267.044 2.3923C266.963 2.4364 266.865 2.47736 266.793 2.52303C266.784 2.52933 266.869 2.55766 266.918 2.57026C267.039 2.59861 267.178 2.5939 267.339 2.5813C267.478 2.57027 267.621 2.59232 267.72 2.63957C267.76 2.65846 267.746 2.68996 267.661 2.7939C267.661 2.87107 267.755 2.83641 267.787 2.78602C267.836 2.71357 267.742 2.68995 267.563 2.72932C267.438 2.75767 267.375 2.79862 267.406 2.83169C267.424 2.84902 267.509 2.87107 267.661 2.7939C268.055 2.69941 268.351 2.68209 268.646 2.66477C268.722 2.66004 268.812 2.64429 268.866 2.65373C269.058 2.69153 269.237 2.73721 269.425 2.77973C269.64 2.77028 269.842 2.74665 270.052 2.80807C270.347 2.89469 270.361 2.88681 270.647 2.86949C270.795 2.86004 270.943 2.85218 271.091 2.84431C271.238 2.83643 271.355 2.86005 271.485 2.89627C271.749 2.97029 271.771 2.97028 271.946 2.86949C272.049 2.80807 272.12 2.7876 272.25 2.81595C272.68 2.91202 272.684 2.91831 273.051 2.88996C273.356 2.86634 273.642 2.86004 273.866 2.94981C274.018 3.0128 274.068 2.99863 274.189 2.93249C274.511 2.75768 274.659 2.76082 275.263 2.88681C275.545 2.94666 275.836 2.88209 276.122 2.87422C276.364 2.86792 276.534 2.90571 276.552 3.00493C276.566 3.06634 276.606 3.11045 276.767 3.13092C276.83 3.1388 276.906 3.14982 276.969 3.14667C277.34 3.12777 277.707 3.10572 278.079 3.08367C278.267 3.07264 278.37 2.99864 278.334 2.901C278.294 2.79706 278.365 2.75925 278.634 2.72932C278.795 2.712 278.925 2.71516 279.055 2.74351C279.198 2.77501 279.158 2.80336 279.032 2.86005C278.732 2.99864 278.768 3.08367 279.153 3.17973C279.288 3.2128 279.395 3.24274 279.426 3.29156C279.444 3.31676 279.426 3.34983 279.467 3.36873C279.686 3.47424 279.99 3.54197 280.331 3.59236C280.657 3.54984 280.881 3.6207 281.132 3.67739C281.329 3.72149 281.562 3.6837 281.772 3.66795C282.009 3.65063 282.206 3.66322 282.377 3.72149C282.497 3.76244 282.623 3.78133 282.77 3.77346C283.066 3.75613 283.366 3.74512 283.657 3.71992C283.908 3.69787 284.096 3.72937 284.252 3.78292C284.449 3.85063 284.669 3.80496 284.875 3.8144C285.152 3.82543 285.291 3.96559 285.654 3.92779C285.868 3.90574 286.092 3.89787 286.316 3.89157C286.374 3.89 286.446 3.91677 286.495 3.93567C286.732 4.02229 287.01 4.01756 287.314 3.99236C287.525 3.97504 287.731 3.9593 287.937 4.01914C288.277 4.11994 288.653 4.20813 289.011 4.30105C289.06 4.37349 289.025 4.45852 289.28 4.50104C289.414 4.52309 289.539 4.55617 289.642 4.5924C289.768 4.63492 289.884 4.64594 290.045 4.63492C290.336 4.61287 290.641 4.60813 290.927 4.57978C291.191 4.55459 291.357 4.60657 291.518 4.65539C291.648 4.69476 291.769 4.71365 291.926 4.68531C292.087 4.65853 292.203 4.67585 292.333 4.71837C292.516 4.77664 292.53 4.77035 293.139 4.78768C293.201 4.78925 293.277 4.81286 293.313 4.83333C293.331 4.84436 293.291 4.87587 293.26 4.89162C293.219 4.91052 293.157 4.93256 293.098 4.93728C292.436 4.97823 291.769 5.01445 291.106 5.05539C291.039 5.06012 290.967 5.07115 290.918 5.0869C290.865 5.10423 290.797 5.12783 290.797 5.14988C290.797 5.16563 290.887 5.18454 290.949 5.19556C291.146 5.23178 291.379 5.17666 291.572 5.21761C291.702 5.24438 291.809 5.28217 291.939 5.30737C291.993 5.31839 292.078 5.31682 292.145 5.31367C292.369 5.30265 292.588 5.2869 292.812 5.27745C292.875 5.27588 292.946 5.29164 293.004 5.30423C293.434 5.39873 293.434 5.39872 293.806 5.37825C293.953 5.37037 294.11 5.34675 294.249 5.3562C294.383 5.36565 294.5 5.40817 294.621 5.43494C294.871 5.49164 295.108 5.54675 295.126 5.66959C295.135 5.71684 295.283 5.75778 295.431 5.76093C295.574 5.76408 295.726 5.74677 295.874 5.73732C296.223 5.71842 296.223 5.71842 296.675 5.81449C296.801 5.84126 296.935 5.8444 297.096 5.82866C297.159 5.82236 297.235 5.82866 297.302 5.83654C297.521 5.86016 297.521 5.89008 297.378 5.94677C297.177 6.03024 297.195 6.03812 297.759 6.10898C297.974 6.13576 298.139 6.18616 298.318 6.23025C298.609 6.30112 298.605 6.30111 298.412 6.39402C298.368 6.4145 298.327 6.43655 298.283 6.4586C298.153 6.52002 298.05 6.58616 297.781 6.59246C297.486 6.59876 297.19 6.62396 296.895 6.64129C296.608 6.65861 296.532 6.69639 296.559 6.80348C296.59 6.93262 296.648 6.9468 297.163 6.94523C297.311 6.94523 297.441 6.95782 297.553 7.00034C297.499 7.05074 297.401 7.09011 297.257 7.09956C296.89 7.12318 296.519 7.14366 296.152 7.16413C295.856 7.18146 295.561 7.19877 295.265 7.2161C295.082 7.22712 294.965 7.30902 295.014 7.40036C295.041 7.45233 295.064 7.5043 295.086 7.55627C295.135 7.66021 295.229 7.68699 295.529 7.68227C295.605 7.68069 295.677 7.66808 295.749 7.67123C296.04 7.68226 296.178 7.81297 296.528 7.78619C296.819 7.76415 297.123 7.75943 297.41 7.73108C297.674 7.70588 297.821 7.76259 298.005 7.80511C298.068 7.81928 298.135 7.84919 298.189 7.84762C298.56 7.83029 298.932 7.81298 299.294 7.78306C299.464 7.77046 299.567 7.77991 299.702 7.8177C300.024 7.90904 300.033 7.90432 300.512 7.87597C300.861 7.85392 300.866 7.85707 301.313 7.95314C301.439 7.97991 301.573 7.97991 301.734 7.96731C301.944 7.95156 302.164 7.92636 302.383 7.94999C302.45 7.95629 302.535 7.97519 302.558 7.99566C302.571 8.00984 302.509 8.04448 302.455 8.05551C302.061 8.1374 301.6 8.12323 301.17 8.1563C301.036 8.16575 300.901 8.13582 300.789 8.0933C300.673 8.05078 300.548 8.03347 300.396 8.04134C300.1 8.05866 299.8 8.06968 299.509 8.09488C299.258 8.11693 299.084 8.0807 298.909 8.03188C298.851 8.01613 298.784 7.98621 298.726 7.98778C298.063 8.01928 297.396 8.05078 296.738 8.09488C296.474 8.11378 296.322 8.06339 296.143 8.02087C296.08 8.00669 296.017 7.97677 295.959 7.97834C295.735 7.98464 295.516 8.00196 295.292 8.01456C294.477 8.06181 293.667 8.10905 292.852 8.15315C292.798 8.1563 292.731 8.12322 292.669 8.10905C292.548 8.0807 292.422 8.05393 292.297 8.02715C292.073 8.03975 291.854 8.0555 291.63 8.06495C291.469 8.07125 291.326 8.0933 291.303 8.15315C291.29 8.19252 291.438 8.22874 291.594 8.22559C291.746 8.22244 291.899 8.20354 292.024 8.22401C292.646 8.3248 292.646 8.32638 293.036 8.30591C293.376 8.28701 293.34 8.27125 293.64 8.35787C293.77 8.39567 293.886 8.41772 294.034 8.40828C294.401 8.38623 294.773 8.36418 295.144 8.34528C295.202 8.34213 295.279 8.35788 295.337 8.37048C295.775 8.46497 295.775 8.46812 296.138 8.44449C296.613 8.41615 296.631 8.40827 296.948 8.50434C297.168 8.57048 297.369 8.52481 297.58 8.52166C297.821 8.58308 298.086 8.63821 298.305 8.7075C298.565 8.78939 298.838 8.77521 299.133 8.75158C299.352 8.73426 299.567 8.72796 299.746 8.79253C299.917 8.85238 300.122 8.85869 300.355 8.84294C300.566 8.82876 300.781 8.79883 301 8.83348C301.058 8.84293 301.148 8.86656 301.143 8.88073C301.139 8.90278 301.08 8.93428 301.022 8.94373C300.61 9.0083 300.158 9.00672 299.724 9.03664C299.666 9.04137 299.59 9.02404 299.532 9.01144C299.406 8.98309 299.285 8.95003 299.164 8.9201C298.945 8.92955 298.721 8.9327 298.506 8.95159C298.341 8.96577 298.215 8.96421 298.094 8.92641C297.982 8.89176 297.862 8.84923 297.727 8.83821C297.593 8.82718 297.436 8.85081 297.289 8.86026C297.141 8.86971 296.971 8.86497 296.854 8.89017C296.738 8.91537 296.666 8.9705 296.59 9.01459C296.505 9.06341 296.389 9.07917 296.219 9.0839C296.062 9.08862 295.937 9.08231 295.82 9.03822C295.771 9.01932 295.704 9.00514 295.637 8.99254C295.574 8.98152 295.502 8.96419 295.444 8.96734C294.777 9.00356 294.115 9.04295 293.448 9.08074C293.116 9.09964 293.121 9.09963 292.431 9.00671C292.369 8.99884 292.293 8.98782 292.23 8.99096C291.858 9.00986 291.491 9.03192 291.12 9.05396C290.744 9.07601 290.748 9.07286 290.108 8.97364C289.992 8.95475 289.821 8.97995 289.683 8.9768C289.392 8.96892 289.248 8.83664 288.908 8.86184C288.617 8.88388 288.313 8.8886 288.022 8.91695C287.758 8.94215 287.605 8.88704 287.426 8.84451C287.364 8.83034 287.296 8.79884 287.243 8.80199C286.576 8.83664 285.913 8.87601 285.027 8.88073C284.807 8.88073 284.906 8.91381 285.049 8.92483C285.255 8.94216 285.322 8.90908 285.21 8.84609C285.13 8.80199 285.013 8.77993 284.919 8.79096C284.87 8.79725 284.807 8.82719 285.027 8.88073C285.26 8.94058 285.246 8.97364 285.286 8.99254C285.385 9.03821 285.524 9.05711 285.667 9.05081C285.891 9.03979 286.11 9.02404 286.334 9.01459C286.397 9.01144 286.473 9.02247 286.531 9.03507C287.023 9.13271 287.028 9.13901 287.552 9.10122C287.717 9.09019 287.838 9.09019 287.968 9.12011C288.147 9.16106 288.277 9.23034 288.55 9.2083C288.913 9.17837 289.284 9.16107 289.656 9.14374C289.714 9.14059 289.777 9.16894 289.844 9.18154C290.027 9.21933 290.162 9.2902 290.435 9.26028C290.645 9.23666 290.873 9.23034 291.097 9.22562C291.155 9.22404 291.245 9.24925 291.272 9.26972C291.326 9.30594 291.258 9.34847 291.106 9.37839C291.044 9.39099 290.958 9.38784 290.887 9.39256C290.591 9.40989 290.296 9.42877 290 9.44295C289.844 9.45082 289.696 9.47446 289.678 9.53273C289.665 9.5721 289.826 9.60674 289.978 9.60359C290.202 9.59886 290.426 9.58627 290.641 9.56579C291.021 9.53115 291.352 9.54059 291.661 9.63981C291.881 9.7091 291.867 9.68392 292.1 9.88865C292.158 9.94062 292.333 9.94534 292.485 9.94219C292.852 9.93431 293.022 9.95794 292.991 10.0068C292.951 10.0666 292.821 10.0855 292.655 10.0934C292.36 10.106 292.064 10.1264 291.769 10.1438C291.697 10.1485 291.617 10.1579 291.549 10.1548C291.482 10.1516 291.42 10.1327 291.361 10.1186C291.236 10.0886 291.129 10.043 290.994 10.0319C290.86 10.0209 290.703 10.0445 290.556 10.054C290.408 10.0619 290.251 10.0855 290.117 10.0745C289.983 10.0634 289.871 10.0162 289.75 9.98786C289.692 9.97369 289.62 9.95163 289.562 9.9532C289.266 9.9658 288.971 9.98628 288.675 10.002C288.313 10.0225 288.313 10.0225 287.874 9.92486C287.749 9.89652 287.619 9.8981 287.453 9.9107C287.095 9.93589 287.091 9.93116 286.437 9.83982C286.374 9.83037 286.298 9.81935 286.235 9.82407C285.568 9.86029 284.906 9.89966 284.243 9.93746C283.675 9.97053 283.675 9.97054 283.361 10.128C283.129 10.2446 283.124 10.2446 283.352 10.2981C283.536 10.3422 283.702 10.4068 283.903 10.4304C284.091 10.4524 284.324 10.3816 284.53 10.454C284.633 10.4902 284.767 10.5296 284.897 10.5359C285.103 10.5438 285.322 10.4981 285.519 10.5674C285.618 10.602 285.766 10.6383 285.891 10.6399C286.11 10.643 286.334 10.6178 286.553 10.6068C286.621 10.6036 286.697 10.6036 286.759 10.6115C286.826 10.621 286.885 10.6399 286.943 10.6556C287.122 10.7091 287.314 10.7343 287.547 10.7076C287.928 10.6635 288.268 10.6855 288.563 10.7863C288.604 10.8005 288.702 10.8021 288.765 10.7958C288.926 10.78 289.065 10.7784 289.186 10.8084C289.235 10.821 289.307 10.843 289.298 10.8572C289.284 10.8808 289.23 10.9123 289.172 10.9202C288.751 10.9737 288.299 10.98 287.865 11.0084C287.807 11.0115 287.735 10.991 287.677 10.9769C287.552 10.9485 287.444 10.9013 287.31 10.8903C287.176 10.8792 287.019 10.8997 286.871 10.9076C286.723 10.9155 286.567 10.9391 286.432 10.9296C286.298 10.9186 286.173 10.8792 286.065 10.8446C285.94 10.8052 285.819 10.8005 285.654 10.8162C285.439 10.8367 285.215 10.8399 284.995 10.8509C284.875 10.821 284.754 10.7879 284.628 10.7595C284.57 10.7454 284.499 10.728 284.436 10.7296C284.14 10.7422 283.845 10.7611 283.549 10.7784C283.254 10.7957 283.254 10.7958 282.753 10.6981C282.694 10.6871 282.618 10.6745 282.556 10.6777C282.184 10.6966 281.817 10.7202 281.445 10.7391C281.302 10.7469 281.172 10.7249 281.056 10.6824C280.944 10.6398 280.81 10.6162 280.671 10.6241C280.08 10.6572 279.489 10.6887 278.898 10.728C278.661 10.7438 278.459 10.7296 278.298 10.6729C278.11 10.6084 277.9 10.6241 277.68 10.6367C277.184 10.6682 277.179 10.6666 276.861 10.5863C276.798 10.5705 276.736 10.5406 276.678 10.5422C276.163 10.5658 275.643 10.5879 275.133 10.6257C274.865 10.6461 274.721 10.591 274.542 10.5501C274.48 10.5359 274.412 10.506 274.359 10.5091C273.987 10.5265 273.615 10.5422 273.253 10.5737C272.89 10.6052 272.751 10.4587 272.478 10.4603C272.107 10.4619 271.74 10.4981 271.373 10.5202C271.077 10.5375 270.782 10.5548 270.486 10.5721C270.191 10.5895 269.895 10.6036 269.6 10.6241C269.443 10.6351 269.327 10.6209 269.197 10.5816C269.031 10.5296 268.834 10.4887 268.655 10.4414C268.382 10.3737 268.382 10.3737 268.051 10.3926C267.979 10.3973 267.903 10.4005 267.832 10.4052C267.29 10.4398 267.29 10.4367 266.6 10.3375C266.569 10.3328 266.488 10.3501 266.457 10.3627C266.363 10.4036 266.278 10.4477 266.193 10.4902C266.072 10.465 265.924 10.4509 265.844 10.4146C265.616 10.3123 265.257 10.4524 265.025 10.3516C264.94 10.3138 264.792 10.2808 264.657 10.2713C264.519 10.2619 264.362 10.2839 264.219 10.2934C263.847 10.317 263.847 10.3154 263.529 10.4556C263.368 10.5249 263.135 10.5123 262.925 10.528C262.706 10.5454 262.495 10.5548 262.312 10.4902C262.146 10.432 261.945 10.4178 261.707 10.4367C261.416 10.4603 261.116 10.4745 260.821 10.4887C260.758 10.4918 260.682 10.4839 260.619 10.4745C259.934 10.3816 259.934 10.38 259.603 10.4005C259.455 10.4099 259.303 10.4131 259.16 10.4272C258.918 10.4524 258.735 10.4194 258.56 10.369C258.502 10.3532 258.435 10.3233 258.377 10.3249C258.081 10.3328 257.79 10.3469 257.499 10.3611C257.275 10.3721 257.051 10.3784 256.837 10.4005C256.478 10.4367 256.304 10.3343 256.058 10.2871C255.691 10.3075 255.319 10.3217 254.952 10.3501C254.782 10.3627 254.67 10.358 254.54 10.3202C254.374 10.2729 254.222 10.2194 253.954 10.243C253.595 10.2745 253.219 10.2855 252.852 10.3044C252.606 10.2556 252.427 10.1564 252.073 10.1926C251.858 10.2146 251.63 10.2194 251.411 10.232C251.115 10.2493 250.82 10.265 250.524 10.2839C250.207 10.3028 250.211 10.2981 249.723 10.2052C249.441 10.1501 249.15 10.2115 248.863 10.2209C248.64 10.2288 248.528 10.3013 248.581 10.3942C248.635 10.4871 248.514 10.5595 248.308 10.5721C247.793 10.6021 247.274 10.6335 246.759 10.6603C246.697 10.6635 246.621 10.6524 246.562 10.6414C246.012 10.5422 246.012 10.5438 245.766 10.558C245.398 10.5816 245.022 10.5942 244.66 10.6241C244.409 10.6446 244.225 10.6115 244.064 10.558C243.939 10.517 243.823 10.5076 243.661 10.517C241.889 10.6225 240.116 10.7202 238.347 10.8288C238.083 10.8446 237.931 10.7989 237.752 10.7564C237.689 10.7422 237.631 10.7123 237.569 10.7123C237.421 10.7123 237.273 10.7265 237.125 10.7359C236.463 10.7737 235.8 10.8194 235.133 10.8477C234.851 10.8603 234.775 10.9328 234.654 10.9926C234.56 11.0383 234.453 11.0572 234.287 11.0635C234.126 11.0698 234.01 11.0619 233.884 11.021C233.723 10.9674 233.54 10.9343 233.289 10.9564C232.998 10.9816 232.702 10.9926 232.402 11.0099C232.25 11.0178 232.134 11.0462 232.085 11.1029C232.076 11.1123 232.17 11.1359 232.223 11.1501C232.402 11.1974 232.572 11.2525 232.774 11.2855C232.98 11.3186 233.204 11.2808 233.419 11.2714C233.495 11.2682 233.566 11.2588 233.638 11.2603C233.705 11.2619 233.786 11.2698 233.835 11.284C234.068 11.3548 234.314 11.4037 234.636 11.3611C234.914 11.3816 235.057 11.5123 235.411 11.4777C235.626 11.4572 235.85 11.4478 236.073 11.4399C236.132 11.4383 236.194 11.4667 236.257 11.4808C236.436 11.5202 236.579 11.5832 236.848 11.5564C237.134 11.5281 237.439 11.5233 237.73 11.5013C237.891 11.4887 238.007 11.4997 238.133 11.5407C238.294 11.5926 238.477 11.632 238.728 11.6068C238.943 11.5848 239.171 11.58 239.391 11.5659C239.677 11.5485 239.677 11.5501 240.187 11.6478C240.246 11.6588 240.322 11.6714 240.384 11.6682C240.756 11.6493 241.123 11.6257 241.495 11.6068C241.638 11.5989 241.777 11.6194 241.875 11.6651C241.916 11.684 241.902 11.7155 241.915 11.7423C241.177 11.7848 240.438 11.821 239.704 11.873C239.426 11.8934 239.301 11.8289 239.117 11.7926C239.055 11.78 238.988 11.7533 238.929 11.7564C238.41 11.7832 237.895 11.8115 237.381 11.8462C237.219 11.8572 237.099 11.8509 236.978 11.8052C236.669 11.684 236.293 11.7501 235.944 11.7674C235.675 11.78 235.59 11.8289 235.621 11.9328C235.661 12.0556 235.823 12.0934 236.234 12.0714C236.382 12.0635 236.53 12.0525 236.678 12.0462C236.821 12.0399 236.951 12.0604 237.067 12.1029C237.179 12.1454 237.313 12.1675 237.452 12.1612C237.748 12.147 238.048 12.1328 238.334 12.1092C238.571 12.0903 238.768 12.106 238.934 12.1643C239.118 12.2289 239.332 12.2147 239.547 12.2005C240.049 12.169 240.053 12.1706 240.367 12.2494C240.429 12.2651 240.492 12.295 240.55 12.2935C241.065 12.2698 241.584 12.2494 242.09 12.2116C242.354 12.1927 242.506 12.2431 242.681 12.284C242.744 12.2982 242.806 12.3297 242.865 12.3265C243.236 12.3092 243.608 12.2919 243.97 12.2619C244.14 12.2478 244.243 12.2572 244.382 12.295C244.713 12.3879 244.722 12.3848 245.192 12.3549C245.336 12.3454 245.492 12.3281 245.627 12.3407C245.761 12.3533 245.868 12.399 245.994 12.4273C246.052 12.4399 246.124 12.4572 246.186 12.4541C246.482 12.4415 246.777 12.4226 247.073 12.4053C247.35 12.3879 247.35 12.3895 247.87 12.4872C248.08 12.5281 248.299 12.4935 248.51 12.4809C248.738 12.4667 248.944 12.4667 249.119 12.5281C249.293 12.5895 249.504 12.5864 249.728 12.5738C249.938 12.5612 250.153 12.5265 250.368 12.5691C250.86 12.6667 250.86 12.6683 251.165 12.6494C251.608 12.6226 252.046 12.5974 252.494 12.5738C252.552 12.5706 252.628 12.5895 252.687 12.6021C252.812 12.6305 252.919 12.6777 253.054 12.6887C253.188 12.7013 253.345 12.6824 253.488 12.673C253.949 12.6431 253.98 12.632 254.289 12.736C254.549 12.821 254.871 12.6982 255.113 12.7958C255.252 12.8509 255.44 12.895 255.699 12.8683C255.914 12.8462 256.138 12.8399 256.362 12.8273C256.716 12.8068 256.716 12.8084 257.163 12.9029C257.222 12.9155 257.298 12.9313 257.356 12.9281C257.651 12.9155 257.951 12.9045 258.238 12.8761C258.574 12.8431 258.788 12.9029 259.039 12.9612C259.236 13.0069 259.469 12.9691 259.679 12.9533C259.908 12.9376 260.114 12.9423 260.284 13.0037C260.463 13.0667 260.673 13.0588 260.897 13.0462C261.107 13.0352 261.322 12.999 261.537 13.0431C261.998 13.1407 261.998 13.1407 262.334 13.1218C262.63 13.1045 262.925 13.0856 263.22 13.073C263.279 13.0699 263.35 13.0903 263.408 13.1045C263.534 13.1328 263.641 13.1801 263.776 13.1911C263.91 13.2021 264.067 13.1817 264.214 13.1738C264.362 13.1659 264.519 13.1423 264.653 13.1517C264.787 13.1612 264.913 13.2006 265.02 13.2352C265.145 13.2762 265.262 13.2809 265.432 13.2651C265.647 13.2447 265.871 13.2399 266.09 13.2289C266.211 13.2588 266.336 13.2888 266.453 13.3218C266.574 13.3565 266.703 13.3533 266.869 13.3423C267.42 13.3045 267.424 13.3092 267.885 13.4069C268.096 13.451 268.315 13.4147 268.525 13.4037C268.749 13.3911 268.96 13.3848 269.134 13.4478C269.304 13.5077 269.515 13.5155 269.739 13.4966C269.882 13.484 270.034 13.4762 270.182 13.4714C270.249 13.4699 270.33 13.4762 270.379 13.4888C270.616 13.5549 270.849 13.6148 271.176 13.5722C271.462 13.5848 271.605 13.714 271.95 13.6888C272.241 13.6667 272.546 13.662 272.832 13.6336C273.096 13.6084 273.284 13.6526 273.419 13.7077C273.66 13.8053 274.001 13.673 274.242 13.7691C274.381 13.8242 274.56 13.8683 274.829 13.8447C275.124 13.8195 275.218 13.8526 275.303 13.9518C275.352 14.0085 275.344 14.0541 275.254 14.0982C275.164 14.1439 275.066 14.136 274.923 14.0841C274.757 14.0258 274.56 14.0148 274.323 14.0274C274.09 14.04 273.947 13.9581 273.754 13.9266C273.562 13.8935 273.333 13.9486 273.132 13.9061C272.658 13.8069 272.658 13.8069 272.335 13.8258C272.116 13.8384 271.888 13.8447 271.673 13.8667C271.417 13.8935 271.252 13.8447 271.077 13.8006C271.014 13.7848 270.952 13.7549 270.898 13.7565C270.383 13.7801 269.864 13.8022 269.354 13.8415C269.085 13.862 268.942 13.8053 268.763 13.7659C268.7 13.7518 268.633 13.7234 268.579 13.7266C268.136 13.7486 267.697 13.777 267.254 13.8037C267.169 13.8463 267.075 13.8872 266.994 13.9329C266.909 13.9801 266.793 14.0006 266.623 13.999C266.341 13.999 266.063 14.0652 265.781 13.9817C265.49 13.8967 265.468 13.9014 265.186 13.9219C264.828 13.9486 264.447 13.9423 264.111 14.0038C264.053 14.0148 263.99 14.0447 263.99 14.0667C263.986 14.0809 264.08 14.1014 264.138 14.114C264.335 14.1518 264.563 14.0967 264.76 14.136C264.89 14.1612 264.998 14.199 265.128 14.2258C265.181 14.2368 265.262 14.2353 265.333 14.2337C265.41 14.2321 265.481 14.2211 265.553 14.2227C265.62 14.2242 265.692 14.2337 265.745 14.2478C265.992 14.3077 266.251 14.3628 266.471 14.4337C266.685 14.503 266.887 14.4557 267.102 14.4526C267.961 14.5628 267.961 14.5644 268.539 14.5297C268.682 14.5219 268.83 14.5124 268.978 14.514C269.04 14.514 269.098 14.5423 269.161 14.5581C269.34 14.6053 269.51 14.6479 269.761 14.6227C269.976 14.6006 270.204 14.5959 270.424 14.5817C270.719 14.5644 270.719 14.5644 271.22 14.6636C271.346 14.6888 271.48 14.6857 271.641 14.6731C271.78 14.662 271.923 14.6857 272.022 14.7313C272.062 14.7502 272.049 14.7817 272.062 14.8085C271.619 14.8337 271.171 14.851 270.741 14.8888C270.464 14.9124 270.339 14.8447 270.155 14.8085C270.092 14.7959 270.025 14.7691 269.967 14.7723C269.528 14.7959 269.09 14.8227 268.651 14.8542C268.597 14.8573 268.53 14.8935 268.525 14.9156C268.516 14.9565 268.628 14.9959 268.789 14.9943C269.004 14.9928 269.215 14.966 269.407 15.0305C269.569 15.0872 269.77 15.1125 270.007 15.0873C270.15 15.0731 270.303 15.0731 270.446 15.0605C270.827 15.0227 271.171 15.0306 271.458 15.1376C271.677 15.166 271.892 15.1392 272.102 15.1251C272.259 15.114 272.411 15.103 272.523 15.1329C272.76 15.1959 272.993 15.2589 273.32 15.2164C273.674 15.2605 273.942 15.3534 274.238 15.429C274.377 15.4652 274.484 15.4857 274.645 15.4621C274.712 15.4526 274.793 15.4526 274.865 15.4479C275.012 15.44 275.169 15.4164 275.303 15.4258C275.438 15.4369 275.549 15.4825 275.67 15.5109C275.729 15.5251 275.796 15.5487 275.854 15.5471C276.078 15.5392 276.297 15.5235 276.516 15.5109C276.736 15.4999 276.955 15.4888 277.174 15.4778C277.358 15.5188 277.546 15.5597 277.73 15.6007C278.025 15.5833 278.321 15.566 278.612 15.5503C278.938 15.5314 278.938 15.5329 279.408 15.6306C279.619 15.6747 279.843 15.6463 280.044 15.6258C280.38 15.5928 280.604 15.6526 280.841 15.7156C280.89 15.7282 280.98 15.7361 281.038 15.7298C281.271 15.7077 281.472 15.7251 281.642 15.7833C281.763 15.8243 281.884 15.8432 282.032 15.8353C282.547 15.8054 283.061 15.7739 283.576 15.7471C283.639 15.744 283.711 15.7581 283.769 15.7707C284.225 15.8668 284.23 15.8715 284.566 15.8463C284.866 15.8243 285.143 15.8148 285.38 15.9014C285.43 15.9203 285.506 15.9471 285.559 15.9455C285.927 15.9298 286.298 15.9125 286.661 15.8857C286.826 15.8731 286.943 15.8778 287.073 15.9141C287.238 15.9597 287.386 16.0148 287.659 15.9944C288.416 15.9361 288.42 15.9455 289.316 16.0542C289.378 16.0621 289.463 16.0495 289.535 16.0432C289.687 16.0274 289.799 16.0495 289.933 16.0857C290.233 16.1676 290.242 16.1629 290.529 16.1456C290.748 16.1314 290.976 16.1282 291.191 16.1046C291.523 16.07 291.742 16.1314 291.988 16.1897C292.185 16.2353 292.413 16.1975 292.624 16.1834C292.852 16.1676 293.058 16.1723 293.228 16.2322C293.345 16.2731 293.47 16.2952 293.618 16.2873C294.132 16.259 294.647 16.2274 295.162 16.1991C295.225 16.1959 295.301 16.2085 295.359 16.2196C295.87 16.3172 295.87 16.3219 296.375 16.2857C296.537 16.2747 296.671 16.2715 296.792 16.3046C296.908 16.3361 297.033 16.366 297.154 16.396C297.374 16.3849 297.598 16.3818 297.812 16.3629C297.978 16.3487 298.094 16.355 298.224 16.3881C298.394 16.4306 298.538 16.5046 298.806 16.4684C298.945 16.4511 299.106 16.4558 299.245 16.4401C299.411 16.4196 299.523 16.4322 299.652 16.4731C299.814 16.5219 299.979 16.5723 300.239 16.5471C300.525 16.5188 300.83 16.5141 301.121 16.492C301.282 16.4794 301.394 16.492 301.524 16.533C301.685 16.5849 301.868 16.618 302.119 16.5975C302.629 16.5582 302.634 16.566 303.131 16.6652C303.256 16.6904 303.391 16.6873 303.552 16.6747C303.69 16.6637 303.834 16.6873 303.932 16.733C304.026 16.7834 304.017 16.8149 304.026 16.8416ZM264.134 2.63799C263.986 2.64586 263.838 2.65531 263.623 2.5183C263.61 2.49468 263.619 2.46633 263.588 2.44586C263.516 2.40334 263.404 2.37342 263.27 2.3687C263.028 2.3624 262.737 2.41593 262.741 2.45688C262.746 2.49152 262.822 2.52144 262.97 2.54979C263.032 2.56081 263.082 2.57971 263.14 2.59231C263.31 2.62853 263.444 2.69941 263.691 2.66319C263.646 2.56555 263.668 2.61437 263.691 2.66319C263.668 2.72304 263.735 2.76556 263.896 2.78288C263.941 2.78761 264.008 2.78445 264.044 2.775C264.183 2.74036 264.205 2.69312 264.102 2.56871C264.084 2.58918 264.098 2.62539 264.138 2.63484C264.178 2.64429 264.277 2.63642 264.326 2.6254C264.452 2.59548 264.514 2.5561 264.483 2.52303C264.465 2.5057 264.38 2.48366 264.326 2.48366C264.232 2.48366 264.147 2.5183 264.134 2.63799ZM300.333 20.9016C300.006 20.9315 299.63 20.9205 299.303 20.9819C299.245 20.993 299.187 21.0213 299.182 21.0434C299.178 21.0575 299.267 21.078 299.321 21.089C299.442 21.1142 299.576 21.1064 299.733 21.0985C299.97 21.0875 300.109 21.1599 300.293 21.1961C300.351 21.2071 300.427 21.215 300.49 21.2119C300.852 21.193 301.21 21.1725 301.573 21.1505C301.636 21.1457 301.703 21.1347 301.756 21.1205C301.936 21.0749 301.918 21.0449 301.743 21.0103C301.551 20.9725 301.398 20.9095 301.201 20.8796C300.919 20.8371 300.633 20.8937 300.333 20.9016ZM274.909 22.0513C274.69 22.0639 274.475 22.0765 274.256 22.0891C274.184 22.0938 274.108 22.0954 274.041 22.1017C273.902 22.1127 273.799 22.1458 273.732 22.1977C273.835 22.2387 273.96 22.2623 274.099 22.2576C274.318 22.2481 274.533 22.2277 274.753 22.2229C274.99 22.2166 275.129 22.2875 275.312 22.3237C275.37 22.3347 275.442 22.3363 275.509 22.3379C275.84 22.3442 276.042 22.2623 275.979 22.1473C275.934 22.0576 275.764 22.004 275.558 22.0151C275.344 22.0261 275.124 22.0387 274.909 22.0513ZM301.864 18.574C301.918 18.5472 301.976 18.5283 302.003 18.5047C302.083 18.4244 302.052 18.3645 301.904 18.3015C301.725 18.2244 301.506 18.2763 301.304 18.2842C301.255 18.2858 301.201 18.3189 301.174 18.3393C301.157 18.3535 301.157 18.3834 301.183 18.3913C301.403 18.4543 301.636 18.5126 301.864 18.574ZM263.028 13.9219C262.813 13.9345 262.594 13.9439 262.379 13.9612C262.325 13.966 262.276 13.9959 262.245 14.0163C262.186 14.0541 262.249 14.1061 262.433 14.1108C262.643 14.1171 262.862 14.0904 263.082 14.0778C263.359 14.062 263.525 14.0037 263.422 13.9533C263.323 13.9045 263.189 13.8951 263.028 13.9219ZM27.3754 10.5564C27.5186 10.5485 27.6664 10.5422 27.8096 10.5312C27.9439 10.5202 28.047 10.4855 28.1141 10.4335C28.0022 10.3926 27.8768 10.3705 27.738 10.3753C27.5187 10.3847 27.3038 10.3973 27.0889 10.4131C26.9546 10.4225 26.8248 10.4572 26.7935 10.5107C26.7622 10.5517 27.062 10.5753 27.3754 10.5564ZM244.096 10.3139C244.154 10.328 244.212 10.3564 244.27 10.3564C244.413 10.3564 244.561 10.3469 244.696 10.3312C244.754 10.3249 244.798 10.2965 244.825 10.2745C244.843 10.2603 244.839 10.2351 244.812 10.2225C244.682 10.1469 244.163 10.1737 244.078 10.2603C244.069 10.2761 244.091 10.2965 244.096 10.3139ZM229.971 1.68992C229.985 1.71512 229.989 1.74031 230.007 1.76551C230.043 1.81276 230.142 1.84741 230.285 1.87103C230.397 1.83166 230.455 1.78757 230.451 1.74033C230.446 1.71513 230.433 1.68992 230.415 1.66472C230.379 1.61747 230.28 1.58284 230.137 1.55922C230.025 1.59701 229.971 1.6411 229.971 1.68992ZM312.21 22.3253C312.169 22.3458 312.129 22.3662 312.084 22.3851C312.205 22.4308 312.317 22.445 312.402 22.4198C312.456 22.404 312.487 22.3804 312.528 22.3599C312.407 22.3143 312.299 22.3017 312.21 22.3253ZM309.425 22.5395C309.483 22.5537 309.537 22.5726 309.6 22.582C309.703 22.5978 309.797 22.571 309.868 22.5143C309.81 22.5001 309.756 22.4812 309.694 22.4718C309.591 22.456 309.497 22.4828 309.425 22.5395ZM311.189 22.2513C311.158 22.2891 311.22 22.3206 311.386 22.3474C311.426 22.3269 311.48 22.308 311.507 22.2859C311.552 22.2497 311.475 22.2166 311.314 22.1914C311.27 22.2103 311.229 22.2308 311.189 22.2513ZM301.739 20.5536C301.707 20.5914 301.77 20.6229 301.935 20.6496C301.976 20.6292 302.03 20.6103 302.056 20.5882C302.101 20.552 302.025 20.5189 301.864 20.4937C301.819 20.5126 301.779 20.5331 301.739 20.5536ZM288.863 9.40988C288.823 9.43036 288.783 9.45083 288.738 9.46973C288.859 9.5154 288.971 9.52957 289.056 9.50437C289.11 9.48862 289.141 9.465 289.181 9.44453C289.06 9.39885 288.953 9.38626 288.863 9.40988ZM276.53 3.49786C276.637 3.50888 276.727 3.48684 276.803 3.42857C276.745 3.4144 276.691 3.3955 276.628 3.38605C276.525 3.3703 276.431 3.39708 276.36 3.45378C276.418 3.46952 276.476 3.48368 276.53 3.49786ZM269.98 3.12777C269.94 3.14824 269.9 3.16872 269.855 3.18761C269.976 3.23328 270.088 3.24745 270.173 3.22226C270.227 3.20651 270.258 3.18288 270.298 3.16241C270.177 3.11674 270.07 3.10572 269.98 3.12777ZM225.566 1.68835C225.526 1.70882 225.486 1.72929 225.441 1.74819C225.562 1.79386 225.674 1.80803 225.759 1.78283C225.813 1.76708 225.844 1.74346 225.884 1.72299C225.763 1.67732 225.656 1.6663 225.566 1.68835ZM4.41851 14.5014C4.36031 14.4872 4.30217 14.4731 4.24845 14.4573C4.11862 14.4998 4.07834 14.5392 4.14997 14.5691C4.19474 14.588 4.26184 14.599 4.32004 14.6132C4.45434 14.5707 4.48566 14.5329 4.41851 14.5014Z" fill="#FFE492"/>
<path d="M30.3828 8.94032C29.868 8.97024 29.3577 9.00802 28.8428 9.02692C28.5698 9.03637 28.4713 9.10409 28.3594 9.16709C28.2699 9.21748 28.1669 9.23323 28.0013 9.24268C26.6045 9.31985 25.2122 9.40174 23.8199 9.48206C23.6453 9.46159 23.5603 9.42852 23.6006 9.38915C23.6229 9.36553 23.6767 9.33245 23.7304 9.3293C24.684 9.27103 25.633 9.21118 26.591 9.16551C26.8641 9.15291 26.9402 9.08362 27.079 9.02692C27.1238 9.00802 27.1596 8.97968 27.2178 8.96865C27.276 8.95606 27.3611 8.95764 27.4372 8.95449C28.9772 8.86472 30.5172 8.77653 32.0572 8.68677C32.2318 8.70724 32.3169 8.74031 32.2766 8.77968C32.2542 8.8033 32.2005 8.83637 32.1468 8.83952C31.5558 8.8726 30.9693 8.90567 30.3828 8.94032Z" fill="#FFE492"/>
<path d="M312.268 17.3269C312.036 17.3458 311.74 17.3726 311.498 17.2812C311.382 17.2371 311.257 17.223 311.104 17.2324C310.885 17.2482 310.661 17.2608 310.437 17.2702C310.379 17.2718 310.303 17.2545 310.245 17.2403C310.119 17.2119 310.012 17.1647 309.878 17.1521C309.743 17.1395 309.582 17.1741 309.443 17.1663C309.26 17.1552 309.184 17.1127 309.233 17.0734C309.26 17.0513 309.314 17.0198 309.372 17.0151C310.2 16.9568 310.204 16.9568 310.437 17.0135C310.616 17.0576 310.782 17.1064 311.037 17.0796C311.252 17.0576 311.48 17.0529 311.7 17.0387C312.004 17.0198 312.004 17.0214 312.497 17.1206C312.622 17.1458 312.756 17.1442 312.917 17.1301C313.056 17.119 313.191 17.1442 313.302 17.1867C313.231 17.2403 313.128 17.2749 312.989 17.2844C312.765 17.3001 312.546 17.3112 312.268 17.3269Z" fill="#FFE492"/>
<path d="M304.027 16.8414C304.591 16.8083 305.159 16.78 305.723 16.7422C305.956 16.7264 306.14 16.7437 306.301 16.7973C306.475 16.8555 306.672 16.8508 306.887 16.8398C307.022 16.8335 307.151 16.8587 307.241 16.9028C307.277 16.9201 307.268 16.9516 307.281 16.9768C306.789 17.0052 306.292 17.0351 305.795 17.0603C305.737 17.0634 305.665 17.0477 305.611 17.0351C305.491 17.0083 305.388 16.9611 305.258 16.9516C304.98 16.9296 304.703 16.9721 304.421 16.9799C304.286 16.9831 304.156 16.9595 304.067 16.917C304.031 16.8965 304.04 16.8666 304.027 16.8414Z" fill="#FFE492"/>
<path d="M100.177 3.30108C100.764 3.26643 101.35 3.23338 101.936 3.19873C102.111 3.22078 102.192 3.25227 102.156 3.29164C102.133 3.31526 102.08 3.34834 102.026 3.35149C100.853 3.42236 99.6802 3.49006 98.5118 3.55778C98.3372 3.53574 98.2566 3.50424 98.2924 3.46487C98.3148 3.44125 98.3685 3.40818 98.4222 3.40503C99.0042 3.36881 99.5907 3.33573 100.177 3.30108Z" fill="#FFE492"/>
<path d="M9.80961 12.0527C9.54549 12.0558 9.26798 12.1141 8.97252 12.07C8.91432 12.0621 8.83371 12.0369 8.83819 12.0228C8.84714 11.9991 8.90087 11.9692 8.95907 11.9598C9.21425 11.9204 9.53213 11.9157 9.66196 11.8054C9.72463 11.7487 9.84103 11.7298 9.99771 11.7188C10.1634 11.7062 10.2797 11.7109 10.4095 11.744C10.5797 11.7865 10.7229 11.8653 10.9915 11.8243C11.005 11.8495 11.0362 11.8779 11.0228 11.9015C11.0094 11.9251 10.9513 11.9472 10.8975 11.9645C10.8483 11.9802 10.7811 11.9944 10.7184 11.9991C10.4229 12.018 10.1275 12.0338 9.80961 12.0527Z" fill="#FFE492"/>
<path d="M242.636 11.7362C242.856 11.7236 243.084 11.7173 243.299 11.6952C243.469 11.6779 243.577 11.6889 243.711 11.7267C243.939 11.7929 243.953 11.7866 244.512 11.796C244.575 11.7976 244.651 11.8212 244.687 11.8417C244.709 11.8527 244.678 11.8827 244.651 11.8984C244.611 11.9189 244.552 11.9456 244.499 11.9456C244.145 11.9504 243.787 12.0433 243.442 11.9362C243.268 11.8827 243.075 11.8574 242.838 11.8811C242.695 11.8952 242.542 11.9015 242.395 11.9078C242.251 11.9141 242.104 11.8968 242.014 11.8496C241.884 11.7803 241.96 11.7535 242.193 11.7582C242.341 11.7614 242.489 11.7441 242.636 11.7362Z" fill="#FFE492"/>
<path d="M323.773 22.5913C324.055 22.5756 324.337 22.5567 324.624 22.5441C324.682 22.5409 324.754 22.5583 324.807 22.5693C325.022 22.6165 324.991 22.6968 325 22.7677C325.004 22.8417 324.507 22.9016 324.297 22.8512C324.064 22.7945 323.854 22.7299 323.532 22.7646C323.406 22.7772 323.258 22.7488 323.178 22.7031C323.057 22.637 323.124 22.6102 323.352 22.6149C323.487 22.6181 323.63 22.6008 323.773 22.5913Z" fill="#FFE492"/>
<path d="M181.645 1.15629C181.936 1.13897 182.227 1.11221 182.518 1.11063C182.688 1.10906 182.773 1.16102 182.733 1.19881C182.71 1.22244 182.657 1.25551 182.603 1.25866C182.021 1.29645 181.439 1.32796 180.857 1.3626C180.687 1.34056 180.602 1.30749 180.642 1.26969C180.665 1.24607 180.718 1.21457 180.772 1.20985C181.063 1.1878 181.354 1.17361 181.645 1.15629Z" fill="#FFE492"/>
<path d="M318.19 17.4652C318.472 17.4494 318.759 17.4258 319.041 17.4179C319.188 17.4148 319.305 17.451 319.323 17.4919C319.332 17.5108 319.26 17.5439 319.202 17.5518C318.799 17.6053 318.365 17.6116 317.944 17.6384C317.81 17.6463 317.666 17.6211 317.586 17.577C317.465 17.5093 317.532 17.4841 317.76 17.4888C317.904 17.4904 318.047 17.473 318.19 17.4652Z" fill="#FFE492"/>
<path d="M250.031 11.9485C250.175 11.9407 250.322 11.9202 250.461 11.9265C250.609 11.9344 250.703 11.98 250.748 12.0257C250.797 12.0777 250.792 12.1265 250.748 12.1706C250.676 12.2462 250.604 12.243 250.439 12.1926C250.183 12.1139 250.166 12.1233 249.66 12.1265C249.601 12.1265 249.53 12.1029 249.485 12.0824C249.418 12.0509 249.454 12.0021 249.61 11.9737C249.727 11.9533 249.888 11.9564 250.031 11.9485Z" fill="#FFE492"/>
<path d="M307.702 16.9486C307.912 16.936 308.122 16.9156 308.333 16.9156C308.481 16.914 308.597 16.9502 308.61 16.9896C308.615 17.0085 308.548 17.04 308.494 17.0494C308.239 17.092 307.952 17.0951 307.675 17.1093C307.545 17.1156 307.402 17.0904 307.321 17.0463C307.2 16.9801 307.272 16.9502 307.491 16.9597C307.558 16.9628 307.63 16.9534 307.702 16.9486Z" fill="#FFE492"/>
<path d="M274.587 15.0166C274.274 15.0355 273.978 15.0119 274.001 14.9709C274.032 14.9174 274.162 14.8827 274.296 14.8733C274.511 14.8575 274.726 14.8449 274.945 14.8355C275.084 14.8292 275.21 14.8528 275.321 14.8938C275.254 14.9441 275.151 14.9804 275.017 14.9914C274.878 15.0024 274.731 15.0087 274.587 15.0166Z" fill="#FFE492"/>
<path d="M272.531 14.8149C272.741 14.8023 272.952 14.7818 273.162 14.7818C273.31 14.7802 273.426 14.8164 273.44 14.8558C273.444 14.8747 273.377 14.9062 273.323 14.9156C273.068 14.9582 272.781 14.9613 272.504 14.9755C272.374 14.9818 272.231 14.9566 272.15 14.9125C272.029 14.8464 272.101 14.8164 272.32 14.8259C272.387 14.829 272.459 14.8196 272.531 14.8149Z" fill="#FFE492"/>
<path d="M247.494 11.9361C247.705 11.9235 247.915 11.903 248.125 11.9014C248.273 11.8998 248.389 11.9361 248.403 11.9754C248.407 11.9943 248.34 12.0243 248.287 12.0353C248.031 12.0778 247.745 12.081 247.467 12.0951C247.337 12.1014 247.194 12.0762 247.114 12.0321C246.993 11.966 247.064 11.9361 247.284 11.9455C247.351 11.9487 247.423 11.9392 247.494 11.9361Z" fill="#FFE492"/>
<path d="M246.315 11.843C246.539 11.8304 246.611 11.8225 246.682 11.8225C246.817 11.8225 246.955 11.8414 247.036 11.8871C247.157 11.9532 247.085 11.9721 246.866 11.9753C246.584 11.9784 246.306 12.0115 246.024 12.0178C245.876 12.021 245.76 11.9831 245.751 11.9438C245.747 11.9249 245.814 11.8918 245.867 11.8855C246.055 11.8619 246.261 11.8477 246.315 11.843Z" fill="#FFE492"/>
<path d="M270.709 2.57809C270.566 2.58596 270.414 2.60801 270.279 2.60014C270.1 2.58911 270.029 2.5466 270.074 2.50722C270.1 2.48518 270.15 2.45368 270.203 2.44896C270.49 2.42691 270.781 2.41272 271.067 2.39697C271.237 2.4206 271.314 2.45367 271.269 2.49304C271.242 2.51508 271.193 2.54501 271.139 2.55131C271 2.56705 270.852 2.57021 270.709 2.57809Z" fill="#FFE492"/>
<path d="M96.9666 3.4869C97.1053 3.48533 97.2306 3.5058 97.3381 3.54517C97.2709 3.59557 97.1724 3.62864 97.0381 3.64281C96.971 3.64911 96.8949 3.65383 96.8233 3.6554C96.6845 3.65855 96.5591 3.6365 96.4517 3.59713C96.5188 3.54674 96.6217 3.51367 96.7516 3.49949C96.8187 3.49319 96.8949 3.49163 96.9666 3.4869Z" fill="#FFE492"/>
<path d="M316.66 17.4589C316.656 17.4132 316.929 17.3613 317.175 17.3628C317.305 17.3644 317.439 17.3865 317.515 17.429C317.632 17.4935 317.565 17.5187 317.345 17.514C317.211 17.5109 317.068 17.5376 316.933 17.5329C316.781 17.5313 316.692 17.4967 316.66 17.4589Z" fill="#FFE492"/>
<path d="M251.329 12.1393C251.324 12.122 251.302 12.1015 251.315 12.0858C251.4 11.9991 251.915 11.9724 252.05 12.048C252.072 12.0621 252.081 12.0858 252.063 12.0999C252.036 12.122 251.987 12.1503 251.933 12.1566C251.794 12.1724 251.651 12.1802 251.508 12.1818C251.445 12.1818 251.387 12.155 251.329 12.1393Z" fill="#FFE492"/>
<path d="M11.4019 11.8005C10.8737 11.8335 10.8647 11.8304 10.9587 11.7516C11.0438 11.6808 11.2005 11.6382 11.4288 11.6382C11.496 11.6382 11.5676 11.6351 11.6258 11.6414C11.6885 11.6493 11.778 11.665 11.7915 11.6839C11.8183 11.7201 11.7422 11.7595 11.6079 11.7863C11.5497 11.7989 11.4736 11.7957 11.4019 11.8005Z" fill="#FFE492"/>
<path d="M103.58 3.26486C103.423 3.29163 103.289 3.28219 103.191 3.23179C103.092 3.1814 103.249 3.12154 103.522 3.10737C103.594 3.10422 103.67 3.09163 103.737 3.09793C103.804 3.10266 103.871 3.12154 103.912 3.14044C103.983 3.17193 103.938 3.21447 103.795 3.25069C103.737 3.26486 103.652 3.26171 103.58 3.26486Z" fill="#FFE492"/>
<path d="M315.728 17.3406C315.768 17.3201 315.808 17.2997 315.853 17.2808C316.019 17.3075 316.09 17.339 316.046 17.3752C316.019 17.3973 315.965 17.4162 315.925 17.4367C315.759 17.4099 315.692 17.3768 315.728 17.3406Z" fill="#FFE492"/>
<path d="M18.4926 29.7288C18.4926 29.7099 18.5552 29.68 18.6045 29.6737C18.6985 29.6627 18.8148 29.6847 18.8954 29.7288C19.0073 29.7918 18.9402 29.8249 18.7343 29.8076C18.5911 29.795 18.4926 29.7635 18.4926 29.7288Z" fill="#FFE492"/>
<path d="M253.153 10.6729C253.212 10.6871 253.27 10.7013 253.324 10.717C253.247 10.7753 253.153 10.8005 253.055 10.7847C252.992 10.7753 252.938 10.7564 252.88 10.7422C252.956 10.6839 253.046 10.6619 253.153 10.6729Z" fill="#FFE492"/>
<path d="M251.603 10.6018C251.693 10.5781 251.8 10.5907 251.926 10.6364C251.885 10.6569 251.849 10.6805 251.8 10.6963C251.715 10.7215 251.603 10.7088 251.482 10.6616C251.518 10.6427 251.559 10.6222 251.603 10.6018Z" fill="#FFE492"/>
<path d="M250.415 10.6713C250.473 10.6854 250.531 10.6996 250.585 10.7154C250.509 10.7736 250.419 10.7988 250.317 10.7831C250.254 10.7736 250.2 10.7547 250.142 10.7405C250.218 10.6823 250.308 10.6587 250.415 10.6713Z" fill="#FFE492"/>
<path d="M249.545 10.5878C249.612 10.6193 249.576 10.6571 249.446 10.6996C249.388 10.6854 249.321 10.6744 249.276 10.6555C249.204 10.6256 249.24 10.5862 249.375 10.5437C249.428 10.5594 249.486 10.5736 249.545 10.5878Z" fill="#FFE492"/>
</svg>
