<svg width="200" height="30" viewBox="0 0 200 30" fill="none" xmlns="http://www.w3.org/2000/svg">
<path d="M99.7308 15.9484C99.5854 15.9726 99.4386 15.9893 99.2961 16.0257C99.2036 16.0485 99.164 15.9817 99.1023 15.9469C99.0818 15.9347 99.0597 15.9104 99.0406 15.9135C98.8967 15.9377 98.7528 15.965 98.6089 15.9923C98.5648 16.0515 98.5369 16.1304 98.4694 16.1592C98.4033 16.1865 98.3255 16.1865 98.252 16.2001C98.1551 16.2168 98.0582 16.2335 97.9613 16.2487C97.9128 16.2563 97.8732 16.2851 97.857 16.3397C97.8541 16.3488 97.8864 16.3715 97.904 16.3852C97.9627 16.4307 98.02 16.4822 98.0846 16.5171C98.1463 16.5505 98.2227 16.4959 98.2887 16.5384C98.4371 16.6339 98.4385 16.6324 98.5516 16.6142C98.6485 16.5975 98.7455 16.5793 98.8424 16.5672C98.8615 16.5642 98.8835 16.5869 98.9041 16.599C98.9657 16.6324 99.0054 16.7082 99.0964 16.6794C99.1655 16.6567 99.2418 16.6521 99.3138 16.64C99.374 16.684 99.4298 16.734 99.4944 16.7689C99.5546 16.8023 99.5723 16.8281 99.5399 16.8721C99.5106 16.913 99.4694 16.9297 99.4151 16.9327C99.3666 16.9342 99.3182 16.9479 99.2697 16.9555C99.2448 16.96 99.2213 16.9631 99.1978 16.9676C99.1052 16.9843 99.1052 16.9843 98.9364 16.8872C98.8703 16.8493 98.7954 16.9024 98.7322 16.866C98.6897 16.8417 98.6529 16.8053 98.6118 16.7795C98.5942 16.7689 98.5663 16.7674 98.5443 16.7704C98.4708 16.781 98.3974 16.7886 98.3269 16.8083C98.277 16.822 98.2476 16.8645 98.2535 16.9069C98.255 16.9236 98.2902 16.9479 98.3108 16.9494C98.3578 16.9524 98.4077 16.9312 98.4532 16.9418C98.4973 16.9524 98.5428 16.9828 98.5751 17.0161C98.6412 17.0859 98.7161 17.0237 98.7792 17.0419C98.8453 17.0616 98.8996 17.1223 98.9628 17.1587C98.9789 17.1678 99.0098 17.1526 99.0347 17.1481C99.1067 17.1375 99.1787 17.1284 99.2506 17.1178C99.3109 17.1618 99.3755 17.2012 99.4298 17.2512C99.5282 17.3422 99.6339 17.3771 99.7617 17.3331C99.8336 17.3089 99.9041 17.318 99.9614 17.3771C100.02 17.4378 100.088 17.4317 100.163 17.4196C100.232 17.4075 100.302 17.3741 100.373 17.4166C100.525 17.5106 100.527 17.5151 100.707 17.4787C100.762 17.4681 100.803 17.4651 100.844 17.5C100.882 17.5318 100.923 17.5591 100.963 17.5895C101.035 17.5788 101.108 17.5682 101.18 17.5561C101.273 17.5394 101.324 17.5606 101.346 17.6456C101.359 17.6972 101.365 17.7442 101.398 17.7791C101.436 17.8215 101.477 17.82 101.533 17.8079C101.586 17.7972 101.624 17.7806 101.646 17.726C101.655 17.7032 101.672 17.682 101.688 17.6638C101.702 17.6501 101.722 17.6289 101.734 17.6319C101.756 17.638 101.785 17.6547 101.793 17.6744C101.865 17.8579 101.865 17.8594 101.938 17.9125C102.019 17.9717 102.103 18.0248 102.176 18.0915C102.242 18.1506 102.308 18.1249 102.38 18.1249C102.434 18.1249 102.47 18.1643 102.465 18.2037C102.462 18.2265 102.442 18.2598 102.424 18.2629C102.28 18.2932 102.135 18.319 101.989 18.3402C101.972 18.3433 101.95 18.316 101.929 18.3023C101.888 18.275 101.851 18.2325 101.807 18.2234C101.763 18.2143 101.712 18.2371 101.663 18.2447C101.615 18.2523 101.564 18.272 101.52 18.2599C101.475 18.2477 101.44 18.2037 101.399 18.1749C101.38 18.1613 101.354 18.1416 101.337 18.1461C101.23 18.1825 101.151 18.1325 101.075 18.0657C101.058 18.0521 101.031 18.043 101.01 18.046C100.84 18.0718 100.671 18.1021 100.5 18.1309C100.431 18.1431 100.376 18.09 100.361 18.0005C100.353 17.9504 100.339 17.9004 100.339 17.8503C100.339 17.7593 100.258 17.7093 100.199 17.7199C100.102 17.7351 100.004 17.7472 99.9085 17.7699C99.8307 17.7881 99.7646 17.7699 99.7117 17.7153C99.6501 17.6532 99.5796 17.6653 99.5091 17.682C99.4562 17.6941 99.4415 17.7442 99.4445 17.8701C99.4474 17.9717 99.4224 18.0035 99.327 18.0202C99.2066 18.0414 99.0847 18.0627 98.9628 18.0794C98.9437 18.0824 98.9217 18.0566 98.9026 18.043C98.8615 18.0157 98.8247 17.9717 98.7807 17.9626C98.7366 17.952 98.6852 17.9747 98.6368 17.9838C98.5883 17.9914 98.5369 18.0126 98.4929 18.002C98.4488 17.9914 98.4121 17.9459 98.3724 17.9171C98.3533 17.9034 98.3299 17.8837 98.3108 17.8867C98.2138 17.8989 98.1169 17.9171 98.02 17.9338C97.9113 17.952 97.9113 17.952 97.7571 17.8579C97.6866 17.8155 97.6162 17.8488 97.5471 17.861C97.4737 17.8731 97.4047 17.8792 97.3474 17.8185C97.3092 17.7791 97.2666 17.7548 97.2211 17.7624C97.0992 17.7806 96.9788 17.8033 96.8569 17.8215C96.8364 17.8246 96.8085 17.817 96.7923 17.8033C96.7145 17.7396 96.6381 17.6896 96.5295 17.7214C96.4355 17.7487 96.3341 17.7502 96.2402 17.776C96.1888 17.7897 96.1652 17.8382 96.1755 17.8761C96.1814 17.8958 96.2122 17.9186 96.2328 17.9186C96.2798 17.9201 96.3312 17.8974 96.3753 17.9065C96.4663 17.9247 96.5118 18.0521 96.6308 18.0172C96.7013 17.9959 96.7747 17.9884 96.8481 17.9823C96.8672 17.9808 96.8877 18.0096 96.9083 18.0248C96.967 18.0657 97.0185 18.1188 97.1036 18.0915C97.1741 18.0703 97.249 18.0642 97.321 18.0521C97.4355 18.0324 97.4355 18.0339 97.5838 18.1264C97.6543 18.1704 97.7248 18.1355 97.7938 18.1249C97.8452 18.1173 97.8937 18.1021 97.9348 18.1234C97.998 18.1552 98.0435 18.228 98.1213 18.2234C98.1947 18.2189 98.2667 18.1977 98.3401 18.1901C98.3857 18.1855 98.4283 18.2098 98.465 18.2508C98.5032 18.2917 98.5443 18.3099 98.5942 18.3008C98.6661 18.2887 98.7396 18.2735 98.813 18.2659C98.8335 18.2644 98.8571 18.2781 98.8762 18.2902C98.9173 18.3175 98.9569 18.3493 98.9966 18.3782C99.0685 18.3691 99.142 18.366 99.2125 18.3478C99.2668 18.3342 99.305 18.3402 99.349 18.3706C99.4048 18.4115 99.4504 18.4843 99.5414 18.4495C99.5869 18.4328 99.6398 18.4373 99.6853 18.4221C99.7411 18.4024 99.7793 18.41 99.8189 18.4555C99.8938 18.542 99.9878 18.5435 100.085 18.5101C100.19 18.4737 100.27 18.5162 100.349 18.5829C100.433 18.6527 100.433 18.6512 100.497 18.8195C100.517 18.8681 100.571 18.8908 100.616 18.8817C100.693 18.8666 100.759 18.8741 100.815 18.9318C100.873 18.994 100.944 18.9864 101.016 18.9697C101.111 18.9469 101.207 18.9272 101.285 19.0152C101.323 19.0577 101.364 19.0683 101.415 19.0576C101.561 19.0303 101.707 19.0137 101.85 18.9803C101.937 18.9591 101.986 19.0076 102.045 19.0486C102.125 19.1047 102.211 19.1547 102.211 19.2745C102.211 19.2943 102.232 19.317 102.249 19.3322C102.288 19.364 102.329 19.3913 102.368 19.4217C102.427 19.4672 102.484 19.5051 102.565 19.4808C102.636 19.4611 102.71 19.455 102.782 19.4414C102.854 19.4277 102.92 19.4201 102.985 19.4778C103.06 19.543 103.139 19.6052 103.224 19.6537C103.285 19.6886 103.364 19.6295 103.429 19.6765C103.468 19.7053 103.506 19.7387 103.549 19.7629C103.567 19.7735 103.595 19.766 103.618 19.7629C103.667 19.7569 103.716 19.7523 103.763 19.7372C103.818 19.7205 103.859 19.7235 103.9 19.7584C103.938 19.7902 103.976 19.8342 104.02 19.8433C104.087 19.857 104.16 19.7963 104.226 19.8661C104.26 19.901 104.302 19.9343 104.346 19.9449C104.39 19.9556 104.442 19.9328 104.489 19.9343C104.509 19.9343 104.534 19.9586 104.546 19.9783C104.553 19.9889 104.543 20.0177 104.533 20.0329C104.52 20.0511 104.501 20.0754 104.482 20.0784C104.336 20.1057 104.191 20.1285 104.045 20.1543C103.959 20.1694 103.959 20.1694 103.784 20.0739C103.743 20.0511 103.697 20.0557 103.646 20.0663C103.577 20.0799 103.506 20.1057 103.434 20.0784C103.34 19.9753 103.224 19.9662 103.101 20.0056C103.05 20.0223 103.003 20.0223 102.965 19.9935C102.884 19.9358 102.799 19.8828 102.727 19.8145C102.671 19.7614 102.644 19.7569 102.621 19.8297C102.614 19.8524 102.606 19.8767 102.608 19.8979C102.616 19.9738 102.633 20.0481 102.641 20.1239C102.644 20.1451 102.633 20.1694 102.625 20.1922C102.602 20.2559 102.571 20.2513 102.52 20.1982C102.468 20.1451 102.407 20.1103 102.324 20.1345C102.254 20.1558 102.177 20.1527 102.107 20.1755C101.998 20.2089 101.922 20.1603 101.844 20.0951C101.828 20.0815 101.8 20.0739 101.779 20.0769C101.561 20.1118 101.343 20.1512 101.124 20.1861C101.077 20.1937 101.035 20.1709 100.998 20.13C100.96 20.089 100.917 20.0678 100.87 20.0754C100.677 20.1072 100.483 20.1361 100.289 20.1755C100.21 20.1922 100.146 20.1724 100.092 20.1194C100.051 20.0799 100.013 20.0678 99.9614 20.0723C99.9056 20.0769 99.866 20.0921 99.8381 20.1361C99.8116 20.1785 99.8307 20.2043 99.8894 20.2377C99.9526 20.2741 100.011 20.3211 100.072 20.3636C100.12 20.3575 100.168 20.3453 100.215 20.3469C100.236 20.3469 100.255 20.3742 100.276 20.3893C100.334 20.4333 100.389 20.4773 100.472 20.453C100.543 20.4318 100.618 20.4273 100.69 20.4136C100.79 20.3969 100.79 20.3969 100.951 20.4925C100.992 20.5168 101.036 20.5152 101.089 20.5016C101.135 20.491 101.182 20.5122 101.214 20.5577C101.227 20.5759 101.223 20.6062 101.195 20.7063C101.195 20.7807 101.226 20.7473 101.236 20.6988C101.252 20.629 101.221 20.6062 101.163 20.6442C101.122 20.6715 101.101 20.7109 101.111 20.7427C101.117 20.7594 101.145 20.7807 101.195 20.7063C101.324 20.6153 101.423 20.6047 101.517 20.5804C101.572 20.5668 101.608 20.5729 101.652 20.6123C101.705 20.6593 101.757 20.7094 101.844 20.6851C101.938 20.6578 102.038 20.6548 102.133 20.632C102.221 20.6108 102.267 20.6775 102.323 20.717C102.39 20.764 102.465 20.7109 102.527 20.7382C102.592 20.7655 102.637 20.8322 102.712 20.8444C102.821 20.8034 102.89 20.8792 102.972 20.9293C103.036 20.9672 103.113 20.9338 103.182 20.9172C103.26 20.899 103.324 20.9157 103.379 20.9703C103.44 21.0324 103.509 21.0188 103.58 21.0051C103.744 20.9748 103.75 20.9702 103.846 21.0537C103.915 21.1143 103.981 21.087 104.05 21.0795C104.11 21.1204 104.169 21.1644 104.232 21.2008C104.248 21.2099 104.279 21.1947 104.304 21.1902C104.376 21.178 104.449 21.1659 104.521 21.1538C104.57 21.1462 104.621 21.1234 104.665 21.1325C104.709 21.1432 104.746 21.1871 104.786 21.216C104.825 21.2448 104.866 21.2736 104.904 21.3039C104.963 21.3494 105.019 21.3874 105.101 21.3646C105.172 21.3449 105.245 21.3388 105.319 21.3252C105.411 21.3085 105.408 21.313 105.58 21.404C105.673 21.4541 105.768 21.3934 105.862 21.3874C105.909 21.3843 105.954 21.401 105.987 21.445C106 21.4632 105.996 21.4935 106 21.5193C105.758 21.5603 105.514 21.5951 105.275 21.6452C105.182 21.6649 105.134 21.6103 105.084 21.5648C105.001 21.492 104.893 21.5982 104.815 21.5041C104.768 21.448 104.7 21.4162 104.62 21.4435C104.573 21.4586 104.523 21.4571 104.474 21.4708C104.351 21.5041 104.238 21.5057 104.139 21.401C104.106 21.3646 104.057 21.3449 104.022 21.31C103.981 21.2721 103.941 21.2508 103.893 21.2584C103.674 21.2948 103.457 21.3312 103.239 21.3707C103.22 21.3737 103.201 21.3964 103.185 21.4131C103.144 21.4556 103.157 21.489 103.223 21.5163C103.245 21.5254 103.263 21.5451 103.283 21.5602C103.323 21.5891 103.36 21.6346 103.404 21.6452C103.448 21.6558 103.499 21.6346 103.548 21.627C103.596 21.6194 103.647 21.5967 103.691 21.6058C103.736 21.6164 103.772 21.6604 103.813 21.6877C103.832 21.7013 103.856 21.7241 103.875 21.7225C103.972 21.7134 104.067 21.6968 104.164 21.6831C104.225 21.7241 104.276 21.7832 104.348 21.7969C104.393 21.806 104.442 21.7893 104.489 21.7923C104.509 21.7938 104.536 21.8166 104.546 21.8363C104.552 21.8484 104.533 21.8788 104.518 21.8939C104.462 21.9516 104.386 21.9409 104.317 21.9591C104.242 21.9789 104.175 21.9728 104.117 21.9137C104.079 21.8742 104.037 21.853 103.99 21.8606C103.868 21.8803 103.747 21.903 103.625 21.9197C103.605 21.9228 103.58 21.9091 103.561 21.8985C103.407 21.806 103.407 21.8029 103.298 21.8227C103.138 21.8515 103.138 21.8515 103.031 21.7711C103.01 21.7559 102.988 21.7271 102.97 21.7286C102.8 21.7529 102.631 21.7771 102.462 21.812C102.406 21.8226 102.368 21.8227 102.327 21.7832C102.292 21.7499 102.251 21.7119 102.207 21.7028C102.161 21.6937 102.111 21.7165 102.063 21.7241C102.014 21.7316 101.963 21.7514 101.92 21.7392C101.876 21.7271 101.838 21.6846 101.8 21.6543C101.76 21.6224 101.718 21.6239 101.663 21.6361C101.496 21.671 101.495 21.6664 101.329 21.5724C101.31 21.5618 101.285 21.5496 101.264 21.5527C101.142 21.5709 101.022 21.5936 100.9 21.6118C100.853 21.6194 100.807 21.5997 100.775 21.5557C100.762 21.5375 100.766 21.5072 100.757 21.448C100.747 21.4344 100.759 21.4586 100.762 21.4814C100.784 21.4784 100.81 21.4814 100.826 21.4692C100.867 21.4404 100.888 21.4025 100.878 21.3707C100.872 21.354 100.844 21.3327 100.826 21.3327C100.794 21.3327 100.766 21.3661 100.757 21.448C100.665 21.4981 100.566 21.5087 100.471 21.533C100.415 21.5481 100.38 21.5405 100.336 21.5011C100.283 21.4526 100.229 21.4055 100.142 21.4298C100.048 21.4571 99.9482 21.4617 99.8512 21.4829C99.7396 21.5072 99.6912 21.3707 99.5972 21.3737C99.5003 21.3767 99.4034 21.4025 99.3064 21.4207C99.2213 21.4359 99.2213 21.4359 99.045 21.3373C98.9804 21.3009 98.9041 21.354 98.8409 21.3161C98.7983 21.2918 98.7616 21.2554 98.7205 21.2296C98.7029 21.219 98.675 21.219 98.6529 21.222C98.5311 21.2402 98.4077 21.2524 98.2902 21.2857C98.1566 21.3252 98.0553 21.2827 97.9598 21.1932C97.8394 21.2099 97.7175 21.219 97.5985 21.2478C97.5119 21.269 97.462 21.219 97.4032 21.178C97.3827 21.1644 97.3651 21.1416 97.343 21.1356C97.321 21.1295 97.2945 21.1416 97.271 21.1462C97.1741 21.1629 97.0742 21.1705 96.9803 21.1978C96.8643 21.2326 96.8202 21.1083 96.7306 21.0931C96.6704 21.1674 96.6381 21.269 96.5192 21.2766C96.4222 21.2827 96.3253 21.307 96.2284 21.3236C96.1799 21.3312 96.1315 21.3403 96.083 21.3479C96.0052 21.3616 95.9685 21.4207 95.9846 21.5117C95.9934 21.5618 96.0008 21.6118 96.0081 21.6619C96.0228 21.7514 95.9861 21.8272 95.9244 21.8378C95.7541 21.8666 95.5852 21.897 95.4148 21.9227C95.3693 21.9303 95.3252 21.9045 95.2885 21.8636C95.2503 21.8226 95.2078 21.8044 95.1608 21.812C94.9904 21.8408 94.8215 21.8712 94.6512 21.897C94.6321 21.9 94.6072 21.8848 94.5881 21.8727C94.5469 21.8454 94.5073 21.8136 94.4676 21.7847C94.3707 21.7984 94.2753 21.8075 94.1798 21.8257C94.0256 21.853 94.0256 21.8545 93.9125 21.7711C93.892 21.7559 93.8714 21.7271 93.8523 21.7286C93.7789 21.7347 93.7069 21.7499 93.6335 21.7635C93.4176 21.8029 93.4176 21.8029 93.3545 21.7574C93.2972 21.715 93.2458 21.6634 93.1591 21.6877C93.0652 21.715 92.9653 21.7241 92.8684 21.7392C92.7964 21.7498 92.7245 21.762 92.6525 21.765C92.6334 21.7665 92.6129 21.7377 92.5923 21.7225C92.5336 21.6755 92.4763 21.6376 92.3955 21.6634C92.3485 21.6786 92.2986 21.6816 92.2501 21.6892C92.1238 21.7104 92.1238 21.7104 91.9168 21.6194C91.8962 21.6103 91.8713 21.5997 91.8507 21.6042C91.6804 21.6315 91.5115 21.6619 91.3411 21.6877C91.3206 21.6907 91.2956 21.6816 91.275 21.674C91.043 21.586 91.043 21.586 90.7963 21.6285C90.7023 21.6437 90.6994 21.6497 90.601 21.5694C90.5569 21.5345 90.5202 21.5178 90.4688 21.5284C90.275 21.5648 90.0797 21.5891 89.8873 21.6315C89.8007 21.6497 89.7507 21.6042 89.692 21.5633C89.6714 21.5496 89.6494 21.5193 89.6318 21.5208C89.4379 21.5496 89.244 21.5845 89.0502 21.6133C89.0326 21.6164 89.0106 21.586 88.99 21.5724C88.9504 21.5451 88.9122 21.5041 88.8681 21.495C88.8226 21.4859 88.7727 21.5087 88.7227 21.5163C88.6008 21.536 88.6008 21.5345 88.4598 21.445C88.4408 21.4329 88.4158 21.4162 88.3967 21.4192C88.2029 21.4495 88.0076 21.4753 87.8152 21.5193C87.705 21.5436 87.6301 21.4996 87.5523 21.4359C87.5362 21.4222 87.5083 21.4162 87.4877 21.4192C87.2689 21.4541 87.0516 21.4935 86.8327 21.5284C86.7872 21.536 86.7431 21.5102 86.7064 21.4708C86.6477 21.4086 86.5787 21.4162 86.5053 21.4298C86.3364 21.4617 86.3349 21.4602 86.235 21.3874C86.2145 21.3722 86.1969 21.3525 86.1748 21.3449C86.1543 21.3373 86.1279 21.3418 86.1058 21.3449C86.0089 21.3601 85.912 21.3767 85.8151 21.3934C85.7181 21.4101 85.6197 21.4192 85.5243 21.445C85.4068 21.4768 85.351 21.3782 85.2687 21.3327C85.1483 21.3525 85.025 21.3646 84.906 21.3964C84.815 21.4207 84.7724 21.354 84.7122 21.3191C84.6916 21.307 84.6696 21.2812 84.6505 21.2842C84.4317 21.3176 84.2129 21.354 83.9955 21.3949C83.9427 21.404 83.9074 21.3919 83.8634 21.3555C83.765 21.2736 83.7606 21.2766 83.5961 21.307C83.5241 21.3206 83.4551 21.3328 83.3934 21.2706C83.3391 21.2144 83.273 21.2008 83.1952 21.219C83.0997 21.2417 83.0013 21.2539 82.9044 21.269C82.8075 21.2857 82.7106 21.3085 82.6137 21.3161C82.5358 21.3236 82.4888 21.2524 82.4272 21.216C82.4081 21.2053 82.3816 21.2038 82.3596 21.2069C82.2627 21.2205 82.1628 21.2311 82.0688 21.2569C81.9543 21.2888 81.8911 21.2053 81.8104 21.1568C81.7928 21.1462 81.7634 21.1523 81.7413 21.1568C81.571 21.1841 81.4021 21.2144 81.2318 21.2433C81.1715 21.2023 81.1099 21.1629 81.0497 21.1219C80.9527 21.1371 80.8558 21.1538 80.7589 21.1689C80.6855 21.1811 80.6106 21.1856 80.5415 21.2084C80.452 21.2387 80.4079 21.1674 80.3477 21.1325C80.3271 21.1204 80.3051 21.0946 80.286 21.0977C80.1641 21.1143 80.0423 21.1325 79.9218 21.1583C79.8073 21.1841 79.7618 21.0476 79.6678 21.0491C79.5709 21.0506 79.471 21.0704 79.377 21.0977C79.2683 21.1295 79.192 21.081 79.1141 21.0157C79.098 21.0021 79.0701 20.9945 79.0495 20.9975C78.9276 21.0157 78.8072 21.0385 78.6853 21.0567C78.6648 21.0597 78.6398 21.0522 78.6193 21.0431C78.3872 20.9536 78.3872 20.9521 78.2859 20.9703C78.2139 20.9824 78.1405 20.9976 78.0671 21.0051C78.0465 21.0082 78.0215 20.9945 78.0024 20.9824C77.8497 20.8899 77.8497 20.8883 77.7396 20.9065C77.6427 20.9232 77.5457 20.9399 77.4488 20.9566C77.3886 20.9156 77.3269 20.8762 77.2667 20.8353C77.1463 20.855 77.0229 20.8701 76.904 20.8974C76.8482 20.9096 76.8115 20.905 76.7689 20.8671C76.716 20.8216 76.6632 20.7685 76.575 20.7943C76.4811 20.8216 76.3812 20.8246 76.2857 20.8474C76.1712 20.8747 76.1242 20.7367 76.0317 20.7382C75.9348 20.7397 75.8349 20.7594 75.7409 20.7867C75.6323 20.8186 75.5559 20.77 75.4781 20.7048C75.4619 20.6912 75.434 20.6836 75.4134 20.6866C75.1462 20.7306 74.8804 20.7746 74.6131 20.8216C74.4486 20.8504 74.4486 20.8519 74.1358 20.7685C74.1138 20.7625 74.0903 20.7564 74.0683 20.7594C73.9713 20.7731 73.8715 20.7837 73.7775 20.8095C73.6629 20.8413 73.5998 20.7594 73.519 20.7094C73.5014 20.6987 73.4735 20.7048 73.45 20.7078C73.3766 20.7185 73.3046 20.7321 73.2312 20.7443C73.1343 20.7609 73.0374 20.7776 72.9404 20.7943C72.8802 20.7549 72.8185 20.7139 72.7583 20.6745C72.6379 20.6942 72.5146 20.7048 72.3956 20.7367C72.3046 20.7609 72.262 20.6972 72.2018 20.6608C72.1812 20.6487 72.1592 20.6229 72.1401 20.6244C71.9213 20.6578 71.7025 20.6927 71.4851 20.7352C71.3955 20.7534 71.3544 20.6851 71.2942 20.6502C71.2737 20.6396 71.2502 20.6199 71.2311 20.6229C71.0857 20.6442 70.9403 20.6699 70.7949 20.6957C70.7127 20.7109 70.7127 20.7109 70.5335 20.6168C70.513 20.6062 70.4895 20.5956 70.4689 20.5986C70.0078 20.6745 69.5481 20.7549 69.087 20.8307C69.04 20.8383 68.9974 20.8155 68.9607 20.7746C68.9226 20.7336 68.88 20.7124 68.833 20.72C68.6391 20.7518 68.4438 20.7807 68.2514 20.8201C68.1721 20.8368 68.109 20.817 68.0546 20.764C68.0135 20.7245 67.9753 20.7094 67.9239 20.7185C67.827 20.7367 67.7301 20.7518 67.6332 20.7685C67.5363 20.7852 67.4393 20.8019 67.3424 20.8186C67.2455 20.8353 67.1471 20.8444 67.0516 20.8701C66.9342 20.902 66.8769 20.808 66.7961 20.7609C66.6507 20.7837 66.5053 20.8064 66.3614 20.8307C66.1676 20.8626 65.9737 20.8974 65.7799 20.9278C65.7623 20.9308 65.7402 20.9035 65.7197 20.8899C65.6595 20.8519 65.6154 20.7989 65.5258 20.8155C65.0911 20.8959 64.6535 20.9642 64.2174 21.0431C64.1263 21.0597 64.0867 20.9945 64.025 20.9596C64.0044 20.949 63.9809 20.9278 63.9618 20.9308C63.7195 20.9687 63.4772 21.0112 63.2349 21.0521C63.1365 21.0688 63.1365 21.0688 62.9721 20.9748C62.953 20.9642 62.928 20.9505 62.9074 20.9536C62.5917 21.0051 62.2774 21.0597 61.9617 21.1128C61.9147 21.1204 61.8721 21.0992 61.834 21.0582C61.7972 21.0173 61.7532 20.9945 61.7076 21.0021C61.4169 21.0506 61.1246 21.0977 60.8353 21.1507C60.7575 21.1659 60.6929 21.1523 60.6371 21.0977C60.5974 21.0582 60.5578 21.0415 60.5079 21.0506C60.0717 21.1249 59.6355 21.1962 59.1994 21.2751C59.1157 21.2903 59.057 21.2615 59.0041 21.2114C58.9615 21.172 58.9248 21.1644 58.8719 21.1705C58.8161 21.178 58.7823 21.1947 58.7515 21.2402C58.7119 21.2994 58.6869 21.3737 58.5929 21.3782C58.496 21.3828 58.3976 21.401 58.3021 21.4268C58.2111 21.4526 58.1685 21.3843 58.1112 21.3434C58.0686 21.3145 58.029 21.31 57.9746 21.3236C57.9247 21.3358 57.8939 21.3616 57.8645 21.4101C57.7999 21.5132 57.794 21.5132 57.7147 21.448C57.6721 21.4131 57.6339 21.3858 57.5869 21.3919C57.3931 21.4222 57.1992 21.4556 57.0054 21.4905C56.8938 21.5102 56.8923 21.5132 56.8086 21.4374C56.7675 21.3995 56.7279 21.3813 56.6794 21.3904C56.1463 21.4814 55.6133 21.5694 55.0802 21.6649C54.9979 21.6801 54.9421 21.6482 54.8834 21.6027C54.8643 21.5876 54.8452 21.5663 54.8232 21.5602C54.8012 21.5542 54.7762 21.5602 54.7527 21.5633C54.365 21.6285 53.9758 21.6907 53.5896 21.7635C53.5015 21.7802 53.4545 21.7317 53.3943 21.6922C53.3738 21.6786 53.3561 21.6573 53.3341 21.6513C53.312 21.6467 53.2856 21.6573 53.2621 21.6619C52.8744 21.7271 52.4853 21.7893 52.0991 21.8621C52.0065 21.8788 51.9669 21.8151 51.9067 21.7817C51.8861 21.7696 51.8641 21.7468 51.845 21.7498C51.7231 21.7665 51.6027 21.7893 51.4808 21.809C51.19 21.859 50.8992 21.9061 50.6085 21.9576C50.4969 21.9774 50.4484 21.8424 50.3544 21.8484C50.2325 21.856 50.1121 21.8863 49.9902 21.9076C49.8933 21.9243 49.7964 21.9394 49.6995 21.9576C49.604 21.9743 49.604 21.9743 49.3661 21.8863C49.3455 21.8788 49.3206 21.8681 49.3 21.8712C48.9608 21.9273 48.6201 21.9834 48.2823 22.0441C48.2045 22.0577 48.1399 22.0502 48.0841 21.994C48.0444 21.9546 48.0033 21.9349 47.9549 21.944C47.4453 22.0304 46.9372 22.1169 46.4276 22.2018C46.4085 22.2049 46.3835 22.1897 46.3644 22.1776C46.3233 22.1503 46.2837 22.1184 46.244 22.0896C46.2146 22.1245 46.1765 22.1563 46.1574 22.1958C46.131 22.2488 46.0957 22.264 46.0399 22.2731C45.9841 22.2822 45.9489 22.2792 45.9048 22.2398C45.8519 22.1912 45.7976 22.1533 45.7109 22.1685C45.1779 22.264 44.6448 22.3505 44.1117 22.4445C44.0236 22.4597 43.9825 22.3929 43.9208 22.358C43.9003 22.3474 43.8767 22.3308 43.8576 22.3338C43.6388 22.3687 43.4215 22.4066 43.2027 22.443C42.5962 22.5461 41.9897 22.6447 41.3847 22.7539C41.2745 22.7736 41.1996 22.7357 41.1218 22.6705C41.1056 22.6569 41.0777 22.6493 41.0572 22.6523C40.2084 22.7949 39.3596 22.939 38.5122 23.083C38.4667 23.0906 38.4226 23.0664 38.3859 23.0269C38.3477 22.986 38.3052 22.9663 38.2582 22.9738C37.8705 23.0391 37.4828 23.1043 37.0951 23.171C36.9982 23.1877 36.9967 23.1892 36.8968 23.1164C36.8763 23.1012 36.8543 23.0724 36.8381 23.0755C36.8043 23.0831 36.772 23.121 36.7485 23.1725C36.725 23.2271 36.6883 23.2423 36.634 23.2529C36.5782 23.2635 36.5415 23.259 36.4989 23.2226C36.4445 23.1771 36.3946 23.1331 36.3065 23.1483C35.1919 23.3424 34.0772 23.529 32.9626 23.7216C32.873 23.7367 32.8319 23.6731 32.7702 23.6382C32.7497 23.6276 32.7291 23.6124 32.7071 23.6093C32.6836 23.6063 32.6586 23.6154 32.6352 23.62C30.8171 23.9279 28.9991 24.2373 27.181 24.5452C27.0724 24.5634 27.0738 24.5634 26.9549 24.7029C26.9402 24.7196 26.9211 24.7423 26.9005 24.7454C26.344 24.8424 25.7859 24.9365 25.2279 25.0305C24.9856 25.0715 24.7433 25.1139 24.501 25.1534C24.4143 25.167 24.4143 25.167 24.2073 25.3308C24.1896 25.3445 24.1691 25.3627 24.1485 25.3657C23.1793 25.531 22.21 25.6964 21.2393 25.8587C21.163 25.8708 21.1013 25.8981 21.0661 25.9709C21.0411 26.0225 21.0088 26.0528 20.9603 26.0619C20.2819 26.1772 19.6034 26.294 18.9235 26.4062C18.8427 26.4198 18.7942 26.4623 18.7546 26.526C18.7414 26.5473 18.7296 26.5715 18.7105 26.5867C18.6929 26.6003 18.6665 26.6049 18.6445 26.6094C18.0629 26.708 17.4814 26.8097 16.8984 26.9037C16.8117 26.9173 16.7765 26.9735 16.7339 27.0326C16.7192 27.0523 16.7089 27.0796 16.6898 27.0933C16.6707 27.1054 16.6428 27.1054 16.6193 27.1084C16.1347 27.1903 15.6501 27.2738 15.1655 27.3557C15.0715 27.3481 15.051 27.4361 15.0054 27.4891C14.9893 27.5073 14.9776 27.5316 14.9585 27.5437C14.9379 27.5559 14.9114 27.5544 14.8865 27.5574C14.4988 27.6226 14.1111 27.6924 13.7219 27.7531C13.6324 27.7667 13.6147 27.844 13.5663 27.8971C13.5501 27.9138 13.534 27.9396 13.5149 27.9442C13.2726 27.9881 13.0303 28.0291 12.788 28.0685C12.7072 28.0822 12.7072 28.0807 12.5648 28.2308C12.5486 28.2475 12.5295 28.2657 12.5089 28.2703C12.1462 28.334 11.782 28.3946 11.4178 28.4568C11.3708 28.4644 11.3385 28.5008 11.315 28.5524C11.2915 28.6039 11.2578 28.6373 11.2108 28.6449C10.92 28.6949 10.6292 28.7465 10.3384 28.792C10.2577 28.8041 10.2048 28.8421 10.1696 28.9103C10.1431 28.9619 10.1108 28.9877 10.0594 28.9968C9.76866 29.0453 9.4779 29.0984 9.18567 29.1409C9.10049 29.153 9.05642 29.2046 9.02117 29.2683C8.99327 29.3198 8.96096 29.338 8.90662 29.3471C8.37355 29.4351 7.83902 29.5231 7.30741 29.6201C7.21783 29.6368 7.17229 29.5837 7.11355 29.5458C7.02985 29.4927 6.95204 29.4351 6.95204 29.3168C6.95204 29.2986 6.92707 29.2774 6.90944 29.2622C6.77874 29.1484 6.77874 29.1484 6.75818 29.0271C6.74643 28.9528 6.73322 28.877 6.72294 28.8011C6.70385 28.6767 6.65684 28.6449 6.52173 28.6676C6.47327 28.6752 6.42481 28.6858 6.37635 28.6919C6.30439 28.7025 6.25006 28.6525 6.23684 28.5615C6.2295 28.5114 6.2207 28.4614 6.21336 28.4113C6.28679 28.3992 6.2853 28.3977 6.41453 28.2141C6.46887 28.1368 6.46889 28.1368 6.36462 28.0594C6.32497 28.0306 6.28678 27.9988 6.24419 27.9715C6.2251 27.9593 6.20015 27.9517 6.17959 27.9548C6.0577 27.973 5.93728 27.9942 5.81686 28.0154C5.62302 28.0488 5.623 28.0488 5.42621 27.8941C5.41006 27.882 5.38509 27.8592 5.38803 27.8471C5.40418 27.791 5.44383 27.7667 5.49376 27.7606C5.56719 27.7515 5.63914 27.7364 5.7111 27.7242C5.75956 27.7166 5.80802 27.7076 5.85648 27.7C5.90201 27.6423 5.94902 27.5862 5.99161 27.5271C6.05916 27.4361 6.05914 27.433 5.96662 27.3693C5.90788 27.3268 5.84474 27.2889 5.78453 27.2495C5.71257 27.2616 5.63914 27.2753 5.56719 27.2859C5.47614 27.2995 5.43942 27.2707 5.41592 27.1721C5.39536 27.0857 5.42033 27.0114 5.49082 26.9932C5.56278 26.975 5.63036 26.9628 5.66707 26.8855C5.70232 26.8112 5.76398 26.7823 5.84035 26.7763C5.88881 26.7717 5.93727 26.7611 5.98573 26.752C6.04888 26.7399 6.08266 26.6625 6.06945 26.5761C6.06211 26.52 6.04741 26.4729 5.99014 26.4608C5.73609 26.4077 5.73313 26.4092 5.60684 26.3061C5.59509 26.297 5.5863 26.2697 5.59071 26.256C5.59805 26.2333 5.61421 26.1999 5.63183 26.1954C5.80071 26.162 5.96958 26.1317 6.13846 26.1089C6.19427 26.1013 6.23539 26.0907 6.25448 26.0346C6.28092 25.9572 6.26917 25.886 6.21777 25.8329C6.20162 25.8162 6.17516 25.795 6.15754 25.7965C5.96369 25.8238 5.77132 25.8587 5.57748 25.886C5.55985 25.889 5.52756 25.8632 5.52022 25.8435C5.50553 25.8071 5.52755 25.7586 5.57895 25.7419C5.6465 25.7191 5.71552 25.7176 5.76104 25.6418C5.82419 25.5341 5.90201 25.4355 5.9725 25.3324C5.98425 25.3142 6.00337 25.2793 5.99896 25.2762C5.96225 25.2429 5.91965 25.2171 5.88147 25.1852C5.81686 25.1321 5.81684 25.0578 5.83153 24.9865C5.84328 24.9289 5.88733 24.9062 5.94167 24.9062C5.96517 24.9062 5.99453 24.9062 6.01363 24.8925C6.06356 24.8591 6.07971 24.8167 6.05475 24.7848C6.04006 24.7666 6.01364 24.7408 5.99602 24.7439C5.68176 24.7939 5.366 24.8425 5.0532 24.9046C4.96068 24.9228 4.91812 24.8652 4.86232 24.8242C4.81973 24.7924 4.78006 24.7803 4.72719 24.803C4.67726 24.8242 4.62882 24.8121 4.59798 24.7621C4.57301 24.7211 4.61706 24.6862 4.73601 24.6468C4.75804 24.6392 4.78299 24.6347 4.79915 24.6195C4.9695 24.4557 4.96949 24.4542 5.08697 24.4329C5.20152 24.4132 5.20155 24.4117 5.26176 24.3237C5.28966 24.2828 5.32047 24.2418 5.34691 24.1994C5.35719 24.1827 5.37483 24.1523 5.36896 24.1432C5.33665 24.0962 5.29258 24.0856 5.24118 24.0962C5.12663 24.122 4.99155 24.1008 4.93134 24.2449C4.90784 24.2995 4.87112 24.3146 4.81826 24.3237C4.28665 24.4117 3.75502 24.5057 3.22195 24.5907C3.1353 24.6043 3.09568 24.6604 3.0619 24.7226C3.03253 24.7742 3.00021 24.7894 2.94441 24.7985C2.88861 24.8076 2.84453 24.8121 2.81222 24.7621C2.79313 24.7317 2.80929 24.6893 2.85334 24.6468C2.91649 24.5861 2.90474 24.5103 2.88418 24.439C2.86949 24.392 2.82397 24.3586 2.77551 24.3617C2.70355 24.3677 2.63455 24.3844 2.57434 24.3237C2.53909 24.2889 2.49503 24.2646 2.45538 24.2342C2.37901 24.1721 2.30265 24.1084 2.19545 24.1493C2.12202 24.1341 2.07062 24.0795 2.01188 24.0371C1.91349 23.9673 1.90468 23.9567 1.97517 23.8824C2.05447 23.7989 1.99278 23.6897 2.03683 23.6078C2.08383 23.5199 2.14846 23.4425 2.20574 23.3606C2.22042 23.3394 2.23364 23.3197 2.24833 23.2984C2.21455 23.2681 2.18372 23.2302 2.14407 23.2089C2.09267 23.1816 2.06624 23.1483 2.06917 23.0542C2.05889 23.0406 2.06327 23.0755 2.07502 23.0846C2.08823 23.0937 2.12057 23.0861 2.13672 23.0755C2.17784 23.0467 2.19838 23.0087 2.1881 22.9769C2.18222 22.9602 2.15434 22.939 2.13672 22.939C2.10441 22.939 2.07651 22.9723 2.0677 23.0542C1.90323 23.1164 1.73285 23.1468 1.5625 23.171C1.54488 23.1741 1.52286 23.1437 1.5023 23.1286C1.43475 23.077 1.43474 23.0785 1.23649 23.0633C1.21593 23.0618 1.18804 23.0406 1.17776 23.0194C1.13518 22.9268 1.13666 22.8252 1.1161 22.7266C1.15428 22.6629 1.19243 22.6007 1.23208 22.5385C1.31138 22.4127 1.4142 22.3019 1.47588 22.1639C1.46266 22.0896 1.44504 22.0153 1.50965 21.9546C1.69322 21.8788 1.69176 21.8788 1.74169 21.806C1.88414 21.5997 2.02511 21.3919 2.17343 21.1887C2.21308 21.1356 2.21309 21.1068 2.1426 21.084C2.12057 21.0779 2.09704 21.0764 2.07355 21.0795C2.00012 21.0901 1.92669 21.1174 1.85474 21.1113C1.78278 21.1068 1.72991 21.04 1.67117 20.9991C1.61096 20.9566 1.55075 20.9126 1.49054 20.8686C1.42152 20.8732 1.35252 20.9156 1.28349 20.8474C1.23063 20.7943 1.16455 20.7564 1.10434 20.7124C1.14986 20.5971 1.23505 20.5092 1.30113 20.4075C1.36134 20.315 1.36278 20.3165 1.52432 20.2453C1.60068 20.2119 1.62712 20.0405 1.5625 19.9904C1.48467 19.9298 1.40245 19.8736 1.32315 19.816C1.25413 19.8206 1.18365 19.8615 1.11757 19.7933C1.06617 19.7417 1.00742 19.7068 0.922241 19.7265C0.778325 19.7599 0.631477 19.7766 0.486092 19.8039C0.436162 19.813 0.381811 19.8069 0.359783 19.7554C0.345097 19.719 0.387688 19.6689 0.436149 19.6583C0.509576 19.6431 0.575652 19.6249 0.612366 19.5491C0.64761 19.4732 0.712219 19.4505 0.788582 19.4399C0.809142 19.4368 0.832655 19.4186 0.842935 19.4004C0.895802 19.3125 0.954548 19.2366 1.06762 19.2397C1.11462 19.2093 1.13957 19.1714 1.12488 19.135C1.11607 19.1153 1.08525 19.0895 1.06762 19.0925C0.945736 19.1077 0.823853 19.1229 0.704902 19.1502C0.649098 19.1623 0.606487 19.1653 0.571243 19.1198C0.546278 19.0895 0.559493 19.0485 0.606486 19.0046C0.647605 18.9666 0.659366 18.9227 0.656429 18.8711C0.649086 18.7513 0.605022 18.7164 0.464043 18.724C0.362714 18.73 0.337748 18.7103 0.31572 18.6072C0.309846 18.5829 0.295186 18.5495 0.305466 18.5329C0.368613 18.4297 0.409734 18.3023 0.528685 18.2538C0.575678 18.2356 0.625588 18.2356 0.654959 18.1962C0.684329 18.1567 0.710776 18.1112 0.741615 18.0733C0.779797 18.0278 0.806205 17.9853 0.788582 17.9565C0.759212 17.905 0.712234 17.9004 0.657899 17.9186C0.610906 17.9338 0.560977 17.9353 0.512516 17.9444C0.425872 17.9611 0.355399 17.9216 0.345119 17.8549C0.317217 17.679 0.287838 17.5045 0.262873 17.3286C0.259936 17.3074 0.267258 17.28 0.279006 17.2618C0.320125 17.1981 0.364198 17.1375 0.406786 17.0753C0.456716 17.004 0.536029 17.0177 0.603582 17.004C0.699036 16.9843 0.699003 16.9858 0.826765 16.8402C0.876695 16.7826 0.963343 16.8053 1.01474 16.7537C1.0309 16.7371 1.05586 16.7098 1.05145 16.6946C1.04558 16.6749 1.01623 16.6597 0.994198 16.6506C0.973639 16.6415 0.948679 16.637 0.926651 16.6415C0.659379 16.6855 0.393582 16.7325 0.126309 16.775C0.0807849 16.7826 0.0308535 16.7492 0.0146996 16.7022C-0.00145419 16.6582 0.00293706 16.6051 0 16.555C0.0425874 16.4929 0.0910302 16.4352 0.127744 16.3685C0.155646 16.3169 0.187959 16.2942 0.243763 16.2911C0.31719 16.2866 0.389155 16.2684 0.471393 16.2547C0.62412 16.0333 0.7739 15.8012 0.938375 15.5798C1.00446 15.4903 0.988331 15.3993 1.00155 15.3037C1.01476 15.2158 1.11315 15.2294 1.17923 15.2037C1.2321 15.1824 1.2497 15.1339 1.22914 15.1005C1.21739 15.0808 1.19097 15.058 1.17041 15.058C1.12195 15.058 1.07349 15.0717 1.02503 15.0793C0.97657 15.0869 0.920769 15.0823 0.881118 15.1081C0.842936 15.1324 0.817957 15.1839 0.792992 15.2279C0.76509 15.2764 0.728403 15.2931 0.672598 15.2962C0.60064 15.2992 0.528687 15.3128 0.456729 15.3235C0.377428 15.2643 0.295173 15.2067 0.21881 15.1445C0.204124 15.1324 0.201171 15.0975 0.20264 15.0747C0.205577 15.0156 0.183555 14.9792 0.135093 14.9504C0.0939745 14.9261 0.0601954 14.8912 0.0220136 14.8609C0.0513842 14.8199 0.0837034 14.7805 0.1072 14.7365C0.158598 14.644 0.223221 14.5773 0.334829 14.5803C0.378885 14.5211 0.41412 14.4483 0.471393 14.4074C0.525728 14.3679 0.61825 14.4074 0.659369 14.3179C0.679928 14.2739 0.710784 14.2238 0.750435 14.2056C0.813582 14.1768 0.895818 14.192 0.932531 14.1071C0.954559 14.0585 0.986854 14.0145 1.02944 14.0024C1.0779 13.9888 1.12782 13.9857 1.16306 13.9569C1.18216 13.9417 1.20272 13.9175 1.20272 13.8962C1.20272 13.8826 1.17337 13.8613 1.15281 13.8522C1.13372 13.8416 1.10873 13.8341 1.0867 13.8371C1.01327 13.8462 0.941315 13.8629 0.867889 13.872C0.847329 13.875 0.82384 13.8644 0.801812 13.8553C0.737197 13.831 0.741594 13.8007 0.792992 13.7461C0.844391 13.693 0.881124 13.6247 0.923711 13.5625C0.970704 13.5519 1.02944 13.5565 1.06174 13.5277C1.11608 13.4806 1.15425 13.4124 1.19831 13.3532C1.24677 13.3441 1.2967 13.3411 1.34222 13.3244C1.36131 13.3184 1.37013 13.285 1.38628 13.2653C1.41565 13.2274 1.44064 13.1728 1.48029 13.1546C1.54491 13.1273 1.6242 13.1379 1.66239 13.0544C1.68441 13.0059 1.71818 12.9544 1.7593 12.9513C1.87384 12.9453 1.9223 12.8618 1.98105 12.7829C2.0251 12.7238 2.11909 12.7541 2.16755 12.695C2.19986 12.6571 2.22337 12.61 2.25568 12.5736C2.2689 12.5585 2.29679 12.5509 2.31882 12.5463C2.43923 12.5236 2.56112 12.5069 2.68154 12.4826C2.70063 12.4781 2.71827 12.4553 2.73295 12.4371C2.76379 12.3977 2.78286 12.3431 2.82104 12.3173C2.85922 12.2915 2.91355 12.2915 2.96054 12.284C3.1118 12.2612 3.12356 12.2673 3.19258 12.1383C3.24839 12.0337 3.38498 12.108 3.4305 11.9927C3.45694 11.926 3.50538 11.8714 3.59202 11.8638C3.71391 11.8532 3.83432 11.8244 3.95621 11.8047C4.06488 11.7865 4.06342 11.7865 4.1809 11.6454C4.23377 11.5817 4.31162 11.5908 4.38064 11.5787C4.45406 11.5665 4.52161 11.5483 4.55685 11.4725C4.5921 11.3982 4.65671 11.3739 4.7316 11.3633C4.80062 11.3527 4.87847 11.3603 4.93281 11.2996C5.06497 11.154 5.06351 11.1525 5.15603 11.1373C5.30141 11.113 5.44679 11.0888 5.59218 11.063C5.6891 11.0463 5.79042 11.0433 5.88147 11.0099C5.94756 10.9856 5.97692 10.9007 6.01951 10.8415C6.13992 10.8188 6.26034 10.796 6.38076 10.7748C6.54964 10.7445 6.71998 10.7172 6.89033 10.6884C6.96376 10.6307 6.97406 10.5033 7.09742 10.4972C7.17085 10.4942 7.2428 10.4745 7.31623 10.4624C7.43812 10.4411 7.55853 10.4138 7.68042 10.4032C7.77294 10.3956 7.78907 10.3137 7.83753 10.2621C7.85368 10.2439 7.86838 10.2182 7.88747 10.2136C8.07838 10.1712 8.27515 10.1621 8.46165 10.0999C8.48074 10.0938 8.49837 10.0619 8.50278 10.0392C8.50571 10.0271 8.48075 10.0043 8.46459 9.9937C8.4455 9.98157 8.42055 9.96943 8.39999 9.97247C7.79348 10.0741 7.187 10.1772 6.58049 10.2788C6.49532 10.294 6.49532 10.2925 6.28826 10.4593C6.27064 10.473 6.25005 10.4881 6.22802 10.4927C6.1311 10.5109 6.03271 10.5215 5.93726 10.5443C5.85943 10.5625 5.79483 10.5443 5.73903 10.4897C5.69938 10.4502 5.65824 10.4381 5.60831 10.4411C5.55251 10.4457 5.51581 10.4624 5.48351 10.5033C5.44092 10.5594 5.41888 10.6322 5.3293 10.6474C4.91665 10.7126 4.50396 10.7854 4.09278 10.8552C4.0355 10.834 4.0076 10.8021 4.02229 10.7642C4.0311 10.7414 4.04873 10.7111 4.06635 10.7081C4.23523 10.6762 4.40558 10.6489 4.57446 10.6186C4.59795 10.614 4.63026 10.6171 4.64347 10.6019C4.70809 10.5336 4.73161 10.4229 4.8535 10.4153C4.92399 10.4108 4.99594 10.388 5.06349 10.3668C5.08258 10.3607 5.10021 10.3289 5.10461 10.3061C5.10608 10.294 5.08258 10.2712 5.06496 10.2606C5.00034 10.2166 4.92547 10.2697 4.86085 10.2394C4.83882 10.2288 4.80796 10.2136 4.80356 10.1954C4.80062 10.1787 4.82559 10.1514 4.84321 10.1347C4.85936 10.1196 4.88138 10.1059 4.90341 10.1014C5.09725 10.0665 5.29113 10.0301 5.48498 10.0028C5.56428 9.99218 5.62007 9.95426 5.65531 9.88449C5.68175 9.83292 5.71405 9.80562 5.76398 9.79804C6.10321 9.74192 6.44243 9.67974 6.78313 9.62817C6.86831 9.61603 6.91238 9.56599 6.94763 9.50077C6.97553 9.4492 7.00784 9.431 7.06218 9.4219C7.54826 9.34303 8.03139 9.25506 8.51748 9.17922C8.60706 9.16557 8.6335 9.10035 8.67903 9.04423C8.69518 9.02451 8.70544 9.00025 8.726 8.98811C8.74656 8.97598 8.77299 8.97748 8.79795 8.97445C9.18565 8.90923 9.57336 8.83947 9.96252 8.7788C10.0536 8.76515 10.0712 8.68931 10.1182 8.63622C10.1343 8.61954 10.149 8.59225 10.1681 8.5877C10.4589 8.53613 10.7496 8.48759 11.0404 8.43754C11.2342 8.40417 11.4281 8.3708 11.6219 8.33895C11.7174 8.32378 11.7174 8.32226 11.8466 8.17817C11.8613 8.16148 11.8819 8.14176 11.901 8.13721C12.459 8.04014 13.0156 7.94764 13.5736 7.85209C13.6206 7.8445 13.6544 7.8096 13.6779 7.75803C13.7014 7.70646 13.7352 7.67158 13.7807 7.664C14.2169 7.58816 14.653 7.51385 15.0906 7.44256C15.1699 7.43043 15.2257 7.39402 15.261 7.32577C15.2874 7.2742 15.3197 7.24691 15.3696 7.23932C15.8058 7.16652 16.242 7.08916 16.6796 7.01939C16.7633 7.00574 16.8044 6.95417 16.8455 6.89351C16.8602 6.87227 16.8719 6.83738 16.8896 6.83435C17.1069 6.79188 17.3228 6.7479 17.5416 6.71908C17.6326 6.70694 17.6635 6.64324 17.7002 6.58257C17.7296 6.53403 17.7634 6.51735 17.8192 6.51129C17.941 6.49764 18.0615 6.47186 18.1804 6.44608C18.198 6.44153 18.2201 6.40816 18.2215 6.38692C18.2245 6.34749 18.1907 6.32018 18.1349 6.30653C17.5533 6.40512 16.9704 6.5037 16.3888 6.60229C16.2934 6.61897 16.2934 6.61898 16.1641 6.76307C16.1494 6.77975 16.1289 6.79947 16.1083 6.80402C15.5503 6.89958 14.9937 6.99361 14.4357 7.08917C14.3887 7.09675 14.3549 7.13164 14.3314 7.18321C14.3079 7.23477 14.2741 7.26966 14.2286 7.27724C13.6955 7.36824 13.1624 7.46077 12.6279 7.54722C12.5486 7.55936 12.4928 7.59423 12.4576 7.664C12.4311 7.71556 12.3988 7.74288 12.3489 7.75046C11.8393 7.8354 11.3312 7.92487 10.8201 8.00678C10.7687 8.01436 10.7306 7.97037 10.7335 7.92942C10.735 7.90819 10.757 7.87332 10.7746 7.87029C11.0404 7.82023 11.3048 7.76866 11.572 7.73074C11.6616 7.71861 11.688 7.65187 11.7335 7.59575C11.7482 7.57603 11.76 7.55025 11.7791 7.53963C11.7996 7.5275 11.8261 7.52902 11.851 7.52599C12.481 7.4183 13.1111 7.3091 13.7425 7.20748C13.8336 7.19231 13.8512 7.11798 13.8982 7.0649C13.9143 7.0467 13.929 7.0194 13.9481 7.01637C14.1419 6.97997 14.3358 6.94811 14.5296 6.91626C14.8689 6.85862 15.2081 6.80099 15.5488 6.74335C15.6472 6.72667 15.6472 6.72666 15.7735 6.58409C15.7882 6.5674 15.8087 6.54618 15.8278 6.54315C16.7251 6.38996 17.6224 6.23677 18.5197 6.0851C18.5666 6.07751 18.6004 6.04263 18.6239 5.99106C18.6474 5.94101 18.6812 5.90461 18.7267 5.89551C19.9397 5.68923 21.1512 5.48295 22.3643 5.27971C22.4436 5.26605 22.4993 5.2342 22.5346 5.16291C22.5596 5.11135 22.5933 5.08405 22.6433 5.07495C23.9767 4.84896 25.3101 4.62297 26.645 4.39546C27.5423 4.24379 28.4396 4.08908 29.3368 3.94044C29.4191 3.92679 29.4631 3.87976 29.5042 3.81758C29.5174 3.79634 29.5307 3.76146 29.5483 3.75842C29.7407 3.72051 29.933 3.68563 30.1254 3.65074C30.1856 3.69169 30.2458 3.73114 30.306 3.77209C30.3516 3.71445 30.3956 3.6553 30.4412 3.59766C30.7319 3.55368 31.0183 3.48542 31.312 3.46419C31.3311 3.46267 31.3516 3.49149 31.3722 3.50666C31.5088 3.60221 31.5866 3.59463 31.6733 3.46722C31.7041 3.42172 31.7305 3.38077 31.7775 3.37319C31.9229 3.34589 32.0698 3.32768 32.2137 3.29583C32.2915 3.27915 32.3561 3.29431 32.4119 3.34891C32.4516 3.38835 32.4927 3.40504 32.5412 3.39594C32.8085 3.35044 33.0742 3.30645 33.3415 3.25792C33.3606 3.25488 33.3782 3.22909 33.3929 3.21089C33.4237 3.17145 33.4502 3.12899 33.4796 3.08804C33.5192 3.11383 33.5633 3.13355 33.5956 3.16691C33.6367 3.20635 33.6749 3.20634 33.7307 3.19572C34.7968 3.0122 35.8644 2.83323 36.9306 2.64819C37.0216 2.63302 37.0613 2.69673 37.123 2.7301C37.1435 2.74223 37.1641 2.75739 37.1861 2.76042C37.2096 2.76346 37.2346 2.75437 37.2581 2.74982C38.0584 2.61331 38.8588 2.47831 39.6591 2.34181C39.7649 2.32361 39.7649 2.32361 39.922 2.41764C39.9411 2.42978 39.9661 2.44343 39.9866 2.43888C40.3508 2.37973 40.715 2.31603 41.0777 2.25536C41.1247 2.24778 41.1644 2.27204 41.207 2.30692C41.2907 2.37518 41.2965 2.37518 41.3582 2.27508C41.3876 2.22806 41.4184 2.19923 41.4669 2.18558C41.5197 2.17041 41.5624 2.17498 41.6035 2.20228C41.6622 2.2402 41.7048 2.30389 41.7944 2.28721C42.1821 2.21592 42.5712 2.15677 42.9575 2.08397C43.0456 2.06729 43.0926 2.11885 43.1513 2.15677C43.1719 2.17042 43.1909 2.19166 43.213 2.19621C43.235 2.20076 43.2614 2.19013 43.2849 2.18558C43.7696 2.10368 44.2556 2.0233 44.7388 1.93533C44.8298 1.91865 44.8695 1.98386 44.9312 2.01722C44.9517 2.02936 44.9752 2.0506 44.9943 2.04757C45.2851 2.00055 45.5773 1.95049 45.8681 1.90043C45.9724 1.88223 45.9723 1.88375 46.1309 1.97627C46.15 1.9884 46.175 2.00054 46.1956 1.99751C46.5348 1.94139 46.8755 1.88375 47.2147 1.82612C47.319 1.80791 47.319 1.80792 47.62 1.88679C47.6421 1.89285 47.6656 1.90197 47.6876 1.89893C48.0753 1.83371 48.4644 1.77 48.8521 1.70023C48.93 1.68658 48.9946 1.69871 49.0504 1.75332C49.09 1.79275 49.1311 1.80944 49.1796 1.80034C49.6158 1.72602 50.0534 1.65474 50.4881 1.57587C50.5718 1.5607 50.6261 1.59406 50.6848 1.63804C50.7039 1.65321 50.723 1.67445 50.7451 1.68052C50.7671 1.68658 50.7921 1.68051 50.8156 1.67596C51.2517 1.60164 51.6893 1.53187 52.124 1.45149C52.2121 1.4348 52.2591 1.48637 52.3179 1.52429C52.3384 1.53794 52.3604 1.56524 52.3781 1.56372C52.5484 1.53794 52.7188 1.5152 52.8876 1.47728C52.9787 1.45604 53.0183 1.5258 53.08 1.55917C53.1006 1.56979 53.1241 1.59255 53.1432 1.58952C53.5074 1.53036 53.8716 1.46818 54.2343 1.40448C54.2857 1.39538 54.3239 1.40902 54.365 1.44845C54.4193 1.50154 54.4825 1.52277 54.5618 1.50609C54.7307 1.4712 54.901 1.44694 55.0714 1.41812C55.1712 1.40144 55.1712 1.40145 55.4767 1.48032C55.4987 1.48638 55.5222 1.49548 55.5442 1.49244C55.835 1.44391 56.1272 1.39689 56.4165 1.34381C56.4944 1.32864 56.559 1.34229 56.6148 1.39689C56.6544 1.43632 56.6941 1.45302 56.744 1.44392C57.0113 1.39841 57.2771 1.35291 57.5444 1.30741C57.6413 1.29072 57.7382 1.2619 57.8351 1.2619C57.9056 1.26341 57.957 1.33621 58.0202 1.37262C58.0378 1.38323 58.0672 1.37111 58.0907 1.36808C58.4299 1.31044 58.7706 1.25735 59.1083 1.19213C59.1965 1.17545 59.2435 1.22702 59.3022 1.26493C59.3228 1.27858 59.3448 1.30589 59.3624 1.30437C59.4843 1.28769 59.6047 1.26493 59.7266 1.24522C59.872 1.22095 60.0188 1.20275 60.1627 1.16938C60.2802 1.14208 60.3243 1.27403 60.4183 1.27858C60.4902 1.28313 60.5636 1.25735 60.6356 1.24522C60.781 1.22095 60.9264 1.19365 61.0718 1.17242C61.1232 1.16483 61.1628 1.14055 61.179 1.08595C61.1819 1.07533 61.157 1.05259 61.1408 1.03894C60.9455 0.884237 60.9455 0.884229 60.7487 0.917597C60.6268 0.938831 60.5064 0.960069 60.3845 0.97827C60.3639 0.981303 60.3404 0.96917 60.3199 0.96007C60.2611 0.934286 60.267 0.903954 60.3169 0.849352C60.3669 0.79475 60.405 0.72802 60.4476 0.665834C60.5078 0.705269 60.5666 0.74469 60.6268 0.784124C60.6753 0.776541 60.7237 0.767454 60.7722 0.75987C61.0145 0.720435 61.2568 0.679481 61.4991 0.643079C61.5167 0.640046 61.5388 0.670385 61.5593 0.685552C61.6181 0.729537 61.6709 0.767445 61.7561 0.750761C61.9735 0.706776 62.1923 0.674925 62.4096 0.637006C62.5051 0.620322 62.5051 0.620324 62.6725 0.714361C62.6916 0.724978 62.7165 0.737113 62.7371 0.734079C62.9559 0.699194 63.1732 0.661281 63.392 0.624879C63.439 0.617296 63.4846 0.637012 63.5184 0.680997C63.5316 0.699198 63.5286 0.729527 63.5844 0.97827C63.7577 1.17999 63.8767 1.15877 63.9971 1.14057C64.0485 1.13299 64.094 1.1254 64.1278 1.09506C64.1454 1.07838 64.1674 1.05411 64.1674 1.03439C64.1674 1.01922 64.1351 0.994949 64.1146 0.991915C63.9692 0.961581 63.8311 1.02529 63.6887 1.03894C63.6226 1.04501 63.5653 0.991923 63.5536 0.90547C63.5507 0.881202 63.5462 0.855419 63.5418 0.831152C63.5374 0.806884 63.5345 0.781101 63.5301 0.756834C63.4728 0.74925 63.4391 0.776547 63.4141 0.828115C63.3935 0.870584 63.3641 0.919119 63.3245 0.94187C63.2848 0.966138 63.2305 0.961596 63.1821 0.969179C63.1351 0.976763 63.0837 0.996478 63.0396 0.985861C62.9956 0.973727 62.9603 0.929735 62.9192 0.902434C62.9001 0.888783 62.8766 0.869073 62.8575 0.872106C62.6886 0.897891 62.5212 0.923666 62.3538 0.957034C62.2657 0.975234 62.2216 0.911541 62.1658 0.872106C62.1218 0.841772 62.0777 0.849346 62.0704 0.919115C62.0513 1.08596 62.1188 1.15572 62.2686 1.12387C62.392 1.09657 62.5036 1.09203 62.6005 1.19517C62.6137 1.20882 62.6446 1.21489 62.6637 1.21185C62.7841 1.19365 62.903 1.1709 63.0234 1.1527C63.0455 1.14966 63.069 1.15572 63.0896 1.16179C63.3891 1.24369 63.3891 1.24522 63.4905 1.22702C63.5389 1.21791 63.5859 1.21033 63.5815 0.979788C63.674 0.732562 63.8209 0.715881 63.9633 0.679479C64.0558 0.656728 64.0955 0.723467 64.1557 0.758352C64.1762 0.770486 64.1983 0.794749 64.2174 0.791715C64.5331 0.741663 64.8474 0.688571 65.1616 0.632452C65.2145 0.623351 65.2527 0.632453 65.2938 0.671888C65.3466 0.72194 65.4054 0.753798 65.4891 0.735597C65.6565 0.699196 65.8269 0.67645 65.9972 0.646116C66.0839 0.630948 66.0839 0.630933 66.2586 0.72497C66.2777 0.735587 66.3027 0.747721 66.3232 0.744688C66.4936 0.718904 66.6625 0.687062 66.8314 0.659761C66.8784 0.652177 66.9209 0.673409 66.9576 0.714361C66.9944 0.755313 67.0384 0.776544 67.0839 0.768961C67.2543 0.74166 67.4232 0.711335 67.5921 0.684034C67.6126 0.681 67.6376 0.691617 67.6567 0.702234C67.8358 0.796271 67.8358 0.796255 67.9181 0.781088C68.0385 0.758337 68.1618 0.747732 68.2808 0.717397C68.3968 0.687063 68.457 0.775026 68.5363 0.823561C68.7537 0.788676 68.9725 0.759866 69.1883 0.717397C69.2764 0.699197 69.3234 0.749244 69.3822 0.788679C69.4027 0.80233 69.4233 0.83115 69.4424 0.829634C69.5158 0.823567 69.5878 0.806886 69.6598 0.794752C69.7317 0.782618 69.8051 0.770486 69.8771 0.758352C69.9593 0.802337 70.0137 0.905473 70.1311 0.870588C70.2016 0.849354 70.2765 0.844804 70.3485 0.83267C70.4204 0.820536 70.4939 0.808404 70.5658 0.79627C70.6143 0.788686 70.6642 0.78413 70.7112 0.770479C70.7979 0.747728 70.8404 0.822057 70.9021 0.855425C70.9227 0.866042 70.9462 0.884231 70.9653 0.881197C71.1106 0.859963 71.2575 0.841764 71.3999 0.806879C71.5101 0.779578 71.585 0.825086 71.6628 0.888788C71.679 0.902439 71.7069 0.910022 71.7274 0.906988C71.8978 0.881204 72.0667 0.849344 72.2355 0.822043C72.2811 0.814459 72.3251 0.838726 72.3618 0.878161C72.4 0.919112 72.4426 0.938845 72.4896 0.931261C72.6585 0.90396 72.8288 0.873616 72.9977 0.846315C73.0183 0.843282 73.0432 0.855418 73.0623 0.867552C73.2268 0.961589 73.2268 0.963107 73.3237 0.944906C73.3472 0.940356 73.3722 0.937311 73.3957 0.932761C73.5161 0.911527 73.6409 0.903953 73.7584 0.867552C73.8935 0.8266 73.9919 0.878171 74.0874 0.964625C74.2078 0.946424 74.3311 0.935805 74.4486 0.90547C74.5367 0.882719 74.5837 0.940352 74.6425 0.97827C74.663 0.99192 74.685 1.01922 74.7027 1.01619C74.873 0.990404 75.0434 0.967661 75.2108 0.929743C75.3018 0.908509 75.3415 0.976749 75.4032 1.01163C75.4237 1.02377 75.4457 1.04501 75.4648 1.04198C75.5617 1.02985 75.6587 1.01164 75.7556 0.994952C75.8687 0.975234 75.8687 0.976749 76.0185 1.06927C76.089 1.11325 76.1595 1.07837 76.2285 1.06775C76.3019 1.05562 76.3709 1.04652 76.4297 1.10871C76.4664 1.14814 76.5104 1.17241 76.556 1.16634C76.6529 1.15269 76.7513 1.13905 76.8467 1.1163C76.9231 1.0981 76.9892 1.11022 77.045 1.16634C77.0846 1.20578 77.1258 1.22551 77.1742 1.21641C77.3916 1.18 77.6104 1.14207 77.8277 1.10719C77.8468 1.10415 77.8732 1.11781 77.8908 1.13146C77.932 1.15876 77.9716 1.18909 78.0113 1.21942C78.1067 1.20577 78.2051 1.19972 78.2991 1.17849C78.399 1.15725 78.49 1.14967 78.5678 1.23309C78.584 1.25129 78.6075 1.27706 78.6266 1.27554C78.7 1.26948 78.772 1.25431 78.8439 1.24218C78.9159 1.23005 78.9893 1.21791 79.0613 1.20578C79.145 1.2437 79.1979 1.3529 79.3153 1.31802C79.3858 1.29678 79.4607 1.29223 79.5327 1.2801C79.6046 1.26796 79.6781 1.25431 79.75 1.2437C79.7735 1.24066 79.7999 1.23308 79.8205 1.23914C79.8425 1.24521 79.8616 1.26645 79.8807 1.28162C79.9394 1.3256 79.9938 1.36959 80.0775 1.34381C80.148 1.32257 80.2229 1.31802 80.2948 1.30437C80.3932 1.28769 80.3932 1.28769 80.5562 1.38324C80.6223 1.42268 80.6972 1.37111 80.7604 1.40448C80.8029 1.42723 80.8397 1.46514 80.8808 1.49092C80.8984 1.50154 80.9263 1.50608 80.9469 1.50305C81.0438 1.4894 81.1422 1.47576 81.2376 1.45301C81.3155 1.43481 81.3801 1.453 81.4344 1.50761C81.4741 1.54704 81.5137 1.56373 81.5636 1.55463C81.8059 1.51217 82.0483 1.47575 82.2891 1.42873C82.3714 1.41205 82.4374 1.43784 82.4829 1.49244C82.5608 1.58648 82.6709 1.47576 82.7517 1.5516C82.8016 1.59862 82.8516 1.65322 82.9426 1.63047C83.11 1.59104 83.2804 1.56979 83.4492 1.54249C83.5095 1.58344 83.5697 1.6244 83.6313 1.66535C83.7283 1.64867 83.8252 1.63197 83.9221 1.61681C83.9941 1.60467 84.0675 1.59102 84.1394 1.58041C84.1629 1.57737 84.1879 1.5713 84.2099 1.57889C84.232 1.58647 84.2496 1.60619 84.2702 1.62136C84.3715 1.69568 84.3715 1.6972 84.5389 1.66687C84.6108 1.65322 84.6799 1.64412 84.7401 1.70479C84.7959 1.76091 84.862 1.77152 84.9383 1.75483C85.0822 1.7245 85.2276 1.70175 85.3745 1.68052C85.42 1.67293 85.4626 1.69872 85.5008 1.73815C85.558 1.80034 85.6286 1.79427 85.7005 1.77759C85.796 1.75635 85.8899 1.73512 85.9707 1.82006C85.9869 1.83826 86.0118 1.86403 86.0295 1.86252C86.1499 1.85038 86.2718 1.84129 86.3892 1.81247C86.5067 1.78365 86.564 1.87769 86.6448 1.92319C86.7652 1.90347 86.8871 1.88375 87.0075 1.86403C87.031 1.85948 87.0589 1.84584 87.0794 1.85342C87.1661 1.88528 87.216 1.99903 87.335 1.96414C87.404 1.94442 87.4789 1.93837 87.5508 1.93382C87.5699 1.9323 87.5949 1.95807 87.6081 1.97779C87.6155 1.9884 87.6081 2.01722 87.5993 2.03239C87.5729 2.07486 87.5406 2.1143 87.5171 2.15829C87.5141 2.16435 87.542 2.19164 87.5582 2.20378C87.5978 2.23108 87.6434 2.22654 87.6962 2.21441C87.7417 2.20379 87.7887 2.22502 87.8211 2.27052C87.8343 2.28872 87.8299 2.31906 87.8019 2.41916C87.8019 2.49348 87.8328 2.4601 87.8431 2.41157C87.8592 2.3418 87.8284 2.31905 87.7696 2.35697C87.7285 2.38427 87.708 2.42371 87.7183 2.45556C87.7241 2.47224 87.752 2.49348 87.8019 2.41916C87.9312 2.32816 88.0281 2.31148 88.1251 2.2948C88.15 2.29025 88.1794 2.27507 88.197 2.28417C88.2602 2.32057 88.3189 2.36456 88.3806 2.40552C88.4511 2.39641 88.5171 2.37365 88.5862 2.43281C88.6831 2.51623 88.6875 2.50864 88.7815 2.49196C88.8299 2.48286 88.8784 2.47529 88.9269 2.46771C88.9753 2.46012 89.0135 2.48287 89.0561 2.51775C89.1427 2.58904 89.1501 2.58903 89.2073 2.49196C89.2411 2.43281 89.2646 2.4131 89.3072 2.4404C89.4482 2.53292 89.4496 2.53898 89.5701 2.51168C89.6699 2.48893 89.7639 2.48286 89.8373 2.56931C89.8873 2.62998 89.9034 2.61634 89.9431 2.55263C90.0488 2.38428 90.0973 2.3873 90.2955 2.50864C90.388 2.56628 90.4835 2.5041 90.5775 2.49652C90.6568 2.49045 90.7126 2.52684 90.7185 2.6224C90.7229 2.68155 90.7361 2.72402 90.789 2.74374C90.8095 2.75133 90.8345 2.76194 90.855 2.75891C90.9769 2.74071 91.0973 2.71947 91.2192 2.69823C91.2809 2.68762 91.3147 2.61634 91.3029 2.52231C91.2897 2.4222 91.3132 2.38579 91.4013 2.35697C91.4542 2.34029 91.4968 2.34333 91.5394 2.37063C91.5864 2.40097 91.5732 2.42827 91.532 2.48287C91.4336 2.61634 91.4454 2.69823 91.5717 2.79075C91.6157 2.8226 91.651 2.85143 91.6613 2.89845C91.6671 2.92272 91.6613 2.95457 91.6745 2.97277C91.7464 3.07439 91.8463 3.13962 91.9579 3.18815C92.0651 3.1472 92.1385 3.21544 92.2208 3.27004C92.2854 3.31251 92.3617 3.27612 92.4308 3.26095C92.5086 3.24427 92.5732 3.2564 92.629 3.31251C92.6687 3.35195 92.7098 3.37014 92.7582 3.36256C92.8552 3.34588 92.9536 3.33526 93.049 3.311C93.1312 3.28976 93.1929 3.3201 93.2443 3.37167C93.309 3.43689 93.3809 3.3929 93.4485 3.402C93.5395 3.41261 93.5851 3.5476 93.704 3.5112C93.7745 3.48996 93.8479 3.48238 93.9213 3.47631C93.9404 3.4748 93.9639 3.50059 93.9801 3.51879C94.0579 3.60221 94.149 3.59766 94.2488 3.57339C94.3178 3.5567 94.3854 3.54154 94.4529 3.59918C94.5645 3.69625 94.6879 3.78119 94.8054 3.87068C94.8216 3.94045 94.8098 4.02234 94.8935 4.06329C94.9375 4.08452 94.9787 4.11638 95.0125 4.15127C95.0536 4.19222 95.0917 4.20284 95.1446 4.19222C95.2401 4.17099 95.34 4.16642 95.4339 4.13912C95.5206 4.11486 95.5749 4.16492 95.6278 4.21194C95.6703 4.24986 95.71 4.26805 95.7614 4.24075C95.8143 4.21497 95.8524 4.23164 95.895 4.2726C95.9552 4.32872 95.9597 4.32266 96.1594 4.33934C96.1799 4.34086 96.2049 4.3636 96.2166 4.38331C96.2225 4.39393 96.2093 4.42428 96.199 4.43945C96.1858 4.45765 96.1652 4.47887 96.1461 4.48342C95.9288 4.52286 95.71 4.55774 95.4927 4.59718C95.4706 4.60173 95.4472 4.61236 95.431 4.62752C95.4134 4.64421 95.3913 4.66694 95.3913 4.68818C95.3913 4.70335 95.4207 4.72155 95.4412 4.73217C95.5059 4.76705 95.5822 4.71397 95.6454 4.75341C95.688 4.77919 95.7232 4.81558 95.7658 4.83985C95.7834 4.85047 95.8113 4.84896 95.8334 4.84592C95.9068 4.83531 95.9788 4.82014 96.0522 4.81104C96.0727 4.80953 96.0962 4.8247 96.1153 4.83683C96.2563 4.92784 96.2563 4.92783 96.3782 4.90811C96.4267 4.90053 96.4781 4.87778 96.5236 4.88688C96.5676 4.89598 96.6058 4.93693 96.6455 4.96271C96.7277 5.01732 96.8055 5.0704 96.8114 5.18871C96.8143 5.23421 96.8628 5.27364 96.9112 5.27667C96.9582 5.2797 97.0082 5.26303 97.0566 5.25393C97.1712 5.23573 97.1712 5.23573 97.3195 5.32825C97.3606 5.35404 97.4047 5.35706 97.4575 5.3419C97.4781 5.33583 97.5031 5.3419 97.5251 5.34949C97.5971 5.37224 97.5971 5.40105 97.5501 5.45565C97.484 5.53604 97.4898 5.54363 97.6749 5.61188C97.7454 5.63766 97.7997 5.6862 97.8584 5.72867C97.9539 5.79692 97.9525 5.79691 97.8893 5.8864C97.8746 5.90611 97.8614 5.92735 97.8467 5.94859C97.8041 6.00774 97.7703 6.07144 97.6822 6.07751C97.5853 6.08357 97.4884 6.10785 97.3915 6.12453C97.2975 6.14122 97.2725 6.1776 97.2813 6.28074C97.2916 6.40511 97.3107 6.41877 97.4796 6.41725C97.5281 6.41725 97.5706 6.42938 97.6073 6.47033C97.5897 6.51887 97.5574 6.55679 97.5104 6.56589C97.39 6.58864 97.2681 6.60836 97.1477 6.62808C97.0508 6.64476 96.9539 6.66144 96.8569 6.67812C96.7967 6.68874 96.7585 6.76762 96.7747 6.85559C96.7835 6.90564 96.7908 6.95569 96.7982 7.00574C96.8143 7.10584 96.8452 7.13164 96.9436 7.12709C96.9685 7.12557 96.992 7.11343 97.0155 7.11646C97.111 7.12708 97.1565 7.25296 97.271 7.22718C97.3665 7.20594 97.4664 7.2014 97.5604 7.1741C97.647 7.14983 97.6954 7.20444 97.7557 7.2454C97.7762 7.25905 97.7983 7.28785 97.8159 7.28633C97.9378 7.26965 98.0597 7.25298 98.1786 7.22416C98.2344 7.21203 98.2682 7.22112 98.3122 7.25752C98.418 7.34549 98.4209 7.34094 98.578 7.31364C98.6926 7.29241 98.6941 7.29544 98.8409 7.38796C98.882 7.41374 98.9261 7.41374 98.979 7.4016C99.048 7.38644 99.1199 7.36217 99.1919 7.38492C99.2139 7.39099 99.2418 7.4092 99.2492 7.42891C99.2536 7.44256 99.233 7.47593 99.2154 7.48655C99.0862 7.56542 98.9349 7.55177 98.7939 7.58362C98.7499 7.59272 98.7058 7.5639 98.6691 7.52295C98.6309 7.482 98.5898 7.46532 98.5399 7.47291C98.4429 7.48959 98.3446 7.5002 98.2491 7.52447C98.1669 7.5457 98.1096 7.51081 98.0523 7.4638C98.0332 7.44863 98.0112 7.41981 97.9921 7.42132C97.7748 7.45166 97.556 7.482 97.3401 7.52447C97.2534 7.54267 97.2035 7.49414 97.1448 7.45319C97.1242 7.43954 97.1037 7.41072 97.0846 7.41223C97.0111 7.4183 96.9392 7.43498 96.8658 7.44711C96.5985 7.49262 96.3326 7.53812 96.0654 7.58059C96.0478 7.58362 96.0257 7.55176 96.0052 7.53811C95.9655 7.51081 95.9244 7.48503 95.8833 7.45924C95.8099 7.47137 95.7379 7.48654 95.6645 7.49564C95.6116 7.50171 95.5646 7.52295 95.5573 7.58059C95.5529 7.61851 95.6013 7.65338 95.6527 7.65035C95.7027 7.64732 95.7526 7.62911 95.7937 7.64883C95.9978 7.7459 95.9978 7.74742 96.1256 7.7277C96.2372 7.7095 96.2254 7.69433 96.3238 7.77775C96.3664 7.81415 96.4046 7.8354 96.4531 7.8263C96.5735 7.80506 96.6954 7.78382 96.8173 7.76562C96.8364 7.76259 96.8613 7.77776 96.8804 7.7899C97.0243 7.8809 97.0243 7.88393 97.1433 7.86118C97.299 7.83388 97.3048 7.82629 97.4091 7.91881C97.4811 7.98252 97.5471 7.93853 97.6161 7.9355C97.6954 7.99465 97.7821 8.04774 97.8541 8.11448C97.9392 8.19335 98.0288 8.17968 98.1257 8.15693C98.1977 8.14025 98.2682 8.13418 98.3269 8.19637C98.3827 8.254 98.4503 8.26008 98.5266 8.24491C98.5957 8.23126 98.6662 8.20244 98.7381 8.2358C98.7572 8.2449 98.7866 8.26766 98.7851 8.28131C98.7836 8.30255 98.7645 8.33289 98.7454 8.34199C98.6103 8.40417 98.462 8.40265 98.3196 8.43147C98.3005 8.43602 98.2755 8.41933 98.2564 8.4072C98.2153 8.37989 98.1757 8.34805 98.136 8.31923C98.0641 8.32833 97.9906 8.33136 97.9202 8.34956C97.8658 8.36321 97.8247 8.36171 97.785 8.3253C97.7483 8.29194 97.7087 8.25098 97.6646 8.24036C97.6206 8.22974 97.5692 8.2525 97.5207 8.2616C97.4723 8.2707 97.4165 8.26614 97.3783 8.2904C97.3401 8.31467 97.3166 8.36776 97.2916 8.41023C97.2637 8.45725 97.2255 8.47243 97.1697 8.47698C97.1183 8.48153 97.0772 8.47545 97.039 8.43299C97.0229 8.41479 97.0008 8.40113 96.9788 8.389C96.9582 8.37838 96.9348 8.36169 96.9157 8.36472C96.6968 8.39961 96.4795 8.43754 96.2607 8.47394C96.152 8.49214 96.1535 8.49213 95.9273 8.40264C95.9068 8.39506 95.8818 8.38444 95.8613 8.38748C95.7394 8.40568 95.619 8.42692 95.4971 8.44815C95.3737 8.46938 95.3752 8.46635 95.1652 8.3708C95.127 8.35259 95.0712 8.37687 95.0257 8.37383C94.9302 8.36625 94.8832 8.23885 94.7716 8.26311C94.6762 8.28435 94.5763 8.28889 94.4808 8.3162C94.3942 8.34046 94.3443 8.28738 94.2855 8.24643C94.265 8.23278 94.2429 8.20244 94.2253 8.20548C94.0065 8.23885 93.7892 8.27676 93.4984 8.28131C93.4264 8.28131 93.4587 8.31317 93.5057 8.32379C93.5733 8.34047 93.5953 8.30862 93.5586 8.24795C93.5322 8.20548 93.494 8.18423 93.4631 8.19485C93.447 8.20092 93.4264 8.22974 93.4984 8.28131C93.5748 8.33895 93.5704 8.37079 93.5836 8.389C93.6159 8.43298 93.6614 8.45118 93.7084 8.44511C93.7818 8.4345 93.8538 8.41933 93.9272 8.41023C93.9478 8.4072 93.9727 8.41782 93.9918 8.42995C94.1534 8.52399 94.1548 8.53006 94.3267 8.49366C94.381 8.48304 94.4206 8.48304 94.4632 8.51186C94.522 8.55129 94.5646 8.61802 94.6541 8.59679C94.7731 8.56797 94.895 8.5513 95.0169 8.53461C95.0359 8.53158 95.0565 8.55888 95.0785 8.57101C95.1387 8.60742 95.1828 8.67567 95.2724 8.64685C95.3414 8.6241 95.4163 8.61802 95.4897 8.61347C95.5088 8.61195 95.5382 8.63622 95.547 8.65594C95.5646 8.69083 95.5426 8.73179 95.4927 8.7606C95.4721 8.77274 95.4442 8.7697 95.4207 8.77425C95.3238 8.79093 95.2269 8.80913 95.1299 8.82278C95.0785 8.83036 95.0301 8.85312 95.0242 8.90924C95.0198 8.94716 95.0727 8.98052 95.1226 8.97749C95.196 8.97294 95.2694 8.9608 95.3399 8.94109C95.4648 8.90772 95.5734 8.91681 95.6748 9.01237C95.7467 9.0791 95.7423 9.05485 95.8187 9.25202C95.8378 9.30207 95.8951 9.30662 95.945 9.30359C96.0654 9.296 96.1212 9.31876 96.1109 9.36578C96.0977 9.42341 96.0551 9.4416 96.0008 9.44919C95.9038 9.46132 95.8069 9.48105 95.71 9.49773C95.6865 9.50228 95.6601 9.51137 95.638 9.50834C95.616 9.50531 95.5955 9.48711 95.5764 9.47346C95.5353 9.44464 95.5 9.40065 95.4559 9.39003C95.4119 9.37941 95.3605 9.40217 95.312 9.41127C95.2636 9.41885 95.2122 9.4416 95.1681 9.43099C95.1241 9.42037 95.0873 9.37488 95.0477 9.34758C95.0286 9.33393 95.0051 9.31268 94.986 9.31419C94.8891 9.32633 94.7922 9.34606 94.6953 9.36122C94.5763 9.38094 94.5763 9.38094 94.4324 9.2869C94.3913 9.2596 94.3487 9.26113 94.2944 9.27326C94.1769 9.29753 94.1754 9.29296 93.961 9.205C93.9404 9.1959 93.9154 9.18528 93.8949 9.18983C93.6761 9.22472 93.4587 9.26263 93.2414 9.29903C93.0549 9.33088 93.0549 9.3309 92.9521 9.48257C92.8757 9.59481 92.8743 9.5948 92.9492 9.64637C93.0094 9.68884 93.0637 9.75102 93.1298 9.77377C93.1915 9.795 93.2678 9.72675 93.3354 9.79652C93.3692 9.83141 93.4132 9.86933 93.4558 9.87539C93.5233 9.88298 93.5953 9.83899 93.6599 9.90572C93.6922 9.93909 93.7407 9.97399 93.7818 9.9755C93.8538 9.97854 93.9272 9.95426 93.9992 9.94364C94.0212 9.94061 94.0462 9.94061 94.0667 9.9482C94.0888 9.9573 94.1078 9.9755 94.1269 9.99067C94.1857 10.0422 94.2488 10.0665 94.3252 10.0407C94.45 9.99825 94.5616 10.0195 94.6585 10.1165C94.6718 10.1302 94.7041 10.1317 94.7246 10.1257C94.7775 10.1105 94.823 10.109 94.8627 10.1378C94.8788 10.1499 94.9023 10.1711 94.8994 10.1848C94.895 10.2075 94.8773 10.2379 94.8582 10.2455C94.7202 10.297 94.5719 10.3031 94.4295 10.3304C94.4104 10.3334 94.3869 10.3137 94.3678 10.3001C94.3267 10.2728 94.2914 10.2273 94.2474 10.2167C94.2033 10.206 94.1519 10.2258 94.1034 10.2333C94.055 10.2409 94.0036 10.2637 93.9595 10.2546C93.9155 10.244 93.8743 10.206 93.8391 10.1727C93.798 10.1347 93.7583 10.1302 93.704 10.1454C93.6335 10.1651 93.5601 10.1681 93.4881 10.1787C93.4485 10.1499 93.4088 10.1181 93.3677 10.0908C93.3486 10.0771 93.3251 10.0604 93.3046 10.0619C93.2076 10.0741 93.1107 10.0923 93.0138 10.109C92.9168 10.1256 92.9169 10.1257 92.7524 10.0316C92.7333 10.021 92.7083 10.0089 92.6878 10.0119C92.5659 10.0301 92.4454 10.0528 92.3236 10.071C92.2766 10.0786 92.234 10.0574 92.1958 10.0164C92.1591 9.97549 92.115 9.95274 92.0695 9.96032C91.8757 9.99217 91.6818 10.0225 91.488 10.0604C91.4101 10.0756 91.344 10.062 91.2912 10.0073C91.2295 9.94516 91.1605 9.96033 91.0885 9.97247C90.9255 10.0028 90.9241 10.0013 90.8198 9.92392C90.7992 9.90876 90.7787 9.87993 90.7596 9.88145C90.5907 9.9042 90.4204 9.92544 90.253 9.96184C90.1648 9.98156 90.1178 9.92848 90.0591 9.88904C90.0385 9.87539 90.0165 9.84657 89.9989 9.8496C89.877 9.86629 89.7551 9.88146 89.6361 9.9118C89.5172 9.94213 89.4717 9.80108 89.3821 9.8026C89.2602 9.80411 89.1398 9.839 89.0194 9.86023C88.9224 9.87692 88.8255 9.89359 88.7286 9.91028C88.6317 9.92696 88.5348 9.94061 88.4378 9.96032C88.3864 9.97094 88.3483 9.95729 88.3057 9.91937C88.2514 9.86932 88.1867 9.8299 88.128 9.7844C88.0384 9.71918 88.0384 9.71917 87.9297 9.73737C87.9062 9.74192 87.8813 9.74494 87.8578 9.74949C87.6801 9.78286 87.6801 9.77984 87.4539 9.68429C87.4436 9.67974 87.4172 9.69643 87.4069 9.70856C87.3761 9.74799 87.3482 9.79045 87.3203 9.8314C87.2807 9.80714 87.2322 9.79349 87.2058 9.7586C87.1309 9.66002 87.0134 9.795 86.937 9.69793C86.9091 9.66153 86.8606 9.62968 86.8166 9.62058C86.771 9.61148 86.7197 9.63271 86.6727 9.64181C86.5508 9.66456 86.5508 9.66305 86.4465 9.79804C86.3936 9.86478 86.3173 9.85264 86.2483 9.8678C86.1763 9.88449 86.1073 9.89359 86.0471 9.8314C85.9927 9.77529 85.9267 9.76164 85.8488 9.77984C85.7534 9.80259 85.655 9.81624 85.5581 9.82989C85.5375 9.83292 85.5125 9.82534 85.492 9.81624C85.2673 9.72675 85.2673 9.72524 85.1586 9.74496C85.1101 9.75406 85.0602 9.75708 85.0132 9.77073C84.9339 9.795 84.8737 9.76315 84.8165 9.71461C84.7974 9.69945 84.7753 9.67064 84.7562 9.67216C84.6593 9.67974 84.5639 9.69339 84.4684 9.70704C84.395 9.71766 84.3215 9.72372 84.2511 9.74496C84.1336 9.77984 84.0763 9.68124 83.9955 9.63574C83.8751 9.65546 83.7532 9.66911 83.6328 9.69641C83.577 9.70855 83.5403 9.70401 83.4977 9.6676C83.4434 9.6221 83.3934 9.57054 83.3053 9.59329C83.1878 9.62362 83.0645 9.63424 82.9441 9.65244C82.8633 9.60542 82.8046 9.50986 82.6886 9.54474C82.6181 9.56598 82.5432 9.57053 82.4712 9.58266C82.3743 9.59934 82.2774 9.61452 82.1805 9.63272C82.0762 9.65092 82.0776 9.64637 81.9176 9.55689C81.8251 9.5038 81.7296 9.56295 81.6356 9.57205C81.5622 9.57963 81.5255 9.6494 81.5431 9.73889C81.5607 9.82837 81.521 9.89814 81.4535 9.91028C81.2846 9.93909 81.1143 9.96942 80.9454 9.9952C80.9248 9.99824 80.8999 9.98762 80.8808 9.977C80.7002 9.88145 80.7001 9.88298 80.6194 9.89663C80.499 9.91938 80.3756 9.9315 80.2567 9.96032C80.1744 9.98004 80.1142 9.9482 80.0613 9.89663C80.0202 9.8572 79.982 9.84809 79.9292 9.85719C79.3476 9.95882 78.7661 10.0528 78.186 10.1575C78.0994 10.1727 78.0495 10.1287 77.9907 10.0877C77.9702 10.0741 77.951 10.0453 77.9305 10.0453C77.882 10.0453 77.8336 10.0589 77.7851 10.068C77.5678 10.1044 77.3504 10.1484 77.1316 10.1757C77.0391 10.1878 77.0141 10.2576 76.9745 10.3152C76.9436 10.3592 76.9084 10.3774 76.8541 10.3835C76.8012 10.3896 76.763 10.382 76.7219 10.3425C76.669 10.291 76.6088 10.2591 76.5266 10.2803C76.4312 10.3046 76.3342 10.3152 76.2358 10.3319C76.1859 10.3395 76.1477 10.3668 76.1315 10.4214C76.1286 10.4305 76.1595 10.4533 76.1771 10.4669C76.2358 10.5124 76.2916 10.5655 76.3577 10.5974C76.4253 10.6292 76.4987 10.5928 76.5692 10.5837C76.5941 10.5807 76.6176 10.5716 76.6411 10.5731C76.6631 10.5746 76.6896 10.5822 76.7058 10.5958C76.7821 10.6641 76.8629 10.7111 76.9686 10.6702C77.0596 10.6899 77.1067 10.8158 77.2227 10.7824C77.2932 10.7627 77.3666 10.7536 77.44 10.746C77.4591 10.7445 77.4797 10.7718 77.5002 10.7854C77.559 10.8233 77.606 10.884 77.6941 10.8582C77.7881 10.8309 77.8879 10.8264 77.9834 10.8051C78.0362 10.793 78.0744 10.8036 78.1155 10.8431C78.1684 10.8931 78.2286 10.931 78.3109 10.9068C78.3813 10.8855 78.4562 10.881 78.5282 10.8673C78.6222 10.8506 78.6222 10.8522 78.7896 10.9462C78.8087 10.9568 78.8336 10.9689 78.8542 10.9659C78.9761 10.9477 79.0965 10.925 79.2184 10.9068C79.2654 10.8992 79.3109 10.9189 79.3432 10.9629C79.3565 10.9811 79.352 11.0114 79.3564 11.0372C79.1141 11.0782 78.8718 11.113 78.631 11.1631C78.5399 11.1828 78.4988 11.1206 78.4386 11.0857C78.418 11.0736 78.396 11.0478 78.3769 11.0509C78.2066 11.0766 78.0377 11.1039 77.8688 11.1373C77.816 11.1479 77.7763 11.1419 77.7367 11.0979C77.6353 10.9811 77.512 11.0448 77.3974 11.0615C77.3093 11.0736 77.2814 11.1206 77.2917 11.2207C77.3049 11.339 77.3578 11.3754 77.4929 11.3542C77.5413 11.3466 77.5898 11.336 77.6383 11.3299C77.6852 11.3239 77.7279 11.3436 77.766 11.3845C77.8027 11.4255 77.8468 11.4467 77.8923 11.4406C77.9892 11.427 78.0876 11.4134 78.1816 11.3906C78.2594 11.3724 78.3241 11.3876 78.3784 11.4437C78.4386 11.5059 78.5091 11.4922 78.5796 11.4786C78.7441 11.4482 78.7455 11.4498 78.8483 11.5256C78.8689 11.5408 78.8895 11.5696 78.9086 11.5681C79.0774 11.5453 79.2478 11.5256 79.4137 11.4892C79.5004 11.471 79.5503 11.5195 79.6076 11.559C79.6281 11.5726 79.6487 11.6029 79.6678 11.5999C79.7897 11.5832 79.9115 11.5665 80.0305 11.5377C80.0863 11.5241 80.1201 11.5332 80.1656 11.5696C80.2743 11.6591 80.2772 11.656 80.4314 11.6272C80.4784 11.6181 80.5298 11.6014 80.5738 11.6136C80.6179 11.6257 80.6532 11.6697 80.6943 11.697C80.7134 11.7091 80.7369 11.7258 80.7574 11.7228C80.8543 11.7106 80.9513 11.6924 81.0482 11.6757C81.1392 11.6591 81.1392 11.6606 81.3096 11.7546C81.3786 11.7941 81.4506 11.7607 81.5196 11.7485C81.5945 11.7349 81.662 11.7349 81.7193 11.7941C81.7766 11.8532 81.8456 11.8502 81.919 11.838C81.9881 11.8259 82.0585 11.7925 82.129 11.8335C82.2906 11.9275 82.2906 11.929 82.3904 11.9108C82.5358 11.885 82.6797 11.8608 82.8266 11.838C82.8457 11.835 82.8706 11.8532 82.8897 11.8653C82.9308 11.8926 82.9661 11.9381 83.0102 11.9487C83.0542 11.9609 83.1056 11.9427 83.1526 11.9336C83.3039 11.9048 83.3141 11.8942 83.4155 11.9943C83.5006 12.0762 83.6064 11.9579 83.6857 12.0519C83.7312 12.105 83.7929 12.1474 83.878 12.1217C83.9485 12.1004 84.022 12.0944 84.0954 12.0822C84.2114 12.0625 84.2114 12.064 84.3583 12.155C84.3773 12.1672 84.4023 12.1823 84.4214 12.1793C84.5183 12.1672 84.6167 12.1565 84.7107 12.1292C84.8209 12.0974 84.8913 12.155 84.9736 12.2112C85.0382 12.2551 85.1146 12.2187 85.1836 12.2036C85.2585 12.1884 85.326 12.1929 85.3818 12.2521C85.4406 12.3128 85.5096 12.3052 85.583 12.293C85.652 12.2824 85.7225 12.2475 85.793 12.29C85.9443 12.384 85.9443 12.384 86.0544 12.3658C86.1513 12.3492 86.2483 12.331 86.3452 12.3188C86.3643 12.3158 86.3878 12.3355 86.4068 12.3492C86.448 12.3765 86.4832 12.422 86.5273 12.4326C86.5713 12.4432 86.6227 12.4235 86.6712 12.4159C86.7197 12.4083 86.771 12.3856 86.8151 12.3947C86.8592 12.4038 86.9003 12.4417 86.9355 12.4751C86.9767 12.5145 87.0148 12.519 87.0706 12.5039C87.1411 12.4842 87.2145 12.4796 87.2865 12.469C87.3261 12.4978 87.3673 12.5266 87.4055 12.5585C87.4451 12.5918 87.4877 12.5888 87.542 12.5782C87.7226 12.5418 87.7241 12.5463 87.8754 12.6404C87.9444 12.6829 88.0164 12.648 88.0854 12.6373C88.1588 12.6252 88.2278 12.6192 88.2851 12.6798C88.3409 12.7375 88.4099 12.745 88.4834 12.7268C88.5304 12.7147 88.5803 12.7071 88.6288 12.7026C88.6508 12.7011 88.6772 12.7071 88.6934 12.7193C88.7712 12.783 88.8476 12.8406 88.9548 12.7996C89.0487 12.8118 89.0957 12.9362 89.2088 12.9119C89.3043 12.8907 89.4041 12.8861 89.4981 12.8588C89.5848 12.8345 89.6464 12.877 89.6905 12.9301C89.7698 13.0241 89.8814 12.8967 89.9607 12.9892C90.0062 13.0423 90.065 13.0848 90.1531 13.062C90.25 13.0378 90.2808 13.0696 90.3087 13.1652C90.3249 13.2198 90.322 13.2638 90.2926 13.3062C90.2632 13.3502 90.2309 13.3426 90.1839 13.2926C90.1296 13.2365 90.065 13.2258 89.9871 13.238C89.9108 13.2501 89.8638 13.1712 89.8006 13.1409C89.7375 13.1091 89.6626 13.1621 89.5965 13.1212C89.4409 13.0256 89.4409 13.0256 89.3351 13.0438C89.2632 13.056 89.1883 13.062 89.1178 13.0833C89.0341 13.1091 88.9797 13.062 88.9225 13.0196C88.9019 13.0044 88.8813 12.9756 88.8637 12.9771C88.6948 12.9998 88.5245 13.0211 88.3571 13.059C88.269 13.0787 88.222 13.0241 88.1632 12.9862C88.1427 12.9726 88.1206 12.9453 88.103 12.9483C87.9576 12.9695 87.8137 12.9968 87.6683 13.0226C87.6404 13.0636 87.6096 13.103 87.5831 13.147C87.5552 13.1925 87.5171 13.2122 87.4613 13.2107C87.3688 13.2107 87.2777 13.2744 87.1852 13.194C87.0897 13.1121 87.0824 13.1166 86.9899 13.1364C86.8724 13.1621 86.7476 13.1561 86.6374 13.2152C86.6183 13.2258 86.5978 13.2547 86.5978 13.2759C86.5963 13.2895 86.6271 13.3093 86.6462 13.3214C86.7109 13.3578 86.7857 13.3047 86.8503 13.3426C86.8929 13.3669 86.9282 13.4033 86.9708 13.4291C86.9884 13.4397 87.0148 13.4382 87.0383 13.4367C87.0633 13.4352 87.0868 13.4245 87.1103 13.4261C87.1323 13.4276 87.1558 13.4367 87.1735 13.4503C87.2542 13.5079 87.3394 13.561 87.4113 13.6293C87.4818 13.696 87.5479 13.6505 87.6184 13.6475C87.9003 13.7537 87.9004 13.7552 88.0898 13.7218C88.1368 13.7142 88.1853 13.7051 88.2337 13.7066C88.2543 13.7066 88.2734 13.7339 88.2939 13.7491C88.3527 13.7946 88.4085 13.8356 88.4907 13.8113C88.5612 13.7901 88.6361 13.7855 88.7081 13.7719C88.805 13.7552 88.805 13.7552 88.9695 13.8507C89.0106 13.875 89.0546 13.872 89.1075 13.8598C89.153 13.8492 89.2 13.872 89.2323 13.916C89.2455 13.9342 89.2411 13.9645 89.2455 13.9903C89.1001 14.0145 88.9533 14.0312 88.8123 14.0676C88.7213 14.0904 88.6801 14.0252 88.6199 13.9903C88.5994 13.9781 88.5774 13.9524 88.5583 13.9554C88.4144 13.9781 88.2704 14.0039 88.1265 14.0342C88.1089 14.0373 88.0869 14.0722 88.0854 14.0934C88.0825 14.1328 88.1192 14.1708 88.172 14.1692C88.2425 14.1677 88.3116 14.1419 88.3747 14.2041C88.4276 14.2587 88.4936 14.283 88.5715 14.2587C88.6185 14.2451 88.6684 14.2451 88.7154 14.2329C88.8402 14.1965 88.9533 14.2041 89.0473 14.3073C89.1192 14.3346 89.1897 14.3088 89.2588 14.2951C89.3102 14.2845 89.3601 14.2739 89.3968 14.3027C89.4746 14.3634 89.551 14.4241 89.6582 14.3831C89.7742 14.4256 89.8623 14.5151 89.9593 14.5879C90.0048 14.6227 90.04 14.6425 90.0929 14.6197C90.1149 14.6106 90.1413 14.6106 90.1648 14.6061C90.2133 14.5985 90.2647 14.5757 90.3087 14.5848C90.3528 14.5954 90.3895 14.6394 90.4292 14.6667C90.4483 14.6804 90.4703 14.7031 90.4894 14.7016C90.5628 14.694 90.6348 14.6789 90.7067 14.6667C90.7787 14.6561 90.8506 14.6455 90.9226 14.6349C90.9828 14.6743 91.0445 14.7138 91.1047 14.7532C91.2016 14.7365 91.2986 14.7198 91.394 14.7046C91.5012 14.6864 91.5012 14.688 91.6554 14.782C91.7244 14.8245 91.7978 14.7972 91.8639 14.7774C91.9741 14.7456 92.0475 14.8032 92.1253 14.8639C92.1415 14.876 92.1708 14.8836 92.1899 14.8776C92.2663 14.8563 92.3324 14.873 92.3882 14.9291C92.4278 14.9686 92.4675 14.9868 92.5159 14.9792C92.6848 14.9504 92.8537 14.92 93.0226 14.8942C93.0431 14.8912 93.0666 14.9049 93.0857 14.917C93.2355 15.0095 93.237 15.0141 93.3471 14.9898C93.4455 14.9686 93.5366 14.9595 93.6144 15.0429C93.6306 15.0611 93.6555 15.0869 93.6731 15.0853C93.7936 15.0702 93.9155 15.0535 94.0344 15.0277C94.0888 15.0156 94.1269 15.0201 94.1695 15.055C94.2239 15.099 94.2723 15.1521 94.3619 15.1324C94.6101 15.0763 94.6115 15.0853 94.9053 15.19C94.9258 15.1976 94.9537 15.1855 94.9772 15.1794C95.0271 15.1642 95.0638 15.1855 95.1079 15.2203C95.2063 15.2992 95.2092 15.2947 95.3032 15.278C95.3752 15.2643 95.4501 15.2613 95.5206 15.2385C95.6292 15.2052 95.7012 15.2643 95.782 15.3204C95.8466 15.3644 95.9215 15.328 95.9905 15.3144C96.0654 15.2992 96.1329 15.3037 96.1887 15.3614C96.2269 15.4008 96.268 15.4221 96.3165 15.4145C96.4854 15.3872 96.6543 15.3568 96.8232 15.3295C96.8437 15.3265 96.8687 15.3386 96.8878 15.3493C97.0552 15.4433 97.0552 15.4479 97.2211 15.413C97.274 15.4023 97.318 15.3993 97.3577 15.4312C97.3959 15.4615 97.437 15.4903 97.4766 15.5191C97.5486 15.5085 97.622 15.5055 97.6925 15.4873C97.7469 15.4736 97.785 15.4797 97.8276 15.5116C97.8834 15.5525 97.9304 15.6238 98.0185 15.5889C98.064 15.5722 98.1169 15.5768 98.1624 15.5616C98.2168 15.5419 98.2535 15.554 98.2961 15.5934C98.349 15.6405 98.4033 15.689 98.4884 15.6647C98.5824 15.6374 98.6823 15.6329 98.7777 15.6116C98.8306 15.5995 98.8673 15.6116 98.9099 15.6511C98.9628 15.7011 99.023 15.733 99.1053 15.7133C99.2727 15.6754 99.2741 15.6829 99.4371 15.7785C99.4782 15.8028 99.5223 15.7997 99.5752 15.7876C99.6207 15.777 99.6677 15.7997 99.7 15.8437C99.7308 15.8922 99.7279 15.9226 99.7308 15.9484ZM86.6448 2.26901C86.5963 2.27659 86.5478 2.28569 86.4773 2.15373C86.4729 2.13098 86.4759 2.10369 86.4656 2.08397C86.4421 2.04302 86.4054 2.0142 86.3614 2.00965C86.2821 2.00358 86.1866 2.05514 86.188 2.09458C86.1895 2.12795 86.2145 2.15676 86.2629 2.18406C86.2835 2.19468 86.2997 2.21288 86.3188 2.22502C86.3746 2.2599 86.4186 2.32816 86.4994 2.29328C86.4847 2.19924 86.492 2.24626 86.4994 2.29328C86.492 2.35091 86.5141 2.39187 86.5669 2.40855C86.5816 2.4131 86.6037 2.41006 86.6154 2.40096C86.6609 2.36759 86.6683 2.3221 86.6345 2.20228C86.6286 2.222 86.633 2.25687 86.6462 2.26597C86.6595 2.27507 86.6917 2.2675 86.7079 2.25688C86.749 2.22806 86.7696 2.19014 86.7593 2.15829C86.7534 2.1416 86.7255 2.12037 86.7079 2.12037C86.6771 2.12037 86.6492 2.15373 86.6448 2.26901ZM98.5193 19.8585C98.4121 19.8873 98.2887 19.8767 98.1815 19.9358C98.1625 19.9465 98.1434 19.9738 98.1419 19.995C98.1404 20.0086 98.1698 20.0284 98.1874 20.039C98.2271 20.0633 98.2711 20.0557 98.3225 20.0481C98.4004 20.0375 98.4459 20.1072 98.5061 20.1421C98.5252 20.1527 98.5501 20.1603 98.5707 20.1573C98.6896 20.1391 98.8071 20.1194 98.9261 20.0981C98.9466 20.0936 98.9687 20.083 98.9863 20.0693C99.045 20.0253 99.0392 19.9965 98.9819 19.9631C98.9187 19.9267 98.8688 19.8661 98.8042 19.8372C98.7117 19.7963 98.6177 19.8509 98.5193 19.8585ZM90.1795 20.9657C90.1076 20.9778 90.037 20.99 89.9651 21.0021C89.9416 21.0067 89.9166 21.0082 89.8946 21.0142C89.8491 21.0248 89.8153 21.0567 89.7933 21.1067C89.8271 21.1462 89.8682 21.1689 89.9137 21.1644C89.9857 21.1553 90.0562 21.1356 90.1281 21.131C90.2059 21.125 90.2515 21.1932 90.3117 21.2281C90.3308 21.2387 90.3543 21.2402 90.3763 21.2417C90.485 21.2478 90.551 21.1689 90.5305 21.0582C90.5158 20.9718 90.46 20.9202 90.3925 20.9308C90.322 20.9414 90.25 20.9536 90.1795 20.9657ZM99.0215 17.6168C99.0392 17.591 99.0583 17.5728 99.0671 17.55C99.0935 17.4727 99.0832 17.415 99.0347 17.3544C98.976 17.28 98.9041 17.3301 98.838 17.3377C98.8218 17.3392 98.8042 17.371 98.7954 17.3908C98.7895 17.4044 98.7895 17.4332 98.7983 17.4408C98.8703 17.5015 98.9466 17.5576 99.0215 17.6168ZM86.282 13.1364C86.2116 13.1485 86.1396 13.1576 86.0691 13.1743C86.0515 13.1788 86.0353 13.2076 86.025 13.2274C86.006 13.2638 86.0265 13.3138 86.0867 13.3184C86.1557 13.3244 86.2277 13.2986 86.2996 13.2865C86.3907 13.2713 86.445 13.2152 86.4113 13.1667C86.379 13.1197 86.3349 13.1106 86.282 13.1364ZM8.98005 9.89511C9.02704 9.88753 9.0755 9.88146 9.12249 9.87084C9.16655 9.86022 9.20035 9.82686 9.22238 9.7768C9.18567 9.73737 9.14453 9.71614 9.09901 9.72069C9.02705 9.72979 8.95657 9.74192 8.88608 9.75709C8.84202 9.76619 8.79945 9.79955 8.78917 9.85112C8.77889 9.89056 8.87725 9.91331 8.98005 9.89511ZM80.0716 9.66153C80.0907 9.67518 80.1098 9.70249 80.1289 9.70249C80.1759 9.70249 80.2244 9.69338 80.2684 9.67821C80.2875 9.67215 80.3022 9.64485 80.311 9.62361C80.3168 9.60996 80.3154 9.5857 80.3066 9.57357C80.264 9.50076 80.0936 9.52655 80.0657 9.60997C80.0628 9.62514 80.0702 9.64485 80.0716 9.66153ZM75.4384 1.35593C75.4428 1.3802 75.4443 1.40447 75.4502 1.42873C75.4619 1.47424 75.4942 1.50761 75.5412 1.53036C75.5779 1.49244 75.597 1.44998 75.5955 1.40448C75.5941 1.38021 75.5897 1.35593 75.5838 1.33166C75.572 1.28616 75.5397 1.2528 75.4928 1.23005C75.456 1.26645 75.4384 1.30891 75.4384 1.35593ZM102.415 21.2296C102.402 21.2493 102.389 21.269 102.374 21.2872C102.414 21.3312 102.451 21.3449 102.478 21.3206C102.496 21.3054 102.506 21.2827 102.52 21.263C102.48 21.219 102.445 21.2069 102.415 21.2296ZM101.502 21.4359C101.521 21.4495 101.539 21.4677 101.559 21.4768C101.593 21.492 101.624 21.4662 101.647 21.4116C101.628 21.398 101.611 21.3798 101.59 21.3707C101.556 21.3555 101.525 21.3813 101.502 21.4359ZM102.08 21.1583C102.07 21.1947 102.091 21.2251 102.145 21.2508C102.158 21.2311 102.176 21.2129 102.185 21.1917C102.199 21.1568 102.174 21.125 102.122 21.1007C102.107 21.1189 102.094 21.1386 102.08 21.1583ZM98.9804 19.5233C98.9701 19.5597 98.9907 19.59 99.045 19.6158C99.0582 19.5961 99.0759 19.5779 99.0847 19.5567C99.0994 19.5218 99.0744 19.4899 99.0215 19.4657C99.0069 19.4839 98.9936 19.5036 98.9804 19.5233ZM94.7569 8.79093C94.7437 8.81065 94.7305 8.83037 94.7158 8.84857C94.7555 8.89255 94.7922 8.9062 94.8201 8.88193C94.8377 8.86676 94.848 8.84401 94.8612 8.8243C94.8215 8.78031 94.7863 8.76818 94.7569 8.79093ZM90.7111 3.09713C90.7464 3.10775 90.7757 3.08652 90.8007 3.03041C90.7816 3.01676 90.764 2.99855 90.7434 2.98945C90.7096 2.97428 90.6788 3.00008 90.6553 3.05468C90.6744 3.06985 90.6935 3.08348 90.7111 3.09713ZM88.5627 2.74071C88.5495 2.76042 88.5362 2.78014 88.5216 2.79834C88.5612 2.84233 88.5979 2.85597 88.6258 2.83171C88.6434 2.81654 88.6537 2.79379 88.6669 2.77407C88.6273 2.73008 88.592 2.71947 88.5627 2.74071ZM73.9934 1.35442C73.9802 1.37413 73.9669 1.39385 73.9523 1.41205C73.9919 1.45604 74.0286 1.46968 74.0565 1.44542C74.0742 1.43025 74.0844 1.4075 74.0976 1.38778C74.058 1.34379 74.0228 1.33318 73.9934 1.35442ZM1.44942 13.6945C1.43033 13.6809 1.41126 13.6672 1.39363 13.652C1.35105 13.693 1.33783 13.7309 1.36133 13.7597C1.37602 13.7779 1.39803 13.7886 1.41712 13.8022C1.46117 13.7613 1.47145 13.7248 1.44942 13.6945Z" fill="#FFE492"/>
<path d="M19.3693 9.65106C19.0536 9.67998 18.7408 9.7165 18.4251 9.73476C18.2577 9.7439 18.1974 9.80935 18.1287 9.87023C18.0739 9.91894 18.0107 9.93416 17.9092 9.94329C17.0528 10.0179 16.1992 10.097 15.3456 10.1747C15.2386 10.1549 15.1864 10.1229 15.2111 10.0849C15.2249 10.062 15.2578 10.0301 15.2907 10.027C15.8753 9.9707 16.4572 9.91285 17.0445 9.86871C17.212 9.85653 17.2587 9.78956 17.3437 9.73476C17.3712 9.7165 17.3932 9.6891 17.4288 9.67845C17.4645 9.66627 17.5167 9.6678 17.5633 9.66475C18.5075 9.57799 19.4517 9.49277 20.3958 9.40601C20.5029 9.42579 20.555 9.45775 20.5303 9.4958C20.5166 9.51864 20.4837 9.5506 20.4507 9.55364C20.0884 9.58561 19.7288 9.61757 19.3693 9.65106Z" fill="#FFE492"/>
<path d="M192.19 17.7562C192.047 17.7744 191.866 17.8003 191.718 17.712C191.647 17.6694 191.57 17.6557 191.477 17.6648C191.342 17.6801 191.205 17.6922 191.068 17.7014C191.032 17.7029 190.985 17.6861 190.95 17.6724C190.873 17.645 190.807 17.5994 190.725 17.5872C190.642 17.575 190.543 17.6085 190.458 17.6009C190.346 17.5902 190.299 17.5492 190.329 17.5111C190.346 17.4898 190.379 17.4594 190.414 17.4548C190.922 17.3985 190.925 17.3985 191.068 17.4533C191.177 17.4959 191.279 17.5431 191.435 17.5172C191.567 17.4959 191.707 17.4913 191.842 17.4776C192.028 17.4593 192.028 17.4609 192.33 17.5568C192.407 17.5811 192.489 17.5796 192.588 17.5659C192.673 17.5552 192.756 17.5796 192.824 17.6207C192.78 17.6724 192.717 17.7059 192.632 17.7151C192.495 17.7303 192.36 17.7409 192.19 17.7562Z" fill="#FFE492"/>
<path d="M187.139 17.2868C187.485 17.2549 187.833 17.2275 188.179 17.1909C188.322 17.1757 188.434 17.1925 188.533 17.2442C188.64 17.3005 188.761 17.296 188.893 17.2853C188.975 17.2792 189.054 17.3036 189.109 17.3462C189.131 17.3629 189.126 17.3934 189.134 17.4177C188.832 17.4451 188.528 17.474 188.223 17.4984C188.187 17.5014 188.143 17.4862 188.11 17.474C188.036 17.4482 187.973 17.4025 187.893 17.3934C187.723 17.3721 187.553 17.4132 187.38 17.4208C187.298 17.4238 187.218 17.401 187.163 17.3599C187.141 17.3401 187.147 17.3112 187.139 17.2868Z" fill="#FFE492"/>
<path d="M62.1587 4.19975C62.5182 4.16627 62.8777 4.13432 63.2373 4.10083C63.3443 4.12214 63.3937 4.15258 63.3718 4.19063C63.3581 4.21346 63.3251 4.24542 63.2922 4.24847C62.5731 4.31696 61.854 4.3824 61.1377 4.44785C61.0306 4.42654 60.9812 4.39611 61.0032 4.35805C61.0169 4.33522 61.0498 4.30326 61.0828 4.30021C61.4396 4.26521 61.7991 4.23324 62.1587 4.19975Z" fill="#FFE492"/>
<path d="M6.75584 12.659C6.5939 12.662 6.42377 12.7183 6.24262 12.6757C6.20694 12.6681 6.15752 12.6437 6.16027 12.63C6.16576 12.6072 6.1987 12.5783 6.23438 12.5691C6.39082 12.5311 6.58571 12.5265 6.66531 12.42C6.70373 12.3652 6.7751 12.3469 6.87116 12.3363C6.97271 12.3241 7.04405 12.3287 7.12365 12.3606C7.22794 12.4017 7.31579 12.4778 7.48047 12.4383C7.4887 12.4626 7.50787 12.49 7.49963 12.5128C7.4914 12.5357 7.45578 12.557 7.42284 12.5737C7.39265 12.5889 7.35144 12.6026 7.31301 12.6072C7.13186 12.6255 6.95071 12.6407 6.75584 12.659Z" fill="#FFE492"/>
<path d="M149.5 12.353C149.635 12.3408 149.775 12.3347 149.906 12.3134C150.011 12.2966 150.077 12.3073 150.159 12.3438C150.299 12.4077 150.307 12.4017 150.65 12.4108C150.689 12.4123 150.735 12.4351 150.757 12.4549C150.771 12.4656 150.752 12.4945 150.735 12.5097C150.711 12.5295 150.675 12.5554 150.642 12.5554C150.425 12.56 150.206 12.6498 149.994 12.5463C149.887 12.4945 149.769 12.4701 149.624 12.493C149.536 12.5067 149.443 12.5128 149.352 12.5189C149.264 12.525 149.174 12.5082 149.119 12.4625C149.039 12.3956 149.086 12.3697 149.228 12.3743C149.319 12.3773 149.41 12.3606 149.5 12.353Z" fill="#FFE492"/>
<path d="M199.241 22.8444C199.414 22.8291 199.587 22.8109 199.763 22.7987C199.798 22.7957 199.842 22.8124 199.875 22.8231C200.007 22.8687 199.988 22.9463 199.993 23.0148C199.996 23.0864 199.691 23.1442 199.562 23.0955C199.42 23.0407 199.291 22.9783 199.093 23.0118C199.016 23.024 198.926 22.9966 198.876 22.9524C198.802 22.8885 198.843 22.8626 198.983 22.8672C199.066 22.8702 199.153 22.8535 199.241 22.8444Z" fill="#FFE492"/>
<path d="M112.103 2.12766C112.282 2.11091 112.46 2.08505 112.638 2.08353C112.743 2.08201 112.795 2.13223 112.77 2.16876C112.756 2.19159 112.724 2.22355 112.691 2.2266C112.334 2.26313 111.977 2.29357 111.62 2.32706C111.516 2.30575 111.464 2.27379 111.488 2.23726C111.502 2.21443 111.535 2.18399 111.568 2.17942C111.746 2.15811 111.925 2.1444 112.103 2.12766Z" fill="#FFE492"/>
<path d="M195.819 17.8898C195.992 17.8746 196.167 17.8518 196.34 17.8442C196.431 17.8411 196.502 17.8761 196.513 17.9157C196.519 17.934 196.475 17.9659 196.439 17.9736C196.192 18.0253 195.926 18.0314 195.668 18.0573C195.586 18.0649 195.498 18.0405 195.448 17.9979C195.374 17.9325 195.415 17.9081 195.555 17.9127C195.643 17.9142 195.731 17.8975 195.819 17.8898Z" fill="#FFE492"/>
<path d="M154.036 12.5581C154.124 12.5505 154.215 12.5307 154.3 12.5368C154.39 12.5444 154.448 12.5885 154.475 12.6327C154.506 12.6829 154.503 12.7301 154.475 12.7727C154.432 12.8458 154.388 12.8427 154.286 12.794C154.13 12.7179 154.119 12.7271 153.808 12.7301C153.773 12.7301 153.729 12.7073 153.701 12.6875C153.66 12.657 153.682 12.6099 153.778 12.5825C153.85 12.5627 153.948 12.5657 154.036 12.5581Z" fill="#FFE492"/>
<path d="M189.392 17.3904C189.521 17.3782 189.65 17.3584 189.779 17.3584C189.87 17.3569 189.941 17.3919 189.949 17.43C189.952 17.4482 189.911 17.4787 189.878 17.4878C189.722 17.5289 189.546 17.532 189.376 17.5457C189.296 17.5517 189.208 17.5274 189.159 17.4848C189.085 17.4208 189.129 17.3919 189.263 17.4011C189.304 17.4041 189.348 17.395 189.392 17.3904Z" fill="#FFE492"/>
<path d="M169.087 15.5234C168.895 15.5417 168.714 15.5189 168.727 15.4793C168.747 15.4276 168.826 15.394 168.908 15.3849C169.04 15.3697 169.172 15.3575 169.306 15.3484C169.391 15.3423 169.468 15.3651 169.537 15.4047C169.496 15.4534 169.433 15.4884 169.35 15.4991C169.265 15.5097 169.175 15.5158 169.087 15.5234Z" fill="#FFE492"/>
<path d="M167.832 15.3281C167.961 15.316 168.09 15.2962 168.219 15.2962C168.309 15.2947 168.381 15.3297 168.389 15.3677C168.392 15.386 168.35 15.4164 168.317 15.4256C168.161 15.4667 167.985 15.4697 167.815 15.4834C167.736 15.4895 167.648 15.4651 167.598 15.4225C167.524 15.3586 167.568 15.3297 167.703 15.3388C167.744 15.3419 167.788 15.3327 167.832 15.3281Z" fill="#FFE492"/>
<path d="M152.478 12.5455C152.607 12.5333 152.736 12.5135 152.865 12.512C152.956 12.5105 153.027 12.5455 153.035 12.5836C153.038 12.6018 152.997 12.6307 152.964 12.6414C152.807 12.6825 152.632 12.6855 152.462 12.6992C152.382 12.7053 152.294 12.681 152.245 12.6384C152.171 12.5744 152.215 12.5455 152.349 12.5546C152.39 12.5577 152.434 12.5486 152.478 12.5455Z" fill="#FFE492"/>
<path d="M151.756 12.4566C151.893 12.4444 151.937 12.4368 151.981 12.4368C152.064 12.4368 152.149 12.455 152.198 12.4992C152.272 12.5631 152.228 12.5814 152.094 12.5844C151.921 12.5875 151.751 12.6194 151.578 12.6255C151.487 12.6286 151.416 12.592 151.41 12.554C151.408 12.5357 151.449 12.5037 151.482 12.4977C151.597 12.4748 151.723 12.4611 151.756 12.4566Z" fill="#FFE492"/>
<path d="M166.71 3.50146C166.622 3.50907 166.529 3.53038 166.447 3.52277C166.337 3.51212 166.293 3.47103 166.32 3.43297C166.337 3.41166 166.367 3.38122 166.4 3.37666C166.576 3.35535 166.754 3.34164 166.93 3.32642C167.034 3.34925 167.081 3.38121 167.053 3.41926C167.037 3.44057 167.007 3.46949 166.974 3.47558C166.889 3.4908 166.798 3.49385 166.71 3.50146Z" fill="#FFE492"/>
<path d="M60.1907 4.37948C60.2758 4.37795 60.3526 4.39774 60.4184 4.43579C60.3773 4.4845 60.3169 4.51646 60.2346 4.53016C60.1934 4.53625 60.1467 4.54081 60.1028 4.54233C60.0177 4.54538 59.9409 4.52407 59.875 4.48602C59.9162 4.43731 59.9793 4.40535 60.0589 4.39165C60.1 4.38556 60.1468 4.38404 60.1907 4.37948Z" fill="#FFE492"/>
<path d="M194.887 17.8839C194.884 17.8398 195.051 17.7895 195.202 17.791C195.282 17.7926 195.364 17.8139 195.411 17.855C195.482 17.9174 195.441 17.9417 195.307 17.9372C195.224 17.9341 195.136 17.96 195.054 17.9554C194.961 17.9539 194.906 17.9204 194.887 17.8839Z" fill="#FFE492"/>
<path d="M154.829 12.7419C154.826 12.7252 154.813 12.7054 154.821 12.6902C154.873 12.6065 155.189 12.5806 155.271 12.6537C155.285 12.6674 155.29 12.6902 155.279 12.7039C155.263 12.7252 155.233 12.7526 155.2 12.7587C155.115 12.7739 155.027 12.7815 154.939 12.783C154.901 12.783 154.865 12.7572 154.829 12.7419Z" fill="#FFE492"/>
<path d="M7.7294 12.4146C7.40553 12.4466 7.40004 12.4435 7.45768 12.3674C7.50983 12.2989 7.60591 12.2578 7.74589 12.2578C7.78706 12.2578 7.83095 12.2548 7.86663 12.2609C7.90506 12.2685 7.95999 12.2837 7.96822 12.302C7.98469 12.337 7.93799 12.375 7.85565 12.4009C7.81996 12.4131 7.77332 12.4101 7.7294 12.4146Z" fill="#FFE492"/>
<path d="M64.2491 4.16546C64.153 4.19133 64.0707 4.1822 64.0103 4.1335C63.9499 4.08479 64.046 4.02695 64.2134 4.01325C64.2573 4.0102 64.304 3.99804 64.3452 4.00412C64.3863 4.00869 64.4276 4.02694 64.4523 4.0452C64.4962 4.07565 64.4687 4.11675 64.3809 4.15176C64.3452 4.16546 64.293 4.16241 64.2491 4.16546Z" fill="#FFE492"/>
<path d="M194.314 17.7693C194.339 17.7495 194.364 17.7297 194.391 17.7114C194.493 17.7373 194.537 17.7677 194.509 17.8027C194.493 17.8241 194.46 17.8423 194.435 17.8621C194.334 17.8362 194.292 17.8043 194.314 17.7693Z" fill="#FFE492"/>
<path d="M12.082 29.7425C12.082 29.7242 12.1205 29.6953 12.1506 29.6892C12.2083 29.6786 12.2796 29.6999 12.329 29.7425C12.3976 29.8034 12.3565 29.8354 12.2303 29.8186C12.1424 29.8064 12.082 29.776 12.082 29.7425Z" fill="#FFE492"/>
<path d="M155.947 11.3252C155.982 11.3389 156.018 11.3526 156.051 11.3678C156.004 11.4241 155.947 11.4484 155.886 11.4332C155.848 11.4241 155.815 11.4058 155.779 11.3921C155.826 11.3358 155.881 11.3145 155.947 11.3252Z" fill="#FFE492"/>
<path d="M155.002 11.2559C155.057 11.2331 155.123 11.2453 155.199 11.2894C155.175 11.3092 155.153 11.332 155.123 11.3472C155.07 11.3716 155.002 11.3594 154.928 11.3137C154.95 11.2955 154.974 11.2757 155.002 11.2559Z" fill="#FFE492"/>
<path d="M154.275 11.3233C154.31 11.337 154.346 11.3507 154.379 11.3659C154.332 11.4222 154.278 11.4465 154.214 11.4313C154.176 11.4222 154.143 11.4039 154.107 11.3902C154.154 11.3339 154.209 11.3111 154.275 11.3233Z" fill="#FFE492"/>
<path d="M153.736 11.2428C153.777 11.2733 153.755 11.3098 153.675 11.3509C153.64 11.3372 153.598 11.3265 153.571 11.3083C153.527 11.2794 153.549 11.2413 153.631 11.2002C153.664 11.2154 153.7 11.2291 153.736 11.2428Z" fill="#FFE492"/>
</svg>
